G75*
G70*
%OFA0B0*%
%FSLAX24Y24*%
%IPPOS*%
%LPD*%
%AMOC8*
5,1,8,0,0,1.08239X$1,22.5*
%
%ADD10C,0.0060*%
%ADD11C,0.0050*%
%ADD12C,0.0020*%
%ADD13C,0.0080*%
%ADD14C,0.0157*%
%ADD15R,0.0118X0.0059*%
%ADD16R,0.0118X0.0118*%
%ADD17C,0.0100*%
%ADD18R,0.0276X0.0118*%
%ADD19C,0.0028*%
%ADD20C,0.0040*%
%ADD21R,0.0059X0.0118*%
%ADD22C,0.0087*%
%ADD23R,0.0300X0.0340*%
D10*
X003212Y004383D02*
X003212Y004497D01*
X003212Y004440D02*
X003552Y004440D01*
X003552Y004383D02*
X003552Y004497D01*
X003495Y004629D02*
X003552Y004685D01*
X003552Y004799D01*
X003495Y004856D01*
X003495Y004997D02*
X003552Y005054D01*
X003552Y005167D01*
X003495Y005224D01*
X003439Y005224D01*
X003382Y005167D01*
X003382Y005054D01*
X003325Y004997D01*
X003269Y004997D01*
X003212Y005054D01*
X003212Y005167D01*
X003269Y005224D01*
X003212Y005365D02*
X003212Y005535D01*
X003269Y005592D01*
X003382Y005592D01*
X003439Y005535D01*
X003439Y005365D01*
X003552Y005365D02*
X003212Y005365D01*
X003325Y005734D02*
X003212Y005847D01*
X003552Y005847D01*
X003552Y005734D02*
X003552Y005961D01*
X003832Y006103D02*
X003832Y005603D01*
X004082Y005353D01*
X005582Y005353D01*
X005832Y005603D01*
X005832Y006103D01*
X005582Y006353D01*
X005832Y006603D01*
X005832Y007103D01*
X005582Y007353D01*
X004082Y007353D01*
X003832Y007103D01*
X003832Y006603D01*
X004082Y006353D01*
X005582Y006353D01*
X005582Y005353D02*
X005832Y005103D01*
X005832Y004603D01*
X005582Y004353D01*
X004082Y004353D01*
X003832Y004603D01*
X003832Y005103D01*
X004082Y005353D01*
X003832Y006103D02*
X004082Y006353D01*
X003269Y004856D02*
X003212Y004799D01*
X003212Y004685D01*
X003269Y004629D01*
X003495Y004629D01*
X008964Y009198D02*
X008964Y011958D01*
X011584Y011958D01*
X011724Y011818D01*
X011724Y009198D01*
X008964Y009198D01*
X006702Y010534D02*
X006702Y010647D01*
X006645Y010704D01*
X006589Y010704D01*
X006532Y010647D01*
X006532Y010534D01*
X006475Y010477D01*
X006419Y010477D01*
X006362Y010534D01*
X006362Y010647D01*
X006419Y010704D01*
X006419Y010846D02*
X006362Y010902D01*
X006362Y011016D01*
X006419Y011072D01*
X006475Y011072D01*
X006702Y010846D01*
X006702Y011072D01*
X006702Y010534D02*
X006645Y010477D01*
X008846Y012928D02*
X009073Y012928D01*
X009129Y012985D01*
X009129Y013098D01*
X009073Y013155D01*
X009073Y013296D02*
X009129Y013353D01*
X009129Y013466D01*
X009073Y013523D01*
X009016Y013523D01*
X008959Y013466D01*
X008959Y013410D01*
X008959Y013466D02*
X008902Y013523D01*
X008846Y013523D01*
X008789Y013466D01*
X008789Y013353D01*
X008846Y013296D01*
X008846Y013155D02*
X008789Y013098D01*
X008789Y012985D01*
X008846Y012928D01*
X008789Y013665D02*
X008959Y013665D01*
X008902Y013778D01*
X008902Y013835D01*
X008959Y013891D01*
X009073Y013891D01*
X009129Y013835D01*
X009129Y013721D01*
X009073Y013665D01*
X008789Y013665D02*
X008789Y013891D01*
X007269Y013981D02*
X006928Y013981D01*
X007099Y013811D01*
X007099Y014038D01*
X007155Y013669D02*
X007212Y013669D01*
X007269Y013613D01*
X007269Y013499D01*
X007212Y013442D01*
X007212Y013301D02*
X007269Y013244D01*
X007269Y013131D01*
X007212Y013074D01*
X006985Y013074D01*
X006928Y013131D01*
X006928Y013244D01*
X006985Y013301D01*
X006985Y013442D02*
X006928Y013499D01*
X006928Y013613D01*
X006985Y013669D01*
X007042Y013669D01*
X007099Y013613D01*
X007155Y013669D01*
X007099Y013613D02*
X007099Y013556D01*
X006402Y013645D02*
X006175Y013985D01*
X006033Y013985D02*
X005807Y013985D01*
X005920Y013985D02*
X005920Y013645D01*
X006175Y013645D02*
X006402Y013985D01*
X006402Y015219D02*
X006175Y015560D01*
X006033Y015503D02*
X006033Y015390D01*
X005977Y015333D01*
X005807Y015333D01*
X005920Y015333D02*
X006033Y015219D01*
X006175Y015219D02*
X006402Y015560D01*
X006033Y015503D02*
X005977Y015560D01*
X005807Y015560D01*
X005807Y015219D01*
X004788Y015135D02*
X004675Y015078D01*
X004561Y014965D01*
X004731Y014965D01*
X004788Y014908D01*
X004788Y014851D01*
X004731Y014795D01*
X004618Y014795D01*
X004561Y014851D01*
X004561Y014965D01*
X004420Y015021D02*
X004363Y014965D01*
X004420Y014908D01*
X004420Y014851D01*
X004363Y014795D01*
X004250Y014795D01*
X004193Y014851D01*
X004052Y014795D02*
X003938Y014908D01*
X003995Y014908D02*
X003825Y014908D01*
X003825Y014795D02*
X003825Y015135D01*
X003995Y015135D01*
X004052Y015078D01*
X004052Y014965D01*
X003995Y014908D01*
X004193Y015078D02*
X004250Y015135D01*
X004363Y015135D01*
X004420Y015078D01*
X004420Y015021D01*
X004363Y014965D02*
X004306Y014965D01*
X004250Y016369D02*
X004193Y016426D01*
X004250Y016369D02*
X004363Y016369D01*
X004420Y016426D01*
X004420Y016483D01*
X004363Y016540D01*
X004306Y016540D01*
X004363Y016540D02*
X004420Y016596D01*
X004420Y016653D01*
X004363Y016710D01*
X004250Y016710D01*
X004193Y016653D01*
X004052Y016653D02*
X004052Y016540D01*
X003995Y016483D01*
X003825Y016483D01*
X003938Y016483D02*
X004052Y016369D01*
X003825Y016369D02*
X003825Y016710D01*
X003995Y016710D01*
X004052Y016653D01*
X004561Y016710D02*
X004788Y016710D01*
X004788Y016653D01*
X004561Y016426D01*
X004561Y016369D01*
X007834Y017414D02*
X007891Y017357D01*
X008004Y017357D01*
X008061Y017414D01*
X008061Y017697D01*
X008202Y017697D02*
X008373Y017697D01*
X008429Y017640D01*
X008429Y017584D01*
X008373Y017527D01*
X008202Y017527D01*
X008202Y017357D02*
X008202Y017697D01*
X008373Y017527D02*
X008429Y017470D01*
X008429Y017414D01*
X008373Y017357D01*
X008202Y017357D01*
X008219Y017277D02*
X009319Y017277D01*
X009336Y017275D01*
X009353Y017271D01*
X009369Y017264D01*
X009383Y017254D01*
X009396Y017241D01*
X009406Y017227D01*
X009413Y017211D01*
X009417Y017194D01*
X009419Y017177D01*
X009419Y016577D01*
X009417Y016560D01*
X009413Y016543D01*
X009406Y016527D01*
X009396Y016513D01*
X009383Y016500D01*
X009369Y016490D01*
X009353Y016483D01*
X009336Y016479D01*
X009319Y016477D01*
X008219Y016477D01*
X008202Y016479D01*
X008185Y016483D01*
X008169Y016490D01*
X008155Y016500D01*
X008142Y016513D01*
X008132Y016527D01*
X008125Y016543D01*
X008121Y016560D01*
X008119Y016577D01*
X008119Y017177D01*
X008121Y017194D01*
X008125Y017211D01*
X008132Y017227D01*
X008142Y017241D01*
X008155Y017254D01*
X008169Y017264D01*
X008185Y017271D01*
X008202Y017275D01*
X008219Y017277D01*
X008571Y017414D02*
X008571Y017640D01*
X008627Y017697D01*
X008741Y017697D01*
X008798Y017640D01*
X008798Y017414D01*
X008741Y017357D01*
X008627Y017357D01*
X008571Y017414D01*
X008939Y017414D02*
X008996Y017357D01*
X009109Y017357D01*
X009166Y017414D01*
X009166Y017640D01*
X009109Y017697D01*
X008996Y017697D01*
X008939Y017640D01*
X008939Y017414D01*
X009307Y017697D02*
X009534Y017697D01*
X009421Y017697D02*
X009421Y017357D01*
X010102Y016710D02*
X010045Y016653D01*
X010045Y016426D01*
X010102Y016369D01*
X010215Y016369D01*
X010272Y016426D01*
X010414Y016426D02*
X010470Y016369D01*
X010584Y016369D01*
X010640Y016426D01*
X010640Y016483D01*
X010584Y016540D01*
X010527Y016540D01*
X010584Y016540D02*
X010640Y016596D01*
X010640Y016653D01*
X010584Y016710D01*
X010470Y016710D01*
X010414Y016653D01*
X010272Y016653D02*
X010215Y016710D01*
X010102Y016710D01*
X010782Y016653D02*
X010839Y016710D01*
X010952Y016710D01*
X011009Y016653D01*
X011009Y016596D01*
X010952Y016540D01*
X011009Y016483D01*
X011009Y016426D01*
X010952Y016369D01*
X010839Y016369D01*
X010782Y016426D01*
X010895Y016540D02*
X010952Y016540D01*
X011581Y016483D02*
X011751Y016483D01*
X011807Y016540D01*
X011807Y016653D01*
X011751Y016710D01*
X011581Y016710D01*
X011581Y016369D01*
X011694Y016483D02*
X011807Y016369D01*
X011949Y016426D02*
X012006Y016369D01*
X012119Y016369D01*
X012176Y016426D01*
X012176Y016483D01*
X012119Y016540D01*
X012062Y016540D01*
X012119Y016540D02*
X012176Y016596D01*
X012176Y016653D01*
X012119Y016710D01*
X012006Y016710D01*
X011949Y016653D01*
X012317Y016540D02*
X012544Y016540D01*
X012487Y016710D02*
X012317Y016540D01*
X012487Y016710D02*
X012487Y016369D01*
X012919Y016426D02*
X012919Y016653D01*
X012976Y016710D01*
X013089Y016710D01*
X013146Y016653D01*
X013288Y016653D02*
X013344Y016710D01*
X013458Y016710D01*
X013514Y016653D01*
X013514Y016596D01*
X013458Y016540D01*
X013514Y016483D01*
X013514Y016426D01*
X013458Y016369D01*
X013344Y016369D01*
X013288Y016426D01*
X013146Y016426D02*
X013089Y016369D01*
X012976Y016369D01*
X012919Y016426D01*
X013401Y016540D02*
X013458Y016540D01*
X013656Y016653D02*
X013713Y016710D01*
X013826Y016710D01*
X013883Y016653D01*
X013883Y016596D01*
X013656Y016369D01*
X013883Y016369D01*
X013897Y017773D02*
X013897Y018000D01*
X013897Y018141D02*
X013897Y018368D01*
X013897Y018255D02*
X013556Y018255D01*
X013670Y018141D01*
X013613Y018000D02*
X013840Y017773D01*
X013897Y017773D01*
X013556Y017773D02*
X013556Y018000D01*
X013613Y018000D01*
X013517Y018600D02*
X013517Y018827D01*
X013574Y018827D01*
X013801Y018600D01*
X013857Y018600D01*
X013857Y018827D01*
X013857Y018968D02*
X013630Y019195D01*
X013574Y019195D01*
X013517Y019138D01*
X013517Y019025D01*
X013574Y018968D01*
X013857Y018968D02*
X013857Y019195D01*
X013852Y019582D02*
X013512Y019582D01*
X013852Y019582D02*
X013852Y019809D01*
X013852Y019950D02*
X013852Y020177D01*
X013852Y020064D02*
X013512Y020064D01*
X013625Y019950D01*
X010941Y020808D02*
X010714Y020808D01*
X010941Y021035D01*
X010941Y021092D01*
X010884Y021148D01*
X010771Y021148D01*
X010714Y021092D01*
X010573Y021092D02*
X010516Y021148D01*
X010403Y021148D01*
X010346Y021092D01*
X010346Y020865D01*
X010403Y020808D01*
X010516Y020808D01*
X010573Y020865D01*
X008806Y019572D02*
X008806Y019232D01*
X008693Y019232D02*
X008920Y019232D01*
X008693Y019459D02*
X008806Y019572D01*
X008552Y019572D02*
X008325Y019572D01*
X008325Y019232D01*
X008325Y019402D02*
X008438Y019402D01*
X007834Y017697D02*
X007834Y017414D01*
X011108Y017568D02*
X011165Y017511D01*
X011278Y017511D01*
X011335Y017568D01*
X011476Y017511D02*
X011703Y017738D01*
X011703Y017795D01*
X011647Y017851D01*
X011533Y017851D01*
X011476Y017795D01*
X011335Y017795D02*
X011278Y017851D01*
X011165Y017851D01*
X011108Y017795D01*
X011108Y017568D01*
X011476Y017511D02*
X011703Y017511D01*
X011845Y017568D02*
X011901Y017511D01*
X012015Y017511D01*
X012072Y017568D01*
X012072Y017795D01*
X012015Y017851D01*
X011901Y017851D01*
X011845Y017795D01*
X011845Y017738D01*
X011901Y017681D01*
X012072Y017681D01*
X012006Y014229D02*
X011836Y014059D01*
X012063Y014059D01*
X012006Y013889D02*
X012006Y014229D01*
X011695Y014229D02*
X011695Y014172D01*
X011581Y014059D01*
X011581Y013889D01*
X011581Y014059D02*
X011468Y014172D01*
X011468Y014229D01*
X013192Y013549D02*
X013249Y013606D01*
X013362Y013606D01*
X013419Y013549D01*
X013419Y013322D01*
X013362Y013265D01*
X013249Y013265D01*
X013192Y013322D01*
X013192Y013549D01*
X013305Y013379D02*
X013419Y013265D01*
X013560Y013435D02*
X013787Y013435D01*
X013730Y013265D02*
X013730Y013606D01*
X013560Y013435D01*
X011283Y011658D02*
X011285Y011681D01*
X011291Y011704D01*
X011300Y011725D01*
X011313Y011745D01*
X011329Y011762D01*
X011347Y011776D01*
X011367Y011787D01*
X011389Y011795D01*
X011412Y011799D01*
X011436Y011799D01*
X011459Y011795D01*
X011481Y011787D01*
X011501Y011776D01*
X011519Y011762D01*
X011535Y011745D01*
X011548Y011725D01*
X011557Y011704D01*
X011563Y011681D01*
X011565Y011658D01*
X011563Y011635D01*
X011557Y011612D01*
X011548Y011591D01*
X011535Y011571D01*
X011519Y011554D01*
X011501Y011540D01*
X011481Y011529D01*
X011459Y011521D01*
X011436Y011517D01*
X011412Y011517D01*
X011389Y011521D01*
X011367Y011529D01*
X011347Y011540D01*
X011329Y011554D01*
X011313Y011571D01*
X011300Y011591D01*
X011291Y011612D01*
X011285Y011635D01*
X011283Y011658D01*
X012374Y011499D02*
X012430Y011556D01*
X012487Y011556D01*
X012544Y011499D01*
X012544Y011386D01*
X012487Y011329D01*
X012430Y011329D01*
X012374Y011386D01*
X012374Y011499D01*
X012544Y011499D02*
X012601Y011556D01*
X012657Y011556D01*
X012714Y011499D01*
X012714Y011386D01*
X012657Y011329D01*
X012601Y011329D01*
X012544Y011386D01*
X012657Y011188D02*
X012714Y011131D01*
X012714Y011018D01*
X012657Y010961D01*
X012430Y010961D01*
X012374Y011018D01*
X012374Y011131D01*
X012430Y011188D01*
X012374Y010829D02*
X012374Y010715D01*
X012374Y010772D02*
X012714Y010772D01*
X012714Y010715D02*
X012714Y010829D01*
X014637Y011139D02*
X014637Y011479D01*
X014807Y011479D01*
X014864Y011422D01*
X014864Y011309D01*
X014807Y011252D01*
X014637Y011252D01*
X014751Y011252D02*
X014864Y011139D01*
X015005Y011195D02*
X015062Y011139D01*
X015176Y011139D01*
X015232Y011195D01*
X015232Y011252D01*
X015176Y011309D01*
X015119Y011309D01*
X015176Y011309D02*
X015232Y011366D01*
X015232Y011422D01*
X015176Y011479D01*
X015062Y011479D01*
X015005Y011422D01*
X015374Y011422D02*
X015374Y011195D01*
X015601Y011422D01*
X015601Y011195D01*
X015544Y011139D01*
X015430Y011139D01*
X015374Y011195D01*
X015374Y011422D02*
X015430Y011479D01*
X015544Y011479D01*
X015601Y011422D01*
X015487Y010298D02*
X015487Y009958D01*
X015374Y009958D02*
X015601Y009958D01*
X015374Y010184D02*
X015487Y010298D01*
X015232Y010241D02*
X015176Y010298D01*
X015062Y010298D01*
X015005Y010241D01*
X014864Y010241D02*
X014864Y010128D01*
X014807Y010071D01*
X014637Y010071D01*
X014637Y009958D02*
X014637Y010298D01*
X014807Y010298D01*
X014864Y010241D01*
X014751Y010071D02*
X014864Y009958D01*
X015005Y010014D02*
X015062Y009958D01*
X015176Y009958D01*
X015232Y010014D01*
X015232Y010071D01*
X015176Y010128D01*
X015119Y010128D01*
X015176Y010128D02*
X015232Y010184D01*
X015232Y010241D01*
X013787Y008442D02*
X013843Y008385D01*
X013843Y008329D01*
X013787Y008272D01*
X013673Y008272D01*
X013616Y008329D01*
X013616Y008385D01*
X013673Y008442D01*
X013787Y008442D01*
X013787Y008272D02*
X013843Y008215D01*
X013843Y008158D01*
X013787Y008102D01*
X013673Y008102D01*
X013616Y008158D01*
X013616Y008215D01*
X013673Y008272D01*
X013475Y008329D02*
X013418Y008272D01*
X013475Y008215D01*
X013475Y008158D01*
X013418Y008102D01*
X013305Y008102D01*
X013248Y008158D01*
X013107Y008102D02*
X012993Y008215D01*
X013050Y008215D02*
X012880Y008215D01*
X012880Y008102D02*
X012880Y008442D01*
X013050Y008442D01*
X013107Y008385D01*
X013107Y008272D01*
X013050Y008215D01*
X013248Y008385D02*
X013305Y008442D01*
X013418Y008442D01*
X013475Y008385D01*
X013475Y008329D01*
X013418Y008272D02*
X013362Y008272D01*
X010832Y006730D02*
X010832Y006503D01*
X010832Y006617D02*
X010492Y006617D01*
X010605Y006503D01*
X010492Y006362D02*
X010492Y006135D01*
X010492Y006248D02*
X010832Y006248D01*
X010775Y005993D02*
X010549Y005993D01*
X010492Y005937D01*
X010492Y005823D01*
X010549Y005766D01*
X010775Y005766D01*
X010832Y005823D01*
X010832Y005937D01*
X010775Y005993D01*
X010662Y005625D02*
X010719Y005568D01*
X010719Y005398D01*
X010832Y005398D02*
X010492Y005398D01*
X010492Y005568D01*
X010549Y005625D01*
X010662Y005625D01*
X016043Y005647D02*
X016043Y005477D01*
X016383Y005477D01*
X016270Y005477D02*
X016270Y005647D01*
X016213Y005704D01*
X016100Y005704D01*
X016043Y005647D01*
X016100Y005845D02*
X016327Y005845D01*
X016383Y005902D01*
X016383Y006015D01*
X016327Y006072D01*
X016100Y006072D01*
X016043Y006015D01*
X016043Y005902D01*
X016100Y005845D01*
X016043Y006214D02*
X016043Y006440D01*
X016043Y006327D02*
X016383Y006327D01*
X016327Y006582D02*
X016383Y006639D01*
X016383Y006752D01*
X016327Y006809D01*
X016270Y006809D01*
X016213Y006752D01*
X016213Y006695D01*
X016213Y006752D02*
X016156Y006809D01*
X016100Y006809D01*
X016043Y006752D01*
X016043Y006639D01*
X016100Y006582D01*
X021555Y006678D02*
X021611Y006621D01*
X021555Y006678D02*
X021555Y006791D01*
X021611Y006848D01*
X021668Y006848D01*
X021895Y006621D01*
X021895Y006848D01*
X021895Y006366D02*
X021555Y006366D01*
X021555Y006253D02*
X021555Y006480D01*
X021611Y006111D02*
X021555Y006055D01*
X021555Y005941D01*
X021611Y005885D01*
X021838Y005885D01*
X021895Y005941D01*
X021895Y006055D01*
X021838Y006111D01*
X021611Y006111D01*
X021611Y005743D02*
X021725Y005743D01*
X021782Y005686D01*
X021782Y005516D01*
X021895Y005516D02*
X021555Y005516D01*
X021555Y005686D01*
X021611Y005743D01*
X022267Y009184D02*
X022767Y009184D01*
X023017Y009434D01*
X023017Y010934D01*
X023267Y011184D01*
X023767Y011184D01*
X024017Y010934D01*
X024017Y009434D01*
X024267Y009184D01*
X024767Y009184D01*
X025017Y009434D01*
X025017Y010934D01*
X025267Y011184D01*
X025767Y011184D01*
X026017Y010934D01*
X026267Y011184D01*
X026767Y011184D01*
X027017Y010934D01*
X027017Y009434D01*
X026767Y009184D01*
X026267Y009184D01*
X026017Y009434D01*
X026017Y010934D01*
X025017Y010934D02*
X024767Y011184D01*
X024267Y011184D01*
X024017Y010934D01*
X023017Y010934D02*
X022767Y011184D01*
X022267Y011184D01*
X022017Y010934D01*
X022017Y009434D01*
X022267Y009184D01*
X023017Y009434D02*
X023267Y009184D01*
X023767Y009184D01*
X024017Y009434D01*
X025017Y009434D02*
X025267Y009184D01*
X025767Y009184D01*
X026017Y009434D01*
X027188Y009481D02*
X027188Y009594D01*
X027188Y009538D02*
X027472Y009538D01*
X027529Y009481D01*
X027529Y009424D01*
X027472Y009367D01*
X027529Y009736D02*
X027188Y009736D01*
X027188Y009906D01*
X027245Y009963D01*
X027358Y009963D01*
X027415Y009906D01*
X027415Y009736D01*
X027302Y010104D02*
X027188Y010218D01*
X027529Y010218D01*
X027529Y010331D02*
X027529Y010104D01*
X028993Y012484D02*
X029220Y012484D01*
X029277Y012540D01*
X029277Y012654D01*
X029220Y012710D01*
X029277Y012852D02*
X029050Y013079D01*
X028993Y013079D01*
X028936Y013022D01*
X028936Y012909D01*
X028993Y012852D01*
X028993Y012710D02*
X028936Y012654D01*
X028936Y012540D01*
X028993Y012484D01*
X029277Y012852D02*
X029277Y013079D01*
X029277Y013220D02*
X029277Y013447D01*
X029277Y013334D02*
X028936Y013334D01*
X029050Y013220D01*
X029040Y013535D02*
X028813Y013535D01*
X029040Y013762D01*
X029040Y013818D01*
X028983Y013875D01*
X028870Y013875D01*
X028813Y013818D01*
X028672Y013818D02*
X028615Y013875D01*
X028502Y013875D01*
X028445Y013818D01*
X028304Y013818D02*
X028247Y013875D01*
X028133Y013875D01*
X028077Y013818D01*
X028077Y013591D01*
X028133Y013535D01*
X028247Y013535D01*
X028304Y013591D01*
X028445Y013535D02*
X028672Y013762D01*
X028672Y013818D01*
X028672Y013535D02*
X028445Y013535D01*
X030078Y013294D02*
X030418Y013294D01*
X030418Y013181D02*
X030418Y013408D01*
X030191Y013181D02*
X030078Y013294D01*
X030135Y013039D02*
X030078Y012983D01*
X030078Y012869D01*
X030135Y012813D01*
X030135Y012671D02*
X030248Y012671D01*
X030305Y012614D01*
X030305Y012444D01*
X030418Y012444D02*
X030078Y012444D01*
X030078Y012614D01*
X030135Y012671D01*
X030305Y012558D02*
X030418Y012671D01*
X030418Y012813D02*
X030191Y013039D01*
X030135Y013039D01*
X030418Y013039D02*
X030418Y012813D01*
X030921Y010869D02*
X030921Y010642D01*
X031035Y010529D01*
X031148Y010642D01*
X031148Y010869D01*
X031289Y010812D02*
X031289Y010586D01*
X031346Y010529D01*
X031460Y010529D01*
X031516Y010586D01*
X031516Y010812D01*
X031460Y010869D01*
X031346Y010869D01*
X031289Y010812D01*
X031658Y010869D02*
X031658Y010529D01*
X031885Y010529D01*
X032026Y010529D02*
X032253Y010529D01*
X032140Y010529D02*
X032140Y010869D01*
X032026Y010756D01*
X034448Y010725D02*
X034448Y010611D01*
X034505Y010554D01*
X034732Y010554D01*
X034788Y010611D01*
X034788Y010725D01*
X034732Y010781D01*
X034788Y010923D02*
X034788Y011150D01*
X034788Y011036D02*
X034448Y011036D01*
X034561Y010923D01*
X034505Y010781D02*
X034448Y010725D01*
X034505Y011291D02*
X034448Y011348D01*
X034448Y011461D01*
X034505Y011518D01*
X034561Y011518D01*
X034618Y011461D01*
X034675Y011518D01*
X034732Y011518D01*
X034788Y011461D01*
X034788Y011348D01*
X034732Y011291D01*
X034618Y011405D02*
X034618Y011461D01*
X035689Y012246D02*
X035689Y012846D01*
X035691Y012863D01*
X035695Y012880D01*
X035702Y012896D01*
X035712Y012910D01*
X035725Y012923D01*
X035739Y012933D01*
X035755Y012940D01*
X035772Y012944D01*
X035789Y012946D01*
X036789Y012946D01*
X036806Y012944D01*
X036823Y012940D01*
X036839Y012933D01*
X036853Y012923D01*
X036866Y012910D01*
X036876Y012896D01*
X036883Y012880D01*
X036887Y012863D01*
X036889Y012846D01*
X036889Y012246D01*
X036887Y012229D01*
X036883Y012212D01*
X036876Y012196D01*
X036866Y012182D01*
X036853Y012169D01*
X036839Y012159D01*
X036823Y012152D01*
X036806Y012148D01*
X036789Y012146D01*
X035789Y012146D01*
X035772Y012148D01*
X035755Y012152D01*
X035739Y012159D01*
X035725Y012169D01*
X035712Y012182D01*
X035702Y012196D01*
X035695Y012212D01*
X035691Y012229D01*
X035689Y012246D01*
X035928Y013054D02*
X035871Y013111D01*
X035928Y013054D02*
X036041Y013054D01*
X036098Y013111D01*
X036098Y013168D01*
X036041Y013224D01*
X035928Y013224D01*
X035871Y013281D01*
X035871Y013338D01*
X035928Y013394D01*
X036041Y013394D01*
X036098Y013338D01*
X036353Y013394D02*
X036467Y013394D01*
X036410Y013394D02*
X036410Y013111D01*
X036353Y013054D01*
X036296Y013054D01*
X036240Y013111D01*
X036608Y013111D02*
X036608Y013054D01*
X036608Y013111D02*
X036835Y013338D01*
X036835Y013394D01*
X036608Y013394D01*
X037249Y013338D02*
X037249Y013281D01*
X037306Y013224D01*
X037419Y013224D01*
X037476Y013168D01*
X037476Y013111D01*
X037419Y013054D01*
X037306Y013054D01*
X037249Y013111D01*
X037206Y012946D02*
X038206Y012946D01*
X038223Y012944D01*
X038240Y012940D01*
X038256Y012933D01*
X038270Y012923D01*
X038283Y012910D01*
X038293Y012896D01*
X038300Y012880D01*
X038304Y012863D01*
X038306Y012846D01*
X038306Y012246D01*
X038304Y012229D01*
X038300Y012212D01*
X038293Y012196D01*
X038283Y012182D01*
X038270Y012169D01*
X038256Y012159D01*
X038240Y012152D01*
X038223Y012148D01*
X038206Y012146D01*
X037206Y012146D01*
X037189Y012148D01*
X037172Y012152D01*
X037156Y012159D01*
X037142Y012169D01*
X037129Y012182D01*
X037119Y012196D01*
X037112Y012212D01*
X037108Y012229D01*
X037106Y012246D01*
X037106Y012846D01*
X037108Y012863D01*
X037112Y012880D01*
X037119Y012896D01*
X037129Y012910D01*
X037142Y012923D01*
X037156Y012933D01*
X037172Y012940D01*
X037189Y012944D01*
X037206Y012946D01*
X037618Y013111D02*
X037674Y013054D01*
X037731Y013054D01*
X037788Y013111D01*
X037788Y013394D01*
X037844Y013394D02*
X037731Y013394D01*
X037986Y013394D02*
X037986Y013224D01*
X038099Y013281D01*
X038156Y013281D01*
X038213Y013224D01*
X038213Y013111D01*
X038156Y013054D01*
X038043Y013054D01*
X037986Y013111D01*
X037986Y013394D02*
X038213Y013394D01*
X038802Y012991D02*
X038802Y013991D01*
X038804Y014008D01*
X038808Y014025D01*
X038815Y014041D01*
X038825Y014055D01*
X038838Y014068D01*
X038852Y014078D01*
X038868Y014085D01*
X038885Y014089D01*
X038902Y014091D01*
X039502Y014091D01*
X039519Y014089D01*
X039536Y014085D01*
X039552Y014078D01*
X039566Y014068D01*
X039579Y014055D01*
X039589Y014041D01*
X039596Y014025D01*
X039600Y014008D01*
X039602Y013991D01*
X039602Y012991D01*
X039606Y013074D02*
X039606Y013244D01*
X039662Y013301D01*
X039776Y013301D01*
X039832Y013244D01*
X039832Y013074D01*
X039832Y013188D02*
X039946Y013301D01*
X039946Y013442D02*
X039946Y013669D01*
X039946Y013556D02*
X039606Y013556D01*
X039719Y013442D01*
X039719Y013811D02*
X039606Y013924D01*
X039946Y013924D01*
X039946Y013811D02*
X039946Y014038D01*
X039602Y014408D02*
X039602Y015408D01*
X039600Y015425D01*
X039596Y015442D01*
X039589Y015458D01*
X039579Y015472D01*
X039566Y015485D01*
X039552Y015495D01*
X039536Y015502D01*
X039519Y015506D01*
X039502Y015508D01*
X038902Y015508D01*
X038885Y015506D01*
X038868Y015502D01*
X038852Y015495D01*
X038838Y015485D01*
X038825Y015472D01*
X038815Y015458D01*
X038808Y015442D01*
X038804Y015425D01*
X038802Y015408D01*
X038802Y014408D01*
X038804Y014391D01*
X038808Y014374D01*
X038815Y014358D01*
X038825Y014344D01*
X038838Y014331D01*
X038852Y014321D01*
X038868Y014314D01*
X038885Y014310D01*
X038902Y014308D01*
X039502Y014308D01*
X039519Y014310D01*
X039536Y014314D01*
X039552Y014321D01*
X039566Y014331D01*
X039579Y014344D01*
X039589Y014358D01*
X039596Y014374D01*
X039600Y014391D01*
X039602Y014408D01*
X039606Y014728D02*
X039606Y014898D01*
X039662Y014955D01*
X039776Y014955D01*
X039832Y014898D01*
X039832Y014728D01*
X039832Y014841D02*
X039946Y014955D01*
X039889Y015096D02*
X039946Y015153D01*
X039946Y015266D01*
X039889Y015323D01*
X039662Y015323D01*
X039606Y015266D01*
X039606Y015153D01*
X039662Y015096D01*
X039719Y015096D01*
X039776Y015153D01*
X039776Y015323D01*
X039573Y015613D02*
X039573Y015953D01*
X039403Y015783D01*
X039630Y015783D01*
X039262Y015953D02*
X039148Y015953D01*
X039205Y015953D02*
X039205Y015670D01*
X039148Y015613D01*
X039092Y015613D01*
X039035Y015670D01*
X038894Y015670D02*
X038837Y015613D01*
X038723Y015613D01*
X038667Y015670D01*
X038723Y015783D02*
X038837Y015783D01*
X038894Y015727D01*
X038894Y015670D01*
X038723Y015783D02*
X038667Y015840D01*
X038667Y015897D01*
X038723Y015953D01*
X038837Y015953D01*
X038894Y015897D01*
X039606Y014728D02*
X039946Y014728D01*
X040550Y014622D02*
X040550Y014509D01*
X040607Y014452D01*
X040834Y014452D01*
X040891Y014509D01*
X040891Y014622D01*
X040834Y014679D01*
X040891Y014820D02*
X040891Y015047D01*
X040891Y014934D02*
X040550Y014934D01*
X040664Y014820D01*
X040607Y014679D02*
X040550Y014622D01*
X040607Y015189D02*
X040550Y015245D01*
X040550Y015359D01*
X040607Y015416D01*
X040834Y015189D01*
X040891Y015245D01*
X040891Y015359D01*
X040834Y015416D01*
X040607Y015416D01*
X040607Y015189D02*
X040834Y015189D01*
X040851Y013959D02*
X040851Y013732D01*
X040624Y013959D01*
X040568Y013959D01*
X040511Y013902D01*
X040511Y013789D01*
X040568Y013732D01*
X040511Y013477D02*
X040851Y013477D01*
X040851Y013364D02*
X040851Y013591D01*
X040624Y013364D02*
X040511Y013477D01*
X040568Y013222D02*
X040511Y013166D01*
X040511Y012995D01*
X040851Y012995D01*
X040738Y012995D02*
X040738Y013166D01*
X040681Y013222D01*
X040568Y013222D01*
X040738Y013109D02*
X040851Y013222D01*
X039946Y013074D02*
X039606Y013074D01*
X039602Y012991D02*
X039600Y012974D01*
X039596Y012957D01*
X039589Y012941D01*
X039579Y012927D01*
X039566Y012914D01*
X039552Y012904D01*
X039536Y012897D01*
X039519Y012893D01*
X039502Y012891D01*
X038902Y012891D01*
X038885Y012893D01*
X038868Y012897D01*
X038852Y012904D01*
X038838Y012914D01*
X038825Y012927D01*
X038815Y012941D01*
X038808Y012957D01*
X038804Y012974D01*
X038802Y012991D01*
X038797Y012804D02*
X038684Y012804D01*
X038627Y012747D01*
X038627Y012690D01*
X038684Y012634D01*
X038797Y012634D01*
X038854Y012577D01*
X038854Y012520D01*
X038797Y012464D01*
X038684Y012464D01*
X038627Y012520D01*
X038854Y012747D02*
X038797Y012804D01*
X039109Y012804D02*
X039222Y012804D01*
X039166Y012804D02*
X039166Y012520D01*
X039109Y012464D01*
X039052Y012464D01*
X038996Y012520D01*
X039364Y012520D02*
X039364Y012634D01*
X039534Y012634D01*
X039591Y012577D01*
X039591Y012520D01*
X039534Y012464D01*
X039421Y012464D01*
X039364Y012520D01*
X039364Y012634D02*
X039477Y012747D01*
X039591Y012804D01*
X040245Y012070D02*
X040188Y012013D01*
X040188Y011786D01*
X040245Y011729D01*
X040358Y011729D01*
X040415Y011786D01*
X040557Y011729D02*
X040783Y011729D01*
X040670Y011729D02*
X040670Y012070D01*
X040557Y011956D01*
X040415Y012013D02*
X040358Y012070D01*
X040245Y012070D01*
X040925Y012013D02*
X040982Y012070D01*
X041095Y012070D01*
X041152Y012013D01*
X041152Y011956D01*
X040925Y011729D01*
X041152Y011729D01*
X041157Y010830D02*
X041157Y010603D01*
X041271Y010490D01*
X041384Y010603D01*
X041384Y010830D01*
X041526Y010773D02*
X041526Y010546D01*
X041582Y010490D01*
X041696Y010490D01*
X041753Y010546D01*
X041753Y010773D01*
X041696Y010830D01*
X041582Y010830D01*
X041526Y010773D01*
X041894Y010830D02*
X041894Y010490D01*
X042121Y010490D01*
X042262Y010490D02*
X042489Y010716D01*
X042489Y010773D01*
X042432Y010830D01*
X042319Y010830D01*
X042262Y010773D01*
X042262Y010490D02*
X042489Y010490D01*
X043576Y012115D02*
X043576Y012285D01*
X043633Y012342D01*
X043747Y012342D01*
X043803Y012285D01*
X043803Y012115D01*
X043803Y012228D02*
X043917Y012342D01*
X043917Y012483D02*
X043917Y012710D01*
X043917Y012597D02*
X043576Y012597D01*
X043690Y012483D01*
X043747Y012852D02*
X043747Y013022D01*
X043803Y013078D01*
X043860Y013078D01*
X043917Y013022D01*
X043917Y012908D01*
X043860Y012852D01*
X043747Y012852D01*
X043633Y012965D01*
X043576Y013078D01*
X044561Y013078D02*
X044617Y012965D01*
X044731Y012852D01*
X044731Y013022D01*
X044788Y013078D01*
X044844Y013078D01*
X044901Y013022D01*
X044901Y012908D01*
X044844Y012852D01*
X044731Y012852D01*
X044901Y012710D02*
X044901Y012483D01*
X044901Y012597D02*
X044561Y012597D01*
X044674Y012483D01*
X044617Y012342D02*
X044561Y012285D01*
X044561Y012172D01*
X044617Y012115D01*
X044844Y012115D01*
X044901Y012172D01*
X044901Y012285D01*
X044844Y012342D01*
X045624Y012324D02*
X045624Y012154D01*
X045964Y012154D01*
X045851Y012154D02*
X045851Y012324D01*
X045794Y012381D01*
X045680Y012381D01*
X045624Y012324D01*
X045680Y012523D02*
X045624Y012579D01*
X045624Y012693D01*
X045680Y012749D01*
X045737Y012749D01*
X045964Y012523D01*
X045964Y012749D01*
X045907Y012891D02*
X045964Y012948D01*
X045964Y013061D01*
X045907Y013118D01*
X045794Y013118D01*
X045737Y013061D01*
X045737Y013004D01*
X045794Y012891D01*
X045624Y012891D01*
X045624Y013118D01*
X045964Y012381D02*
X045851Y012268D01*
X043917Y012115D02*
X043576Y012115D01*
X045736Y014542D02*
X045679Y014599D01*
X045679Y014712D01*
X045736Y014769D01*
X045792Y014910D02*
X045679Y015024D01*
X046019Y015024D01*
X046019Y015137D02*
X046019Y014910D01*
X045962Y014769D02*
X046019Y014712D01*
X046019Y014599D01*
X045962Y014542D01*
X045736Y014542D01*
X044901Y015225D02*
X044561Y015225D01*
X044561Y015395D01*
X044617Y015452D01*
X044731Y015452D01*
X044788Y015395D01*
X044788Y015225D01*
X044788Y015339D02*
X044901Y015452D01*
X044901Y015593D02*
X044674Y015820D01*
X044617Y015820D01*
X044561Y015764D01*
X044561Y015650D01*
X044617Y015593D01*
X044901Y015593D02*
X044901Y015820D01*
X044901Y015962D02*
X044674Y016189D01*
X044617Y016189D01*
X044561Y016132D01*
X044561Y016018D01*
X044617Y015962D01*
X044901Y015962D02*
X044901Y016189D01*
X043917Y016132D02*
X043576Y016132D01*
X043747Y015962D01*
X043747Y016189D01*
X043917Y015820D02*
X043917Y015593D01*
X043917Y015707D02*
X043576Y015707D01*
X043690Y015593D01*
X043633Y015452D02*
X043576Y015395D01*
X043576Y015282D01*
X043633Y015225D01*
X043860Y015225D01*
X043917Y015282D01*
X043917Y015395D01*
X043860Y015452D01*
X043540Y015036D02*
X043313Y015036D01*
X043313Y014866D01*
X043426Y014923D01*
X043483Y014923D01*
X043540Y014866D01*
X043540Y014753D01*
X043483Y014696D01*
X043369Y014696D01*
X043313Y014753D01*
X043171Y014753D02*
X043114Y014696D01*
X043001Y014696D01*
X042944Y014753D01*
X042944Y014979D01*
X043001Y015036D01*
X043114Y015036D01*
X043171Y014979D01*
X042972Y015265D02*
X042632Y015265D01*
X042632Y015435D01*
X042688Y015491D01*
X042802Y015491D01*
X042858Y015435D01*
X042858Y015265D01*
X042858Y015378D02*
X042972Y015491D01*
X042972Y015633D02*
X042972Y015860D01*
X042972Y015746D02*
X042632Y015746D01*
X042745Y015633D01*
X042802Y016001D02*
X042745Y016115D01*
X042745Y016171D01*
X042802Y016228D01*
X042915Y016228D01*
X042972Y016171D01*
X042972Y016058D01*
X042915Y016001D01*
X042802Y016001D02*
X042632Y016001D01*
X042632Y016228D01*
X042699Y015036D02*
X042812Y015036D01*
X042756Y015036D02*
X042756Y014696D01*
X042812Y014696D02*
X042699Y014696D01*
X045679Y015335D02*
X045679Y015449D01*
X045736Y015506D01*
X045792Y015506D01*
X045849Y015449D01*
X045849Y015335D01*
X045792Y015279D01*
X045736Y015279D01*
X045679Y015335D01*
X045849Y015335D02*
X045906Y015279D01*
X045962Y015279D01*
X046019Y015335D01*
X046019Y015449D01*
X045962Y015506D01*
X045906Y015506D01*
X045849Y015449D01*
X042801Y017578D02*
X042801Y017692D01*
X042801Y017635D02*
X042460Y017635D01*
X042460Y017578D02*
X042460Y017692D01*
X042517Y017824D02*
X042744Y017824D01*
X042801Y017880D01*
X042801Y017994D01*
X042744Y018051D01*
X042801Y018192D02*
X042801Y018419D01*
X042801Y018305D02*
X042460Y018305D01*
X042574Y018192D01*
X042517Y018051D02*
X042460Y017994D01*
X042460Y017880D01*
X042517Y017824D01*
X040373Y017934D02*
X040317Y017877D01*
X040090Y017877D01*
X040033Y017934D01*
X040033Y018047D01*
X040090Y018104D01*
X040147Y018245D02*
X040033Y018359D01*
X040373Y018359D01*
X040373Y018472D02*
X040373Y018245D01*
X040317Y018104D02*
X040373Y018047D01*
X040373Y017934D01*
X039277Y017917D02*
X038936Y017917D01*
X038936Y018087D01*
X038993Y018144D01*
X039106Y018144D01*
X039163Y018087D01*
X039163Y017917D01*
X039163Y018030D02*
X039277Y018144D01*
X039277Y018285D02*
X039277Y018512D01*
X039277Y018398D02*
X038936Y018398D01*
X039050Y018285D01*
X037318Y019652D02*
X037318Y019766D01*
X037262Y019822D01*
X037262Y019964D02*
X037318Y020020D01*
X037318Y020134D01*
X037262Y020191D01*
X037035Y020191D01*
X036978Y020134D01*
X036978Y020020D01*
X037035Y019964D01*
X037091Y019964D01*
X037148Y020020D01*
X037148Y020191D01*
X037035Y019822D02*
X036978Y019766D01*
X036978Y019652D01*
X037035Y019595D01*
X037262Y019595D01*
X037318Y019652D01*
X036309Y018621D02*
X036139Y018451D01*
X036366Y018451D01*
X036309Y018281D02*
X036309Y018621D01*
X035997Y018565D02*
X035941Y018621D01*
X035827Y018621D01*
X035771Y018565D01*
X035771Y018338D01*
X035827Y018281D01*
X035941Y018281D01*
X035997Y018338D01*
X035639Y018281D02*
X035525Y018281D01*
X035582Y018281D02*
X035582Y018621D01*
X035525Y018621D02*
X035639Y018621D01*
X035125Y020318D02*
X035182Y020375D01*
X035182Y020488D01*
X035125Y020545D01*
X035125Y020687D02*
X035069Y020687D01*
X035012Y020743D01*
X035012Y020857D01*
X035069Y020913D01*
X035125Y020913D01*
X035182Y020857D01*
X035182Y020743D01*
X035125Y020687D01*
X035012Y020743D02*
X034955Y020687D01*
X034899Y020687D01*
X034842Y020743D01*
X034842Y020857D01*
X034899Y020913D01*
X034955Y020913D01*
X035012Y020857D01*
X034899Y020545D02*
X034842Y020488D01*
X034842Y020375D01*
X034899Y020318D01*
X035125Y020318D01*
X033287Y021066D02*
X032946Y021066D01*
X032946Y021236D01*
X033003Y021293D01*
X033117Y021293D01*
X033173Y021236D01*
X033173Y021066D01*
X033173Y021179D02*
X033287Y021293D01*
X033230Y021434D02*
X033287Y021491D01*
X033287Y021604D01*
X033230Y021661D01*
X033173Y021661D01*
X033117Y021604D01*
X033117Y021434D01*
X033230Y021434D01*
X033117Y021434D02*
X033003Y021548D01*
X032946Y021661D01*
X032342Y021434D02*
X032285Y021434D01*
X032058Y021661D01*
X032002Y021661D01*
X032002Y021434D01*
X032058Y021293D02*
X032002Y021236D01*
X032002Y021066D01*
X032342Y021066D01*
X032228Y021066D02*
X032228Y021236D01*
X032172Y021293D01*
X032058Y021293D01*
X032228Y021179D02*
X032342Y021293D01*
X031318Y021293D02*
X031205Y021179D01*
X031205Y021236D02*
X031205Y021066D01*
X031318Y021066D02*
X030978Y021066D01*
X030978Y021236D01*
X031035Y021293D01*
X031148Y021293D01*
X031205Y021236D01*
X031205Y021434D02*
X031148Y021491D01*
X031148Y021604D01*
X031205Y021661D01*
X031262Y021661D01*
X031318Y021604D01*
X031318Y021491D01*
X031262Y021434D01*
X031205Y021434D01*
X031148Y021491D02*
X031091Y021434D01*
X031035Y021434D01*
X030978Y021491D01*
X030978Y021604D01*
X031035Y021661D01*
X031091Y021661D01*
X031148Y021604D01*
X031145Y022086D02*
X030645Y022086D01*
X030395Y022336D01*
X030395Y022836D01*
X030645Y023086D01*
X031145Y023086D01*
X031395Y022836D01*
X031395Y022336D01*
X031145Y022086D01*
X031594Y022706D02*
X031537Y022762D01*
X031594Y022706D02*
X031650Y022706D01*
X031707Y022762D01*
X031707Y023046D01*
X031650Y023046D02*
X031764Y023046D01*
X031905Y023046D02*
X032132Y023046D01*
X032019Y023046D02*
X032019Y022706D01*
X032273Y022706D02*
X032273Y022932D01*
X032387Y023046D01*
X032500Y022932D01*
X032500Y022706D01*
X032642Y022762D02*
X032642Y022989D01*
X032698Y023046D01*
X032812Y023046D01*
X032869Y022989D01*
X032869Y022876D02*
X032755Y022876D01*
X032869Y022876D02*
X032869Y022762D01*
X032812Y022706D01*
X032698Y022706D01*
X032642Y022762D01*
X032500Y022876D02*
X032273Y022876D01*
X033318Y024095D02*
X033261Y024152D01*
X033261Y024265D01*
X033318Y024322D01*
X033544Y024322D01*
X033601Y024265D01*
X033601Y024152D01*
X033544Y024095D01*
X033318Y024095D01*
X033488Y024208D02*
X033601Y024322D01*
X033544Y024463D02*
X033601Y024520D01*
X033601Y024633D01*
X033544Y024690D01*
X033488Y024690D01*
X033431Y024633D01*
X033431Y024577D01*
X033431Y024633D02*
X033374Y024690D01*
X033318Y024690D01*
X033261Y024633D01*
X033261Y024520D01*
X033318Y024463D01*
X034161Y025733D02*
X034161Y028353D01*
X034301Y028493D01*
X036921Y028493D01*
X036921Y025733D01*
X034161Y025733D01*
X033056Y026225D02*
X032886Y026225D01*
X032773Y026338D01*
X032716Y026338D01*
X032773Y026479D02*
X032716Y026536D01*
X032716Y026650D01*
X032773Y026706D01*
X032830Y026706D01*
X032886Y026650D01*
X032943Y026706D01*
X033000Y026706D01*
X033056Y026650D01*
X033056Y026536D01*
X033000Y026479D01*
X032886Y026593D02*
X032886Y026650D01*
X032886Y026225D02*
X032773Y026111D01*
X032716Y026111D01*
X030300Y026137D02*
X030243Y026080D01*
X030300Y026137D02*
X030300Y026250D01*
X030243Y026307D01*
X030187Y026307D01*
X030130Y026250D01*
X030130Y026194D01*
X030130Y026250D02*
X030073Y026307D01*
X030017Y026307D01*
X029960Y026250D01*
X029960Y026137D01*
X030017Y026080D01*
X030017Y025939D02*
X030130Y025939D01*
X030187Y025882D01*
X030187Y025712D01*
X030300Y025712D02*
X029960Y025712D01*
X029960Y025882D01*
X030017Y025939D01*
X030187Y025825D02*
X030300Y025939D01*
X030300Y026449D02*
X030073Y026675D01*
X030017Y026675D01*
X029960Y026619D01*
X029960Y026505D01*
X030017Y026449D01*
X029743Y026459D02*
X029743Y026232D01*
X029516Y026459D01*
X029460Y026459D01*
X029403Y026402D01*
X029403Y026289D01*
X029460Y026232D01*
X029460Y026090D02*
X029403Y026090D01*
X029460Y026090D02*
X029573Y025977D01*
X029743Y025977D01*
X029573Y025977D02*
X029460Y025864D01*
X029403Y025864D01*
X029999Y025223D02*
X030340Y025223D01*
X030340Y025110D02*
X030340Y025337D01*
X030113Y025110D02*
X029999Y025223D01*
X030056Y024969D02*
X030113Y024969D01*
X030169Y024912D01*
X030226Y024969D01*
X030283Y024969D01*
X030340Y024912D01*
X030340Y024798D01*
X030283Y024742D01*
X030283Y024600D02*
X030340Y024544D01*
X030340Y024430D01*
X030283Y024373D01*
X030056Y024373D01*
X029999Y024430D01*
X029999Y024544D01*
X030056Y024600D01*
X030056Y024742D02*
X029999Y024798D01*
X029999Y024912D01*
X030056Y024969D01*
X030169Y024912D02*
X030169Y024855D01*
X030187Y023558D02*
X030414Y023558D01*
X030300Y023558D02*
X030300Y023217D01*
X030045Y023274D02*
X029989Y023217D01*
X029875Y023217D01*
X029819Y023274D01*
X029875Y023388D02*
X029989Y023388D01*
X030045Y023331D01*
X030045Y023274D01*
X030043Y023086D02*
X029543Y023086D01*
X029293Y022836D01*
X029293Y022336D01*
X029543Y022086D01*
X030043Y022086D01*
X030293Y022336D01*
X030293Y022836D01*
X030043Y023086D01*
X029875Y023388D02*
X029819Y023444D01*
X029819Y023501D01*
X029875Y023558D01*
X029989Y023558D01*
X030045Y023501D01*
X029677Y023558D02*
X029450Y023558D01*
X029564Y023558D02*
X029564Y023217D01*
X029543Y021944D02*
X029293Y021694D01*
X029293Y021194D01*
X029543Y020944D01*
X030043Y020944D01*
X030293Y021194D01*
X030293Y021694D01*
X030043Y021944D01*
X029543Y021944D01*
X029556Y020802D02*
X029612Y020745D01*
X029612Y020632D01*
X029556Y020575D01*
X029385Y020575D01*
X029385Y020461D02*
X029385Y020802D01*
X029556Y020802D01*
X029754Y020688D02*
X029754Y020461D01*
X029612Y020461D02*
X029499Y020575D01*
X029754Y020632D02*
X029981Y020632D01*
X029981Y020688D02*
X029981Y020461D01*
X030122Y020518D02*
X030179Y020461D01*
X030292Y020461D01*
X030349Y020518D01*
X030349Y020575D01*
X030292Y020632D01*
X030179Y020632D01*
X030122Y020688D01*
X030122Y020745D01*
X030179Y020802D01*
X030292Y020802D01*
X030349Y020745D01*
X030490Y020802D02*
X030490Y020461D01*
X030717Y020461D01*
X030604Y020632D02*
X030490Y020632D01*
X030490Y020802D02*
X030717Y020802D01*
X029981Y020688D02*
X029867Y020802D01*
X029754Y020688D01*
X029244Y020802D02*
X029017Y020802D01*
X029017Y020461D01*
X029244Y020461D01*
X029131Y020632D02*
X029017Y020632D01*
X027133Y024413D02*
X027190Y024469D01*
X027190Y024583D01*
X027133Y024640D01*
X027190Y024781D02*
X026963Y025008D01*
X026906Y025008D01*
X026850Y024951D01*
X026850Y024838D01*
X026906Y024781D01*
X026906Y024640D02*
X026850Y024583D01*
X026850Y024469D01*
X026906Y024413D01*
X027133Y024413D01*
X027190Y024781D02*
X027190Y025008D01*
X027190Y025149D02*
X027133Y025149D01*
X026906Y025376D01*
X026850Y025376D01*
X026850Y025149D01*
X026499Y025550D02*
X025999Y025550D01*
X025749Y025800D01*
X025749Y026300D01*
X025999Y026550D01*
X026499Y026550D01*
X026749Y026300D01*
X026749Y025800D01*
X026499Y025550D01*
X026850Y025791D02*
X026850Y025961D01*
X026906Y026018D01*
X027020Y026018D01*
X027076Y025961D01*
X027076Y025791D01*
X027076Y025904D02*
X027190Y026018D01*
X027190Y026159D02*
X026963Y026386D01*
X026906Y026386D01*
X026850Y026329D01*
X026850Y026216D01*
X026906Y026159D01*
X027190Y026159D02*
X027190Y026386D01*
X027133Y026527D02*
X026906Y026754D01*
X027133Y026754D01*
X027190Y026697D01*
X027190Y026584D01*
X027133Y026527D01*
X026906Y026527D01*
X026850Y026584D01*
X026850Y026697D01*
X026906Y026754D01*
X026749Y026981D02*
X026499Y026731D01*
X025999Y026731D01*
X025749Y026981D01*
X025749Y027481D01*
X025999Y027731D01*
X026499Y027731D01*
X026749Y027481D01*
X026749Y026981D01*
X026946Y027405D02*
X027173Y027405D01*
X027229Y027462D01*
X027229Y027575D01*
X027173Y027632D01*
X027229Y027773D02*
X027002Y028000D01*
X026946Y028000D01*
X026889Y027943D01*
X026889Y027830D01*
X026946Y027773D01*
X026946Y027632D02*
X026889Y027575D01*
X026889Y027462D01*
X026946Y027405D01*
X027229Y027773D02*
X027229Y028000D01*
X027173Y028141D02*
X027116Y028141D01*
X027059Y028198D01*
X027059Y028312D01*
X027116Y028368D01*
X027173Y028368D01*
X027229Y028312D01*
X027229Y028198D01*
X027173Y028141D01*
X027059Y028198D02*
X027002Y028141D01*
X026946Y028141D01*
X026889Y028198D01*
X026889Y028312D01*
X026946Y028368D01*
X027002Y028368D01*
X027059Y028312D01*
X026749Y028162D02*
X026499Y027912D01*
X025999Y027912D01*
X025749Y028162D01*
X025749Y028662D01*
X025999Y028912D01*
X026499Y028912D01*
X026749Y028662D01*
X026749Y028162D01*
X027725Y028670D02*
X027781Y028613D01*
X027895Y028613D01*
X027952Y028670D01*
X027952Y028896D01*
X027895Y028953D01*
X027781Y028953D01*
X027725Y028896D01*
X027725Y028670D01*
X027838Y028726D02*
X027952Y028613D01*
X028093Y028613D02*
X028320Y028840D01*
X028320Y028896D01*
X028263Y028953D01*
X028150Y028953D01*
X028093Y028896D01*
X028093Y028613D02*
X028320Y028613D01*
X028621Y029814D02*
X028371Y030064D01*
X028371Y031564D01*
X028621Y031814D01*
X029121Y031814D01*
X029371Y031564D01*
X029371Y030064D01*
X029121Y029814D01*
X028621Y029814D01*
X029371Y030064D02*
X029621Y029814D01*
X030121Y029814D01*
X030371Y030064D01*
X030371Y031564D01*
X030121Y031814D01*
X029621Y031814D01*
X029371Y031564D01*
X030371Y031564D02*
X030621Y031814D01*
X031121Y031814D01*
X031371Y031564D01*
X031371Y030064D01*
X031121Y029814D01*
X030621Y029814D01*
X030371Y030064D01*
X031545Y030022D02*
X031602Y029965D01*
X031829Y029965D01*
X031885Y030022D01*
X031885Y030135D01*
X031829Y030192D01*
X031829Y030333D02*
X031885Y030390D01*
X031885Y030504D01*
X031829Y030560D01*
X031772Y030560D01*
X031715Y030504D01*
X031715Y030390D01*
X031658Y030333D01*
X031602Y030333D01*
X031545Y030390D01*
X031545Y030504D01*
X031602Y030560D01*
X031545Y030702D02*
X031885Y030702D01*
X031772Y030702D02*
X031772Y030872D01*
X031715Y030929D01*
X031602Y030929D01*
X031545Y030872D01*
X031545Y030702D01*
X031602Y031070D02*
X031545Y031127D01*
X031545Y031240D01*
X031602Y031297D01*
X031658Y031297D01*
X031885Y031070D01*
X031885Y031297D01*
X031602Y030192D02*
X031545Y030135D01*
X031545Y030022D01*
X031545Y029833D02*
X031545Y029720D01*
X031545Y029776D02*
X031885Y029776D01*
X031885Y029720D02*
X031885Y029833D01*
X033458Y030776D02*
X033458Y030946D01*
X033515Y031003D01*
X033628Y031003D01*
X033685Y030946D01*
X033685Y030776D01*
X033799Y030776D02*
X033458Y030776D01*
X033685Y030890D02*
X033799Y031003D01*
X033742Y031145D02*
X033799Y031201D01*
X033799Y031315D01*
X033742Y031371D01*
X033685Y031371D01*
X033628Y031315D01*
X033628Y031258D01*
X033628Y031315D02*
X033572Y031371D01*
X033515Y031371D01*
X033458Y031315D01*
X033458Y031201D01*
X033515Y031145D01*
X033458Y031513D02*
X033628Y031513D01*
X033572Y031626D01*
X033572Y031683D01*
X033628Y031740D01*
X033742Y031740D01*
X033799Y031683D01*
X033799Y031570D01*
X033742Y031513D01*
X033458Y031513D02*
X033458Y031740D01*
X035033Y031762D02*
X035090Y031819D01*
X035147Y031819D01*
X035203Y031762D01*
X035260Y031819D01*
X035317Y031819D01*
X035373Y031762D01*
X035373Y031648D01*
X035317Y031592D01*
X035317Y031450D02*
X035373Y031394D01*
X035373Y031280D01*
X035317Y031223D01*
X035373Y031082D02*
X035260Y030969D01*
X035260Y031025D02*
X035260Y030855D01*
X035373Y030855D02*
X035033Y030855D01*
X035033Y031025D01*
X035090Y031082D01*
X035203Y031082D01*
X035260Y031025D01*
X035090Y031223D02*
X035033Y031280D01*
X035033Y031394D01*
X035090Y031450D01*
X035147Y031450D01*
X035203Y031394D01*
X035260Y031450D01*
X035317Y031450D01*
X035203Y031394D02*
X035203Y031337D01*
X035090Y031592D02*
X035033Y031648D01*
X035033Y031762D01*
X035203Y031762D02*
X035203Y031705D01*
X035708Y031663D02*
X035765Y031606D01*
X035821Y031606D01*
X035878Y031663D01*
X035878Y031833D01*
X035991Y031833D02*
X035765Y031833D01*
X035708Y031776D01*
X035708Y031663D01*
X035765Y031465D02*
X035708Y031408D01*
X035708Y031294D01*
X035765Y031238D01*
X035765Y031096D02*
X035878Y031096D01*
X035935Y031040D01*
X035935Y030869D01*
X036048Y030869D02*
X035708Y030869D01*
X035708Y031040D01*
X035765Y031096D01*
X035935Y030983D02*
X036048Y031096D01*
X036048Y031238D02*
X035821Y031465D01*
X035765Y031465D01*
X035991Y031606D02*
X036048Y031663D01*
X036048Y031776D01*
X035991Y031833D01*
X036048Y031465D02*
X036048Y031238D01*
X035265Y029483D02*
X035151Y029483D01*
X035095Y029427D01*
X035095Y029370D01*
X035151Y029313D01*
X035321Y029313D01*
X035321Y029200D02*
X035321Y029427D01*
X035265Y029483D01*
X035321Y029200D02*
X035265Y029143D01*
X035151Y029143D01*
X035095Y029200D01*
X034953Y029200D02*
X034896Y029143D01*
X034783Y029143D01*
X034726Y029200D01*
X034726Y029427D01*
X034783Y029483D01*
X034896Y029483D01*
X034953Y029427D01*
X034594Y029483D02*
X034481Y029483D01*
X034537Y029483D02*
X034537Y029143D01*
X034481Y029143D02*
X034594Y029143D01*
X034320Y028193D02*
X034322Y028216D01*
X034328Y028239D01*
X034337Y028260D01*
X034350Y028280D01*
X034366Y028297D01*
X034384Y028311D01*
X034404Y028322D01*
X034426Y028330D01*
X034449Y028334D01*
X034473Y028334D01*
X034496Y028330D01*
X034518Y028322D01*
X034538Y028311D01*
X034556Y028297D01*
X034572Y028280D01*
X034585Y028260D01*
X034594Y028239D01*
X034600Y028216D01*
X034602Y028193D01*
X034600Y028170D01*
X034594Y028147D01*
X034585Y028126D01*
X034572Y028106D01*
X034556Y028089D01*
X034538Y028075D01*
X034518Y028064D01*
X034496Y028056D01*
X034473Y028052D01*
X034449Y028052D01*
X034426Y028056D01*
X034404Y028064D01*
X034384Y028075D01*
X034366Y028089D01*
X034350Y028106D01*
X034337Y028126D01*
X034328Y028147D01*
X034322Y028170D01*
X034320Y028193D01*
X030300Y028154D02*
X030300Y028041D01*
X030243Y027984D01*
X030017Y028211D01*
X030243Y028211D01*
X030300Y028154D01*
X030243Y027984D02*
X030017Y027984D01*
X029960Y028041D01*
X029960Y028154D01*
X030017Y028211D01*
X030017Y027843D02*
X030073Y027843D01*
X030130Y027786D01*
X030187Y027843D01*
X030243Y027843D01*
X030300Y027786D01*
X030300Y027672D01*
X030243Y027616D01*
X030243Y027474D02*
X030300Y027418D01*
X030300Y027304D01*
X030243Y027247D01*
X030017Y027247D01*
X029960Y027304D01*
X029960Y027418D01*
X030017Y027474D01*
X030017Y027616D02*
X029960Y027672D01*
X029960Y027786D01*
X030017Y027843D01*
X030130Y027786D02*
X030130Y027729D01*
X030300Y026675D02*
X030300Y026449D01*
X027190Y025791D02*
X026850Y025791D01*
X025657Y025742D02*
X025317Y025742D01*
X025317Y025629D02*
X025317Y025856D01*
X025317Y025997D02*
X025317Y026167D01*
X025373Y026224D01*
X025600Y026224D01*
X025657Y026167D01*
X025657Y025997D01*
X025317Y025997D01*
X025317Y026365D02*
X025317Y026479D01*
X025317Y026422D02*
X025657Y026422D01*
X025657Y026365D02*
X025657Y026479D01*
X025657Y026805D02*
X025317Y026805D01*
X025317Y026692D02*
X025317Y026919D01*
X025317Y027060D02*
X025317Y027230D01*
X025373Y027287D01*
X025600Y027287D01*
X025657Y027230D01*
X025657Y027060D01*
X025317Y027060D01*
X025373Y027428D02*
X025600Y027428D01*
X025657Y027485D01*
X025657Y027599D01*
X025600Y027655D01*
X025373Y027655D01*
X025317Y027599D01*
X025317Y027485D01*
X025373Y027428D01*
X025318Y027912D02*
X024818Y027912D01*
X024568Y028162D01*
X024568Y028662D01*
X024818Y028912D01*
X025318Y028912D01*
X025568Y028662D01*
X025568Y028162D01*
X025318Y027912D01*
X024276Y028080D02*
X024276Y028136D01*
X024220Y028193D01*
X024050Y028193D01*
X024050Y028080D01*
X024106Y028023D01*
X024220Y028023D01*
X024276Y028080D01*
X024050Y028193D02*
X024163Y028307D01*
X024276Y028363D01*
X023908Y028307D02*
X023851Y028363D01*
X023738Y028363D01*
X023681Y028307D01*
X023540Y028307D02*
X023483Y028363D01*
X023370Y028363D01*
X023313Y028307D01*
X023313Y028080D01*
X023370Y028023D01*
X023483Y028023D01*
X023540Y028080D01*
X023681Y028023D02*
X023908Y028250D01*
X023908Y028307D01*
X023908Y028023D02*
X023681Y028023D01*
X022372Y028085D02*
X022372Y028312D01*
X022316Y028369D01*
X022202Y028369D01*
X022145Y028312D01*
X022145Y028255D01*
X022202Y028199D01*
X022372Y028199D01*
X022372Y028085D02*
X022316Y028029D01*
X022202Y028029D01*
X022145Y028085D01*
X022004Y028029D02*
X021777Y028029D01*
X021891Y028029D02*
X021891Y028369D01*
X021777Y028255D01*
X021636Y028199D02*
X021579Y028142D01*
X021409Y028142D01*
X021522Y028142D02*
X021636Y028029D01*
X021636Y028199D02*
X021636Y028312D01*
X021579Y028369D01*
X021409Y028369D01*
X021409Y028029D01*
X021034Y028085D02*
X020977Y028029D01*
X020864Y028029D01*
X020807Y028085D01*
X020807Y028199D02*
X020920Y028255D01*
X020977Y028255D01*
X021034Y028199D01*
X021034Y028085D01*
X020807Y028199D02*
X020807Y028369D01*
X021034Y028369D01*
X020665Y028312D02*
X020609Y028369D01*
X020495Y028369D01*
X020439Y028312D01*
X020297Y028312D02*
X020240Y028369D01*
X020127Y028369D01*
X020070Y028312D01*
X020070Y028085D01*
X020127Y028029D01*
X020240Y028029D01*
X020297Y028085D01*
X020439Y028029D02*
X020665Y028255D01*
X020665Y028312D01*
X020665Y028029D02*
X020439Y028029D01*
X021699Y029007D02*
X021699Y029348D01*
X021869Y029348D01*
X021926Y029291D01*
X021926Y029177D01*
X021869Y029121D01*
X021699Y029121D01*
X021812Y029121D02*
X021926Y029007D01*
X022067Y029064D02*
X022124Y029007D01*
X022237Y029007D01*
X022294Y029064D01*
X022294Y029177D01*
X022237Y029234D01*
X022180Y029234D01*
X022067Y029177D01*
X022067Y029348D01*
X022294Y029348D01*
X020743Y030452D02*
X020686Y030395D01*
X020743Y030452D02*
X020743Y030565D01*
X020686Y030622D01*
X020630Y030622D01*
X020573Y030565D01*
X020573Y030452D01*
X020516Y030395D01*
X020460Y030395D01*
X020403Y030452D01*
X020403Y030565D01*
X020460Y030622D01*
X020516Y030763D02*
X020403Y030877D01*
X020743Y030877D01*
X020743Y030990D02*
X020743Y030763D01*
X018830Y030599D02*
X018830Y030372D01*
X018603Y030599D01*
X018546Y030599D01*
X018489Y030542D01*
X018489Y030429D01*
X018546Y030372D01*
X018489Y030230D02*
X018489Y030117D01*
X018489Y030174D02*
X018773Y030174D01*
X018830Y030117D01*
X018830Y030060D01*
X018773Y030004D01*
X018773Y029862D02*
X018830Y029805D01*
X018830Y029692D01*
X018773Y029635D01*
X018660Y029692D02*
X018660Y029805D01*
X018716Y029862D01*
X018773Y029862D01*
X018660Y029692D02*
X018603Y029635D01*
X018546Y029635D01*
X018489Y029692D01*
X018489Y029805D01*
X018546Y029862D01*
X018385Y029805D02*
X018385Y030405D01*
X018383Y030422D01*
X018379Y030439D01*
X018372Y030455D01*
X018362Y030469D01*
X018349Y030482D01*
X018335Y030492D01*
X018319Y030499D01*
X018302Y030503D01*
X018285Y030505D01*
X017285Y030505D01*
X017268Y030503D01*
X017251Y030499D01*
X017235Y030492D01*
X017221Y030482D01*
X017208Y030469D01*
X017198Y030455D01*
X017191Y030439D01*
X017187Y030422D01*
X017185Y030405D01*
X017185Y029805D01*
X017187Y029788D01*
X017191Y029771D01*
X017198Y029755D01*
X017208Y029741D01*
X017221Y029728D01*
X017235Y029718D01*
X017251Y029711D01*
X017268Y029707D01*
X017285Y029705D01*
X018285Y029705D01*
X018302Y029707D01*
X018319Y029711D01*
X018335Y029718D01*
X018349Y029728D01*
X018362Y029741D01*
X018372Y029755D01*
X018379Y029771D01*
X018383Y029788D01*
X018385Y029805D01*
X017380Y029123D02*
X017380Y029067D01*
X017323Y029010D01*
X017380Y028953D01*
X017380Y028897D01*
X017323Y028840D01*
X017210Y028840D01*
X017153Y028897D01*
X017012Y028897D02*
X016955Y028840D01*
X016841Y028840D01*
X016785Y028897D01*
X016785Y029123D01*
X016841Y029180D01*
X016955Y029180D01*
X017012Y029123D01*
X017153Y029123D02*
X017210Y029180D01*
X017323Y029180D01*
X017380Y029123D01*
X017323Y029010D02*
X017267Y029010D01*
X016653Y028840D02*
X016539Y028840D01*
X016596Y028840D02*
X016596Y029180D01*
X016539Y029180D02*
X016653Y029180D01*
X015114Y030186D02*
X014888Y029959D01*
X014888Y029903D01*
X014746Y029959D02*
X014689Y029903D01*
X014576Y029903D01*
X014519Y029959D01*
X014519Y030186D01*
X014576Y030243D01*
X014689Y030243D01*
X014746Y030186D01*
X014888Y030243D02*
X015114Y030243D01*
X015114Y030186D01*
X015032Y030981D02*
X015089Y031038D01*
X015089Y031095D01*
X015032Y031151D01*
X014862Y031151D01*
X014862Y031038D01*
X014919Y030981D01*
X015032Y030981D01*
X014862Y031151D02*
X014975Y031265D01*
X015089Y031322D01*
X014720Y031265D02*
X014664Y031322D01*
X014550Y031322D01*
X014494Y031265D01*
X014494Y031038D01*
X014550Y030981D01*
X014664Y030981D01*
X014720Y031038D01*
X012671Y031031D02*
X012330Y030804D01*
X012387Y030663D02*
X012501Y030663D01*
X012557Y030606D01*
X012557Y030436D01*
X012557Y030549D02*
X012671Y030663D01*
X012671Y030804D02*
X012330Y031031D01*
X012444Y031172D02*
X012330Y031286D01*
X012671Y031286D01*
X012671Y031399D02*
X012671Y031172D01*
X012387Y030663D02*
X012330Y030606D01*
X012330Y030436D01*
X012671Y030436D01*
X011490Y030475D02*
X011149Y030475D01*
X011149Y030645D01*
X011206Y030702D01*
X011319Y030702D01*
X011376Y030645D01*
X011376Y030475D01*
X011376Y030589D02*
X011490Y030702D01*
X011490Y030843D02*
X011149Y031070D01*
X011206Y031212D02*
X011149Y031268D01*
X011149Y031382D01*
X011206Y031439D01*
X011263Y031439D01*
X011490Y031212D01*
X011490Y031439D01*
X011490Y031070D02*
X011149Y030843D01*
X010348Y030843D02*
X010008Y031070D01*
X010064Y031212D02*
X010008Y031268D01*
X010008Y031382D01*
X010064Y031439D01*
X010121Y031439D01*
X010178Y031382D01*
X010234Y031439D01*
X010291Y031439D01*
X010348Y031382D01*
X010348Y031268D01*
X010291Y031212D01*
X010348Y031070D02*
X010008Y030843D01*
X010064Y030702D02*
X010178Y030702D01*
X010234Y030645D01*
X010234Y030475D01*
X010234Y030589D02*
X010348Y030702D01*
X010348Y030475D02*
X010008Y030475D01*
X010008Y030645D01*
X010064Y030702D01*
X010178Y031325D02*
X010178Y031382D01*
X010187Y029811D02*
X010243Y029811D01*
X010300Y029754D01*
X010300Y029641D01*
X010243Y029584D01*
X010300Y029443D02*
X010187Y029329D01*
X010187Y029386D02*
X010187Y029216D01*
X010300Y029216D02*
X009960Y029216D01*
X009960Y029386D01*
X010017Y029443D01*
X010130Y029443D01*
X010187Y029386D01*
X010017Y029584D02*
X009960Y029641D01*
X009960Y029754D01*
X010017Y029811D01*
X010073Y029811D01*
X010130Y029754D01*
X010187Y029811D01*
X010130Y029754D02*
X010130Y029698D01*
X009198Y029794D02*
X008858Y029794D01*
X009028Y029624D01*
X009028Y029850D01*
X009028Y029482D02*
X008914Y029482D01*
X008858Y029425D01*
X008858Y029255D01*
X009198Y029255D01*
X009084Y029255D02*
X009084Y029425D01*
X009028Y029482D01*
X009084Y029369D02*
X009198Y029482D01*
X011180Y029386D02*
X011237Y029443D01*
X011351Y029443D01*
X011407Y029386D01*
X011407Y029216D01*
X011407Y029329D02*
X011521Y029443D01*
X011521Y029584D02*
X011294Y029811D01*
X011237Y029811D01*
X011180Y029754D01*
X011180Y029641D01*
X011237Y029584D01*
X011180Y029386D02*
X011180Y029216D01*
X011521Y029216D01*
X011521Y029584D02*
X011521Y029811D01*
X011061Y027439D02*
X011117Y027383D01*
X011117Y027269D01*
X011061Y027213D01*
X011061Y027071D02*
X010834Y027071D01*
X010777Y027014D01*
X010777Y026844D01*
X011117Y026844D01*
X011117Y027014D01*
X011061Y027071D01*
X010834Y027213D02*
X010777Y027269D01*
X010777Y027383D01*
X010834Y027439D01*
X010891Y027439D01*
X010947Y027383D01*
X011004Y027439D01*
X011061Y027439D01*
X010947Y027383D02*
X010947Y027326D01*
X008991Y027291D02*
X008991Y027518D01*
X008991Y027405D02*
X008651Y027405D01*
X008765Y027291D01*
X008708Y027150D02*
X008651Y027093D01*
X008651Y026923D01*
X008991Y026923D01*
X008991Y027093D01*
X008935Y027150D01*
X008708Y027150D01*
X007993Y026544D02*
X007936Y026601D01*
X007823Y026601D01*
X007766Y026544D01*
X007625Y026544D02*
X007568Y026601D01*
X007398Y026601D01*
X007398Y026261D01*
X007568Y026261D01*
X007625Y026317D01*
X007625Y026544D01*
X007766Y026261D02*
X007993Y026488D01*
X007993Y026544D01*
X007993Y026261D02*
X007766Y026261D01*
X006274Y029182D02*
X006160Y029296D01*
X006217Y029296D02*
X006047Y029296D01*
X006047Y029182D02*
X006047Y029523D01*
X006217Y029523D01*
X006274Y029466D01*
X006274Y029353D01*
X006217Y029296D01*
X005906Y029182D02*
X005679Y029182D01*
X005679Y029523D01*
X005906Y029523D01*
X005792Y029353D02*
X005679Y029353D01*
X005537Y029523D02*
X005537Y029182D01*
X005424Y029296D01*
X005310Y029182D01*
X005310Y029523D01*
X005169Y029466D02*
X005112Y029523D01*
X004999Y029523D01*
X004942Y029466D01*
X004942Y029239D01*
X004999Y029182D01*
X005112Y029182D01*
X005169Y029239D01*
X005169Y029466D01*
X004801Y029466D02*
X004801Y029353D01*
X004744Y029296D01*
X004574Y029296D01*
X004574Y029182D02*
X004574Y029523D01*
X004744Y029523D01*
X004801Y029466D01*
X004432Y029126D02*
X004205Y029126D01*
X004064Y029239D02*
X004007Y029182D01*
X003894Y029182D01*
X003837Y029239D01*
X003837Y029466D01*
X003894Y029523D01*
X004007Y029523D01*
X004064Y029466D01*
X003696Y029466D02*
X003639Y029523D01*
X003469Y029523D01*
X003469Y029182D01*
X003639Y029182D01*
X003696Y029239D01*
X003696Y029466D01*
X003327Y029523D02*
X003327Y029296D01*
X003214Y029182D01*
X003101Y029296D01*
X003101Y029523D01*
X002959Y029466D02*
X002902Y029523D01*
X002789Y029523D01*
X002732Y029466D01*
X002732Y029409D01*
X002789Y029353D01*
X002959Y029353D01*
X002959Y029466D02*
X002959Y029239D01*
X002902Y029182D01*
X002789Y029182D01*
X002732Y029239D01*
X005709Y023487D02*
X005935Y023147D01*
X006077Y023147D02*
X006304Y023147D01*
X006190Y023147D02*
X006190Y023487D01*
X006077Y023374D01*
X005935Y023487D02*
X005709Y023147D01*
X012209Y024745D02*
X012322Y024745D01*
X012265Y024745D02*
X012265Y025086D01*
X012209Y025086D02*
X012322Y025086D01*
X012454Y025029D02*
X012454Y024802D01*
X012511Y024745D01*
X012624Y024745D01*
X012681Y024802D01*
X012822Y024745D02*
X013049Y024972D01*
X013049Y025029D01*
X012993Y025086D01*
X012879Y025086D01*
X012822Y025029D01*
X012681Y025029D02*
X012624Y025086D01*
X012511Y025086D01*
X012454Y025029D01*
X012822Y024745D02*
X013049Y024745D01*
X014716Y024762D02*
X014773Y024706D01*
X014886Y024706D01*
X014943Y024762D01*
X015084Y024762D02*
X015141Y024706D01*
X015254Y024706D01*
X015311Y024762D01*
X015311Y024876D01*
X015254Y024933D01*
X015198Y024933D01*
X015084Y024876D01*
X015084Y025046D01*
X015311Y025046D01*
X014943Y024989D02*
X014886Y025046D01*
X014773Y025046D01*
X014716Y024989D01*
X014716Y024762D01*
X014865Y023891D02*
X014865Y023665D01*
X014695Y023835D01*
X015035Y023835D01*
X014978Y023523D02*
X015035Y023466D01*
X015035Y023353D01*
X014978Y023296D01*
X014751Y023296D01*
X014695Y023353D01*
X014695Y023466D01*
X014751Y023523D01*
X015821Y023441D02*
X015821Y023327D01*
X015877Y023271D01*
X016104Y023271D01*
X016161Y023327D01*
X016161Y023441D01*
X016104Y023497D01*
X016104Y023639D02*
X016161Y023696D01*
X016161Y023809D01*
X016104Y023866D01*
X016047Y023866D01*
X015991Y023809D01*
X015991Y023752D01*
X015991Y023809D02*
X015934Y023866D01*
X015877Y023866D01*
X015821Y023809D01*
X015821Y023696D01*
X015877Y023639D01*
X015877Y023497D02*
X015821Y023441D01*
X015922Y022660D02*
X015979Y022660D01*
X016036Y022603D01*
X016036Y022490D01*
X015979Y022433D01*
X015922Y022433D01*
X015865Y022490D01*
X015865Y022603D01*
X015922Y022660D01*
X016036Y022603D02*
X016092Y022660D01*
X016149Y022660D01*
X016206Y022603D01*
X016206Y022490D01*
X016149Y022433D01*
X016092Y022433D01*
X016036Y022490D01*
X015979Y022291D02*
X016206Y022065D01*
X016206Y022291D01*
X015979Y022291D02*
X015922Y022291D01*
X015865Y022235D01*
X015865Y022121D01*
X015922Y022065D01*
X015922Y021923D02*
X016036Y021923D01*
X016092Y021866D01*
X016092Y021696D01*
X016092Y021810D02*
X016206Y021923D01*
X016206Y021696D02*
X015865Y021696D01*
X015865Y021866D01*
X015922Y021923D01*
X017361Y021893D02*
X017361Y022063D01*
X017418Y022120D01*
X017532Y022120D01*
X017588Y022063D01*
X017588Y021893D01*
X017588Y022006D02*
X017702Y022120D01*
X017702Y022261D02*
X017475Y022488D01*
X017418Y022488D01*
X017361Y022431D01*
X017361Y022318D01*
X017418Y022261D01*
X017702Y022261D02*
X017702Y022488D01*
X017702Y022630D02*
X017645Y022630D01*
X017418Y022857D01*
X017361Y022857D01*
X017361Y022630D01*
X017361Y021893D02*
X017702Y021893D01*
X017634Y023929D02*
X017521Y024042D01*
X017578Y024042D02*
X017407Y024042D01*
X017407Y023929D02*
X017407Y024269D01*
X017578Y024269D01*
X017634Y024212D01*
X017634Y024099D01*
X017578Y024042D01*
X017776Y023929D02*
X018003Y024155D01*
X018003Y024212D01*
X017946Y024269D01*
X017832Y024269D01*
X017776Y024212D01*
X017776Y023929D02*
X018003Y023929D01*
X018144Y024099D02*
X018371Y024099D01*
X018314Y024269D02*
X018144Y024099D01*
X018314Y023929D02*
X018314Y024269D01*
X018314Y024913D02*
X018201Y024913D01*
X018144Y024969D01*
X018371Y025196D01*
X018371Y024969D01*
X018314Y024913D01*
X018144Y024969D02*
X018144Y025196D01*
X018201Y025253D01*
X018314Y025253D01*
X018371Y025196D01*
X018003Y025196D02*
X017946Y025253D01*
X017832Y025253D01*
X017776Y025196D01*
X017634Y025196D02*
X017578Y025253D01*
X017464Y025253D01*
X017407Y025196D01*
X017407Y024969D01*
X017464Y024913D01*
X017578Y024913D01*
X017634Y024969D01*
X017776Y024913D02*
X018003Y025140D01*
X018003Y025196D01*
X018003Y024913D02*
X017776Y024913D01*
X021890Y025753D02*
X022003Y025640D01*
X022003Y025470D01*
X022003Y025640D02*
X022117Y025753D01*
X022117Y025810D01*
X022258Y025697D02*
X022371Y025810D01*
X022371Y025470D01*
X022258Y025470D02*
X022485Y025470D01*
X021890Y025753D02*
X021890Y025810D01*
X023630Y025235D02*
X023630Y025008D01*
X023687Y024951D01*
X023800Y024951D01*
X023857Y025008D01*
X023857Y025235D01*
X023800Y025292D01*
X023687Y025292D01*
X023630Y025235D01*
X023744Y025065D02*
X023857Y024951D01*
X023999Y024951D02*
X024225Y024951D01*
X024112Y024951D02*
X024112Y025292D01*
X023999Y025178D01*
X024721Y028965D02*
X024721Y029306D01*
X024608Y029306D02*
X024835Y029306D01*
X024976Y029249D02*
X024976Y029022D01*
X025033Y028965D01*
X025146Y028965D01*
X025203Y029022D01*
X025344Y028965D02*
X025344Y029306D01*
X025203Y029249D02*
X025146Y029306D01*
X025033Y029306D01*
X024976Y029249D01*
X025344Y029079D02*
X025571Y029306D01*
X025749Y029306D02*
X025976Y029306D01*
X025863Y029306D02*
X025863Y028965D01*
X026118Y028965D02*
X026118Y029306D01*
X026231Y029192D01*
X026345Y029306D01*
X026345Y028965D01*
X026486Y029022D02*
X026543Y028965D01*
X026656Y028965D01*
X026713Y029022D01*
X026713Y029079D01*
X026656Y029136D01*
X026543Y029136D01*
X026486Y029192D01*
X026486Y029249D01*
X026543Y029306D01*
X026656Y029306D01*
X026713Y029249D01*
X025571Y028965D02*
X025401Y029136D01*
X024663Y030395D02*
X024719Y030452D01*
X024719Y030565D01*
X024663Y030622D01*
X024606Y030622D01*
X024549Y030565D01*
X024549Y030452D01*
X024493Y030395D01*
X024436Y030395D01*
X024379Y030452D01*
X024379Y030565D01*
X024436Y030622D01*
X024436Y030763D02*
X024379Y030820D01*
X024379Y030933D01*
X024436Y030990D01*
X024493Y030990D01*
X024549Y030933D01*
X024606Y030990D01*
X024663Y030990D01*
X024719Y030933D01*
X024719Y030820D01*
X024663Y030763D01*
X024549Y030877D02*
X024549Y030933D01*
X040031Y025517D02*
X040031Y025290D01*
X040088Y025233D01*
X040201Y025233D01*
X040258Y025290D01*
X040399Y025290D02*
X040456Y025233D01*
X040569Y025233D01*
X040626Y025290D01*
X040626Y025347D01*
X040569Y025403D01*
X040513Y025403D01*
X040569Y025403D02*
X040626Y025460D01*
X040626Y025517D01*
X040569Y025574D01*
X040456Y025574D01*
X040399Y025517D01*
X040258Y025517D02*
X040201Y025574D01*
X040088Y025574D01*
X040031Y025517D01*
X040767Y025517D02*
X040767Y025460D01*
X040824Y025403D01*
X040938Y025403D01*
X040994Y025347D01*
X040994Y025290D01*
X040938Y025233D01*
X040824Y025233D01*
X040767Y025290D01*
X040767Y025347D01*
X040824Y025403D01*
X040938Y025403D02*
X040994Y025460D01*
X040994Y025517D01*
X040938Y025574D01*
X040824Y025574D01*
X040767Y025517D01*
X040807Y023999D02*
X041034Y023999D01*
X041034Y023942D01*
X040807Y023715D01*
X040807Y023658D01*
X040665Y023715D02*
X040609Y023658D01*
X040495Y023658D01*
X040439Y023715D01*
X040297Y023715D02*
X040240Y023658D01*
X040127Y023658D01*
X040070Y023715D01*
X040070Y023942D01*
X040127Y023999D01*
X040240Y023999D01*
X040297Y023942D01*
X040439Y023942D02*
X040495Y023999D01*
X040609Y023999D01*
X040665Y023942D01*
X040665Y023885D01*
X040609Y023829D01*
X040665Y023772D01*
X040665Y023715D01*
X040609Y023829D02*
X040552Y023829D01*
X040521Y022369D02*
X040634Y022369D01*
X040691Y022312D01*
X040691Y022255D01*
X040634Y022199D01*
X040691Y022142D01*
X040691Y022085D01*
X040634Y022029D01*
X040521Y022029D01*
X040464Y022085D01*
X040323Y022085D02*
X040266Y022029D01*
X040152Y022029D01*
X040096Y022085D01*
X040096Y022312D01*
X040152Y022369D01*
X040266Y022369D01*
X040323Y022312D01*
X040464Y022312D02*
X040521Y022369D01*
X040578Y022199D02*
X040634Y022199D01*
X040832Y022255D02*
X040889Y022199D01*
X041059Y022199D01*
X041059Y022312D02*
X041059Y022085D01*
X041003Y022029D01*
X040889Y022029D01*
X040832Y022085D01*
X040832Y022255D02*
X040832Y022312D01*
X040889Y022369D01*
X041003Y022369D01*
X041059Y022312D01*
X044226Y021801D02*
X044566Y021801D01*
X044566Y021669D02*
X044509Y021612D01*
X044282Y021612D01*
X044339Y021555D02*
X044339Y021669D01*
X044396Y021801D02*
X044339Y021857D01*
X044339Y021971D01*
X044396Y022027D01*
X044566Y022027D01*
X044396Y022169D02*
X044396Y022396D01*
X044509Y022537D02*
X044452Y022594D01*
X044452Y022764D01*
X044396Y022764D02*
X044566Y022764D01*
X044566Y022594D01*
X044509Y022537D01*
X044339Y022594D02*
X044339Y022707D01*
X044396Y022764D01*
X044396Y022906D02*
X044396Y023132D01*
X044339Y023274D02*
X044339Y023444D01*
X044396Y023501D01*
X044509Y023501D01*
X044566Y023444D01*
X044566Y023274D01*
X044679Y023274D02*
X044339Y023274D01*
X044396Y023642D02*
X044339Y023699D01*
X044339Y023812D01*
X044396Y023869D01*
X044566Y023869D01*
X044509Y024010D02*
X044566Y024067D01*
X044566Y024181D01*
X044509Y024237D01*
X044396Y024237D01*
X044339Y024181D01*
X044339Y024067D01*
X044396Y024010D01*
X044509Y024010D01*
X044566Y023642D02*
X044226Y023642D01*
X044339Y024379D02*
X044339Y024549D01*
X044396Y024606D01*
X044566Y024606D01*
X044509Y024747D02*
X044396Y024747D01*
X044339Y024804D01*
X044339Y024917D01*
X044396Y024974D01*
X044452Y024974D01*
X044452Y024747D01*
X044509Y024747D02*
X044566Y024804D01*
X044566Y024917D01*
X044339Y025484D02*
X044566Y025597D01*
X044339Y025711D01*
X044339Y025852D02*
X044226Y025965D01*
X044566Y025965D01*
X044566Y025852D02*
X044566Y026079D01*
X044566Y026220D02*
X044566Y026277D01*
X044509Y026277D01*
X044509Y026220D01*
X044566Y026220D01*
X044509Y026404D02*
X044282Y026404D01*
X044226Y026461D01*
X044226Y026575D01*
X044282Y026631D01*
X044509Y026404D01*
X044566Y026461D01*
X044566Y026575D01*
X044509Y026631D01*
X044282Y026631D01*
X041402Y028631D02*
X041402Y028688D01*
X041346Y028744D01*
X041176Y028744D01*
X041176Y028631D01*
X041232Y028574D01*
X041346Y028574D01*
X041402Y028631D01*
X041176Y028744D02*
X041289Y028858D01*
X041402Y028914D01*
X041034Y028858D02*
X041034Y028801D01*
X040977Y028744D01*
X041034Y028688D01*
X041034Y028631D01*
X040977Y028574D01*
X040864Y028574D01*
X040807Y028631D01*
X040666Y028631D02*
X040609Y028574D01*
X040496Y028574D01*
X040439Y028631D01*
X040439Y028858D01*
X040496Y028914D01*
X040609Y028914D01*
X040666Y028858D01*
X040807Y028858D02*
X040864Y028914D01*
X040977Y028914D01*
X041034Y028858D01*
X040977Y028744D02*
X040921Y028744D01*
X040909Y029369D02*
X040409Y029369D01*
X040159Y029619D01*
X040159Y030119D01*
X040409Y030369D01*
X040909Y030369D01*
X041159Y030119D01*
X041159Y029619D01*
X040909Y029369D01*
X041066Y030619D02*
X041066Y030959D01*
X040896Y030789D01*
X041122Y030789D01*
X040754Y030789D02*
X040754Y030903D01*
X040697Y030959D01*
X040527Y030959D01*
X040527Y030619D01*
X040527Y030732D02*
X040697Y030732D01*
X040754Y030789D01*
X040386Y030959D02*
X040272Y030959D01*
X040329Y030959D02*
X040329Y030676D01*
X040272Y030619D01*
X040216Y030619D01*
X040159Y030676D01*
X044339Y024379D02*
X044566Y024379D01*
X045126Y023316D02*
X045353Y023203D01*
X045126Y023090D01*
X045183Y022948D02*
X045240Y022948D01*
X045240Y022721D01*
X045297Y022721D02*
X045183Y022721D01*
X045126Y022778D01*
X045126Y022891D01*
X045183Y022948D01*
X045353Y022891D02*
X045353Y022778D01*
X045297Y022721D01*
X045353Y022580D02*
X045353Y022410D01*
X045297Y022353D01*
X045183Y022353D01*
X045126Y022410D01*
X045126Y022580D01*
X045013Y022580D02*
X045353Y022580D01*
X045353Y022226D02*
X045353Y022169D01*
X045297Y022169D01*
X045297Y022226D01*
X045353Y022226D01*
X045353Y022027D02*
X045183Y022027D01*
X045126Y021971D01*
X045126Y021857D01*
X045183Y021801D01*
X045126Y021669D02*
X045126Y021555D01*
X045070Y021612D02*
X045297Y021612D01*
X045353Y021669D01*
X045353Y021801D02*
X045013Y021801D01*
X045183Y021414D02*
X045353Y021414D01*
X045183Y021414D02*
X045126Y021357D01*
X045126Y021187D01*
X045353Y021187D01*
X045353Y021045D02*
X045353Y020875D01*
X045297Y020818D01*
X045126Y020818D01*
X045126Y020677D02*
X045126Y020507D01*
X045183Y020450D01*
X045240Y020507D01*
X045240Y020620D01*
X045297Y020677D01*
X045353Y020620D01*
X045353Y020450D01*
X045467Y020932D02*
X045467Y020989D01*
X045410Y021045D01*
X045126Y021045D01*
X044679Y020989D02*
X044679Y020932D01*
X044679Y020989D02*
X044623Y021045D01*
X044339Y021045D01*
X044339Y021187D02*
X044339Y021357D01*
X044396Y021414D01*
X044566Y021414D01*
X044566Y021187D02*
X044339Y021187D01*
X044566Y021045D02*
X044566Y020875D01*
X044509Y020818D01*
X044339Y020818D01*
X044339Y020677D02*
X044339Y020507D01*
X044396Y020450D01*
X044452Y020507D01*
X044452Y020620D01*
X044509Y020677D01*
X044566Y020620D01*
X044566Y020450D01*
X037476Y013338D02*
X037419Y013394D01*
X037306Y013394D01*
X037249Y013338D01*
X037211Y011237D02*
X037381Y011237D01*
X037437Y011181D01*
X037437Y011067D01*
X037381Y011010D01*
X037211Y011010D01*
X037211Y010897D02*
X037211Y011237D01*
X037324Y011010D02*
X037437Y010897D01*
X037579Y010897D02*
X037806Y010897D01*
X037692Y010897D02*
X037692Y011237D01*
X037579Y011124D01*
X037947Y011181D02*
X037947Y010954D01*
X038174Y011181D01*
X038174Y010954D01*
X038117Y010897D01*
X038004Y010897D01*
X037947Y010954D01*
X037947Y011181D02*
X038004Y011237D01*
X038117Y011237D01*
X038174Y011181D01*
X038061Y010292D02*
X038061Y009952D01*
X038174Y009952D02*
X037947Y009952D01*
X037806Y009952D02*
X037579Y009952D01*
X037692Y009952D02*
X037692Y010292D01*
X037579Y010179D01*
X037437Y010236D02*
X037381Y010292D01*
X037267Y010292D01*
X037211Y010236D01*
X037211Y010009D01*
X037267Y009952D01*
X037381Y009952D01*
X037437Y010009D01*
X037947Y010179D02*
X038061Y010292D01*
X036796Y010122D02*
X036569Y010122D01*
X036739Y010292D01*
X036739Y009952D01*
X036428Y009952D02*
X036201Y009952D01*
X036314Y009952D02*
X036314Y010292D01*
X036201Y010179D01*
X036059Y010236D02*
X036059Y010122D01*
X036003Y010066D01*
X035833Y010066D01*
X035946Y010066D02*
X036059Y009952D01*
X035833Y009952D02*
X035833Y010292D01*
X036003Y010292D01*
X036059Y010236D01*
X035997Y009716D02*
X036054Y009603D01*
X036167Y009489D01*
X036167Y009659D01*
X036224Y009716D01*
X036281Y009716D01*
X036338Y009659D01*
X036338Y009546D01*
X036281Y009489D01*
X036167Y009489D01*
X036054Y009348D02*
X035997Y009291D01*
X035997Y009178D01*
X036054Y009121D01*
X036281Y009121D01*
X036338Y009178D01*
X036338Y009291D01*
X036281Y009348D01*
X036338Y008989D02*
X036338Y008875D01*
X036338Y008932D02*
X035997Y008932D01*
X035997Y008875D02*
X035997Y008989D01*
X035819Y008133D02*
X035706Y008133D01*
X035649Y008076D01*
X035649Y008019D01*
X035706Y007962D01*
X035819Y007962D01*
X035876Y007906D01*
X035876Y007849D01*
X035819Y007792D01*
X035706Y007792D01*
X035649Y007849D01*
X035649Y007906D01*
X035706Y007962D01*
X035819Y007962D02*
X035876Y008019D01*
X035876Y008076D01*
X035819Y008133D01*
X035394Y008133D02*
X035394Y007792D01*
X035281Y007792D02*
X035508Y007792D01*
X035281Y008019D02*
X035394Y008133D01*
X035140Y008076D02*
X035140Y007962D01*
X035083Y007906D01*
X034913Y007906D01*
X035026Y007906D02*
X035140Y007792D01*
X034913Y007792D02*
X034913Y008133D01*
X035083Y008133D01*
X035140Y008076D01*
X035083Y007148D02*
X034969Y007148D01*
X034913Y007092D01*
X034913Y006865D01*
X034969Y006808D01*
X035083Y006808D01*
X035140Y006865D01*
X035281Y006808D02*
X035508Y006808D01*
X035394Y006808D02*
X035394Y007148D01*
X035281Y007035D01*
X035140Y007092D02*
X035083Y007148D01*
X035649Y007148D02*
X035876Y007148D01*
X035876Y007092D01*
X035649Y006865D01*
X035649Y006808D01*
X035837Y006203D02*
X035723Y006147D01*
X035610Y006033D01*
X035780Y006033D01*
X035837Y005977D01*
X035837Y005920D01*
X035780Y005863D01*
X035667Y005863D01*
X035610Y005920D01*
X035610Y006033D01*
X035469Y006090D02*
X035469Y006147D01*
X035412Y006203D01*
X035298Y006203D01*
X035242Y006147D01*
X035100Y006147D02*
X035100Y006033D01*
X035043Y005977D01*
X034873Y005977D01*
X034987Y005977D02*
X035100Y005863D01*
X035242Y005863D02*
X035469Y006090D01*
X035469Y005863D02*
X035242Y005863D01*
X035100Y006147D02*
X035043Y006203D01*
X034873Y006203D01*
X034873Y005863D01*
X034660Y005666D02*
X034060Y005666D01*
X034043Y005664D01*
X034026Y005660D01*
X034010Y005653D01*
X033996Y005643D01*
X033983Y005630D01*
X033973Y005616D01*
X033966Y005600D01*
X033962Y005583D01*
X033960Y005566D01*
X033960Y004566D01*
X033962Y004549D01*
X033966Y004532D01*
X033973Y004516D01*
X033983Y004502D01*
X033996Y004489D01*
X034010Y004479D01*
X034026Y004472D01*
X034043Y004468D01*
X034060Y004466D01*
X034660Y004466D01*
X034677Y004468D01*
X034694Y004472D01*
X034710Y004479D01*
X034724Y004489D01*
X034737Y004502D01*
X034747Y004516D01*
X034754Y004532D01*
X034758Y004549D01*
X034760Y004566D01*
X034760Y005566D01*
X034758Y005583D01*
X034754Y005600D01*
X034747Y005616D01*
X034737Y005630D01*
X034724Y005643D01*
X034710Y005653D01*
X034694Y005660D01*
X034677Y005664D01*
X034660Y005666D01*
X034603Y004243D02*
X034490Y004243D01*
X034546Y004243D02*
X034546Y003960D01*
X034490Y003903D01*
X034433Y003903D01*
X034376Y003960D01*
X034235Y003960D02*
X034178Y003903D01*
X034064Y003903D01*
X034008Y003960D01*
X034064Y004073D02*
X034178Y004073D01*
X034235Y004016D01*
X034235Y003960D01*
X034064Y004073D02*
X034008Y004130D01*
X034008Y004186D01*
X034064Y004243D01*
X034178Y004243D01*
X034235Y004186D01*
X034744Y004130D02*
X034858Y004243D01*
X034858Y003903D01*
X034971Y003903D02*
X034744Y003903D01*
X036907Y005825D02*
X036964Y005769D01*
X037077Y005769D01*
X037134Y005825D01*
X037275Y005769D02*
X037502Y005769D01*
X037389Y005769D02*
X037389Y006109D01*
X037275Y005996D01*
X037134Y006052D02*
X037077Y006109D01*
X036964Y006109D01*
X036907Y006052D01*
X036907Y005825D01*
X037643Y005825D02*
X037700Y005769D01*
X037814Y005769D01*
X037870Y005825D01*
X037870Y006052D01*
X037814Y006109D01*
X037700Y006109D01*
X037643Y006052D01*
X037643Y005996D01*
X037700Y005939D01*
X037870Y005939D01*
X039206Y006957D02*
X039206Y007128D01*
X039263Y007184D01*
X039376Y007184D01*
X039433Y007128D01*
X039433Y006957D01*
X039547Y006957D02*
X039206Y006957D01*
X039433Y007071D02*
X039547Y007184D01*
X039547Y007326D02*
X039320Y007553D01*
X039263Y007553D01*
X039206Y007496D01*
X039206Y007382D01*
X039263Y007326D01*
X039547Y007326D02*
X039547Y007553D01*
X039490Y007694D02*
X039547Y007751D01*
X039547Y007864D01*
X039490Y007921D01*
X039433Y007921D01*
X039376Y007864D01*
X039376Y007807D01*
X039376Y007864D02*
X039320Y007921D01*
X039263Y007921D01*
X039206Y007864D01*
X039206Y007751D01*
X039263Y007694D01*
X038947Y007849D02*
X038890Y007792D01*
X038777Y007792D01*
X038720Y007849D01*
X038720Y007962D02*
X038834Y008019D01*
X038890Y008019D01*
X038947Y007962D01*
X038947Y007849D01*
X038720Y007962D02*
X038720Y008133D01*
X038947Y008133D01*
X038465Y008133D02*
X038465Y007792D01*
X038352Y007792D02*
X038579Y007792D01*
X038352Y008019D02*
X038465Y008133D01*
X038210Y008076D02*
X038154Y008133D01*
X038040Y008133D01*
X037984Y008076D01*
X037984Y007849D01*
X038040Y007792D01*
X038154Y007792D01*
X038210Y007849D01*
X038250Y008777D02*
X038136Y008890D01*
X038193Y008890D02*
X038023Y008890D01*
X038023Y008777D02*
X038023Y009117D01*
X038193Y009117D01*
X038250Y009060D01*
X038250Y008947D01*
X038193Y008890D01*
X038391Y009003D02*
X038505Y009117D01*
X038505Y008777D01*
X038618Y008777D02*
X038391Y008777D01*
X038760Y008777D02*
X038760Y008833D01*
X038986Y009060D01*
X038986Y009117D01*
X038760Y009117D01*
X036796Y010954D02*
X036739Y010897D01*
X036626Y010897D01*
X036569Y010954D01*
X036428Y010897D02*
X036201Y010897D01*
X036314Y010897D02*
X036314Y011237D01*
X036201Y011124D01*
X036059Y011181D02*
X036059Y011067D01*
X036003Y011010D01*
X035833Y011010D01*
X035833Y010897D02*
X035833Y011237D01*
X036003Y011237D01*
X036059Y011181D01*
X035946Y011010D02*
X036059Y010897D01*
X036569Y011181D02*
X036626Y011237D01*
X036739Y011237D01*
X036796Y011181D01*
X036796Y011124D01*
X036739Y011067D01*
X036796Y011010D01*
X036796Y010954D01*
X036739Y011067D02*
X036683Y011067D01*
X043902Y005666D02*
X044502Y005666D01*
X044519Y005664D01*
X044536Y005660D01*
X044552Y005653D01*
X044566Y005643D01*
X044579Y005630D01*
X044589Y005616D01*
X044596Y005600D01*
X044600Y005583D01*
X044602Y005566D01*
X044602Y004566D01*
X044600Y004549D01*
X044596Y004532D01*
X044589Y004516D01*
X044579Y004502D01*
X044566Y004489D01*
X044552Y004479D01*
X044536Y004472D01*
X044519Y004468D01*
X044502Y004466D01*
X043902Y004466D01*
X043885Y004468D01*
X043868Y004472D01*
X043852Y004479D01*
X043838Y004489D01*
X043825Y004502D01*
X043815Y004516D01*
X043808Y004532D01*
X043804Y004549D01*
X043802Y004566D01*
X043802Y005566D01*
X043804Y005583D01*
X043808Y005600D01*
X043815Y005616D01*
X043825Y005630D01*
X043838Y005643D01*
X043852Y005653D01*
X043868Y005660D01*
X043885Y005664D01*
X043902Y005666D01*
X043868Y004283D02*
X043811Y004226D01*
X043811Y004169D01*
X043868Y004112D01*
X043981Y004112D01*
X044038Y004056D01*
X044038Y003999D01*
X043981Y003942D01*
X043868Y003942D01*
X043811Y003999D01*
X043868Y004283D02*
X043981Y004283D01*
X044038Y004226D01*
X044293Y004283D02*
X044406Y004283D01*
X044349Y004283D02*
X044349Y003999D01*
X044293Y003942D01*
X044236Y003942D01*
X044179Y003999D01*
X044548Y003999D02*
X044604Y003942D01*
X044718Y003942D01*
X044774Y003999D01*
X044774Y004056D01*
X044718Y004112D01*
X044661Y004112D01*
X044718Y004112D02*
X044774Y004169D01*
X044774Y004226D01*
X044718Y004283D01*
X044604Y004283D01*
X044548Y004226D01*
X040023Y002829D02*
X040023Y002602D01*
X039796Y002829D01*
X039739Y002829D01*
X039682Y002772D01*
X039682Y002659D01*
X039739Y002602D01*
X039682Y002460D02*
X039682Y002347D01*
X039682Y002404D02*
X039966Y002404D01*
X040023Y002347D01*
X040023Y002290D01*
X039966Y002234D01*
X030180Y002290D02*
X030180Y002347D01*
X030123Y002404D01*
X029840Y002404D01*
X029840Y002460D02*
X029840Y002347D01*
X029953Y002602D02*
X029840Y002715D01*
X030180Y002715D01*
X030180Y002602D02*
X030180Y002829D01*
X030180Y002290D02*
X030123Y002234D01*
X027407Y005516D02*
X027067Y005516D01*
X027067Y005686D01*
X027123Y005743D01*
X027237Y005743D01*
X027293Y005686D01*
X027293Y005516D01*
X027350Y005885D02*
X027123Y005885D01*
X027067Y005941D01*
X027067Y006055D01*
X027123Y006111D01*
X027350Y006111D01*
X027407Y006055D01*
X027407Y005941D01*
X027350Y005885D01*
X027067Y006253D02*
X027067Y006480D01*
X027067Y006366D02*
X027407Y006366D01*
X027237Y006621D02*
X027237Y006848D01*
X027407Y006791D02*
X027067Y006791D01*
X027237Y006621D01*
X020690Y011740D02*
X020690Y012080D01*
X020520Y011910D01*
X020747Y011910D01*
X020379Y011966D02*
X020379Y012023D01*
X020322Y012080D01*
X020208Y012080D01*
X020152Y012023D01*
X020010Y012023D02*
X019954Y012080D01*
X019840Y012080D01*
X019783Y012023D01*
X019783Y011796D01*
X019840Y011740D01*
X019954Y011740D01*
X020010Y011796D01*
X020152Y011740D02*
X020379Y011966D01*
X020379Y011740D02*
X020152Y011740D01*
X021655Y013084D02*
X021905Y012834D01*
X022405Y012834D01*
X022655Y013084D01*
X022655Y013584D01*
X022405Y013834D01*
X021905Y013834D01*
X021655Y013584D01*
X021655Y013084D01*
X020733Y013749D02*
X020676Y013692D01*
X020563Y013692D01*
X020506Y013749D01*
X020365Y013692D02*
X020138Y013692D01*
X020365Y013919D01*
X020365Y013976D01*
X020308Y014033D01*
X020195Y014033D01*
X020138Y013976D01*
X019996Y013976D02*
X019940Y014033D01*
X019826Y014033D01*
X019770Y013976D01*
X019770Y013749D01*
X019826Y013692D01*
X019940Y013692D01*
X019996Y013749D01*
X020506Y013976D02*
X020563Y014033D01*
X020676Y014033D01*
X020733Y013976D01*
X020733Y013919D01*
X020676Y013862D01*
X020733Y013806D01*
X020733Y013749D01*
X020676Y013862D02*
X020620Y013862D01*
X021655Y014140D02*
X021712Y014084D01*
X021768Y014084D01*
X021825Y014140D01*
X021825Y014424D01*
X021768Y014424D02*
X021882Y014424D01*
X022023Y014424D02*
X022193Y014424D01*
X022250Y014367D01*
X022250Y014254D01*
X022193Y014197D01*
X022023Y014197D01*
X022023Y014084D02*
X022023Y014424D01*
X022392Y014367D02*
X022448Y014424D01*
X022562Y014424D01*
X022618Y014367D01*
X022618Y014310D01*
X022392Y014084D01*
X022618Y014084D01*
X022836Y014140D02*
X022893Y014084D01*
X022949Y014084D01*
X023006Y014140D01*
X023006Y014424D01*
X022949Y014424D02*
X023063Y014424D01*
X023204Y014424D02*
X023204Y014084D01*
X023204Y014197D02*
X023374Y014197D01*
X023431Y014254D01*
X023431Y014367D01*
X023374Y014424D01*
X023204Y014424D01*
X023573Y014367D02*
X023629Y014424D01*
X023743Y014424D01*
X023800Y014367D01*
X023800Y014310D01*
X023743Y014254D01*
X023800Y014197D01*
X023800Y014140D01*
X023743Y014084D01*
X023629Y014084D01*
X023573Y014140D01*
X023686Y014254D02*
X023743Y014254D01*
X023586Y013834D02*
X023836Y013584D01*
X023836Y013084D01*
X023586Y012834D01*
X023086Y012834D01*
X022836Y013084D01*
X022836Y013584D01*
X023086Y013834D01*
X023586Y013834D01*
X021692Y016444D02*
X021692Y016501D01*
X021919Y016728D01*
X021919Y016785D01*
X021692Y016785D01*
X021551Y016728D02*
X021494Y016785D01*
X021381Y016785D01*
X021324Y016728D01*
X021324Y016501D01*
X021381Y016444D01*
X021494Y016444D01*
X021551Y016501D01*
X021192Y016444D02*
X021079Y016444D01*
X021135Y016444D02*
X021135Y016785D01*
X021079Y016785D02*
X021192Y016785D01*
D11*
X013179Y019633D02*
X012194Y019633D01*
X030104Y011141D02*
X030104Y006641D01*
X033104Y006641D01*
X033104Y011141D01*
X030104Y011141D01*
X030486Y009141D02*
X030488Y009207D01*
X030494Y009273D01*
X030504Y009339D01*
X030517Y009404D01*
X030535Y009468D01*
X030556Y009530D01*
X030581Y009592D01*
X030609Y009652D01*
X030641Y009710D01*
X030677Y009766D01*
X030715Y009819D01*
X030757Y009871D01*
X030802Y009920D01*
X030849Y009966D01*
X030900Y010009D01*
X030952Y010049D01*
X031007Y010086D01*
X031064Y010120D01*
X031123Y010150D01*
X031184Y010177D01*
X031246Y010200D01*
X031309Y010219D01*
X031374Y010235D01*
X031439Y010247D01*
X031505Y010255D01*
X031571Y010259D01*
X031637Y010259D01*
X031703Y010255D01*
X031769Y010247D01*
X031834Y010235D01*
X031899Y010219D01*
X031962Y010200D01*
X032024Y010177D01*
X032085Y010150D01*
X032144Y010120D01*
X032201Y010086D01*
X032256Y010049D01*
X032308Y010009D01*
X032359Y009966D01*
X032406Y009920D01*
X032451Y009871D01*
X032493Y009819D01*
X032531Y009766D01*
X032567Y009710D01*
X032599Y009652D01*
X032627Y009592D01*
X032652Y009530D01*
X032673Y009468D01*
X032691Y009404D01*
X032704Y009339D01*
X032714Y009273D01*
X032720Y009207D01*
X032722Y009141D01*
X032720Y009075D01*
X032714Y009009D01*
X032704Y008943D01*
X032691Y008878D01*
X032673Y008814D01*
X032652Y008752D01*
X032627Y008690D01*
X032599Y008630D01*
X032567Y008572D01*
X032531Y008516D01*
X032493Y008463D01*
X032451Y008411D01*
X032406Y008362D01*
X032359Y008316D01*
X032308Y008273D01*
X032256Y008233D01*
X032201Y008196D01*
X032144Y008162D01*
X032085Y008132D01*
X032024Y008105D01*
X031962Y008082D01*
X031899Y008063D01*
X031834Y008047D01*
X031769Y008035D01*
X031703Y008027D01*
X031637Y008023D01*
X031571Y008023D01*
X031505Y008027D01*
X031439Y008035D01*
X031374Y008047D01*
X031309Y008063D01*
X031246Y008082D01*
X031184Y008105D01*
X031123Y008132D01*
X031064Y008162D01*
X031007Y008196D01*
X030952Y008233D01*
X030900Y008273D01*
X030849Y008316D01*
X030802Y008362D01*
X030757Y008411D01*
X030715Y008463D01*
X030677Y008516D01*
X030641Y008572D01*
X030609Y008630D01*
X030581Y008690D01*
X030556Y008752D01*
X030535Y008814D01*
X030517Y008878D01*
X030504Y008943D01*
X030494Y009009D01*
X030488Y009075D01*
X030486Y009141D01*
X026805Y006247D02*
X026805Y001747D01*
X023805Y001747D01*
X023805Y006247D01*
X026805Y006247D01*
X024187Y003747D02*
X024189Y003813D01*
X024195Y003879D01*
X024205Y003945D01*
X024218Y004010D01*
X024236Y004074D01*
X024257Y004136D01*
X024282Y004198D01*
X024310Y004258D01*
X024342Y004316D01*
X024378Y004372D01*
X024416Y004425D01*
X024458Y004477D01*
X024503Y004526D01*
X024550Y004572D01*
X024601Y004615D01*
X024653Y004655D01*
X024708Y004692D01*
X024765Y004726D01*
X024824Y004756D01*
X024885Y004783D01*
X024947Y004806D01*
X025010Y004825D01*
X025075Y004841D01*
X025140Y004853D01*
X025206Y004861D01*
X025272Y004865D01*
X025338Y004865D01*
X025404Y004861D01*
X025470Y004853D01*
X025535Y004841D01*
X025600Y004825D01*
X025663Y004806D01*
X025725Y004783D01*
X025786Y004756D01*
X025845Y004726D01*
X025902Y004692D01*
X025957Y004655D01*
X026009Y004615D01*
X026060Y004572D01*
X026107Y004526D01*
X026152Y004477D01*
X026194Y004425D01*
X026232Y004372D01*
X026268Y004316D01*
X026300Y004258D01*
X026328Y004198D01*
X026353Y004136D01*
X026374Y004074D01*
X026392Y004010D01*
X026405Y003945D01*
X026415Y003879D01*
X026421Y003813D01*
X026423Y003747D01*
X026421Y003681D01*
X026415Y003615D01*
X026405Y003549D01*
X026392Y003484D01*
X026374Y003420D01*
X026353Y003358D01*
X026328Y003296D01*
X026300Y003236D01*
X026268Y003178D01*
X026232Y003122D01*
X026194Y003069D01*
X026152Y003017D01*
X026107Y002968D01*
X026060Y002922D01*
X026009Y002879D01*
X025957Y002839D01*
X025902Y002802D01*
X025845Y002768D01*
X025786Y002738D01*
X025725Y002711D01*
X025663Y002688D01*
X025600Y002669D01*
X025535Y002653D01*
X025470Y002641D01*
X025404Y002633D01*
X025338Y002629D01*
X025272Y002629D01*
X025206Y002633D01*
X025140Y002641D01*
X025075Y002653D01*
X025010Y002669D01*
X024947Y002688D01*
X024885Y002711D01*
X024824Y002738D01*
X024765Y002768D01*
X024708Y002802D01*
X024653Y002839D01*
X024601Y002879D01*
X024550Y002922D01*
X024503Y002968D01*
X024458Y003017D01*
X024416Y003069D01*
X024378Y003122D01*
X024342Y003178D01*
X024310Y003236D01*
X024282Y003296D01*
X024257Y003358D01*
X024236Y003420D01*
X024218Y003484D01*
X024205Y003549D01*
X024195Y003615D01*
X024189Y003681D01*
X024187Y003747D01*
X021293Y001747D02*
X021293Y006247D01*
X018293Y006247D01*
X018293Y001747D01*
X021293Y001747D01*
X018675Y003747D02*
X018677Y003813D01*
X018683Y003879D01*
X018693Y003945D01*
X018706Y004010D01*
X018724Y004074D01*
X018745Y004136D01*
X018770Y004198D01*
X018798Y004258D01*
X018830Y004316D01*
X018866Y004372D01*
X018904Y004425D01*
X018946Y004477D01*
X018991Y004526D01*
X019038Y004572D01*
X019089Y004615D01*
X019141Y004655D01*
X019196Y004692D01*
X019253Y004726D01*
X019312Y004756D01*
X019373Y004783D01*
X019435Y004806D01*
X019498Y004825D01*
X019563Y004841D01*
X019628Y004853D01*
X019694Y004861D01*
X019760Y004865D01*
X019826Y004865D01*
X019892Y004861D01*
X019958Y004853D01*
X020023Y004841D01*
X020088Y004825D01*
X020151Y004806D01*
X020213Y004783D01*
X020274Y004756D01*
X020333Y004726D01*
X020390Y004692D01*
X020445Y004655D01*
X020497Y004615D01*
X020548Y004572D01*
X020595Y004526D01*
X020640Y004477D01*
X020682Y004425D01*
X020720Y004372D01*
X020756Y004316D01*
X020788Y004258D01*
X020816Y004198D01*
X020841Y004136D01*
X020862Y004074D01*
X020880Y004010D01*
X020893Y003945D01*
X020903Y003879D01*
X020909Y003813D01*
X020911Y003747D01*
X020909Y003681D01*
X020903Y003615D01*
X020893Y003549D01*
X020880Y003484D01*
X020862Y003420D01*
X020841Y003358D01*
X020816Y003296D01*
X020788Y003236D01*
X020756Y003178D01*
X020720Y003122D01*
X020682Y003069D01*
X020640Y003017D01*
X020595Y002968D01*
X020548Y002922D01*
X020497Y002879D01*
X020445Y002839D01*
X020390Y002802D01*
X020333Y002768D01*
X020274Y002738D01*
X020213Y002711D01*
X020151Y002688D01*
X020088Y002669D01*
X020023Y002653D01*
X019958Y002641D01*
X019892Y002633D01*
X019826Y002629D01*
X019760Y002629D01*
X019694Y002633D01*
X019628Y002641D01*
X019563Y002653D01*
X019498Y002669D01*
X019435Y002688D01*
X019373Y002711D01*
X019312Y002738D01*
X019253Y002768D01*
X019196Y002802D01*
X019141Y002839D01*
X019089Y002879D01*
X019038Y002922D01*
X018991Y002968D01*
X018946Y003017D01*
X018904Y003069D01*
X018866Y003122D01*
X018830Y003178D01*
X018798Y003236D01*
X018770Y003296D01*
X018745Y003358D01*
X018724Y003420D01*
X018706Y003484D01*
X018693Y003549D01*
X018683Y003615D01*
X018677Y003681D01*
X018675Y003747D01*
X015781Y001747D02*
X015781Y006247D01*
X012781Y006247D01*
X012781Y001747D01*
X015781Y001747D01*
X013163Y003747D02*
X013165Y003813D01*
X013171Y003879D01*
X013181Y003945D01*
X013194Y004010D01*
X013212Y004074D01*
X013233Y004136D01*
X013258Y004198D01*
X013286Y004258D01*
X013318Y004316D01*
X013354Y004372D01*
X013392Y004425D01*
X013434Y004477D01*
X013479Y004526D01*
X013526Y004572D01*
X013577Y004615D01*
X013629Y004655D01*
X013684Y004692D01*
X013741Y004726D01*
X013800Y004756D01*
X013861Y004783D01*
X013923Y004806D01*
X013986Y004825D01*
X014051Y004841D01*
X014116Y004853D01*
X014182Y004861D01*
X014248Y004865D01*
X014314Y004865D01*
X014380Y004861D01*
X014446Y004853D01*
X014511Y004841D01*
X014576Y004825D01*
X014639Y004806D01*
X014701Y004783D01*
X014762Y004756D01*
X014821Y004726D01*
X014878Y004692D01*
X014933Y004655D01*
X014985Y004615D01*
X015036Y004572D01*
X015083Y004526D01*
X015128Y004477D01*
X015170Y004425D01*
X015208Y004372D01*
X015244Y004316D01*
X015276Y004258D01*
X015304Y004198D01*
X015329Y004136D01*
X015350Y004074D01*
X015368Y004010D01*
X015381Y003945D01*
X015391Y003879D01*
X015397Y003813D01*
X015399Y003747D01*
X015397Y003681D01*
X015391Y003615D01*
X015381Y003549D01*
X015368Y003484D01*
X015350Y003420D01*
X015329Y003358D01*
X015304Y003296D01*
X015276Y003236D01*
X015244Y003178D01*
X015208Y003122D01*
X015170Y003069D01*
X015128Y003017D01*
X015083Y002968D01*
X015036Y002922D01*
X014985Y002879D01*
X014933Y002839D01*
X014878Y002802D01*
X014821Y002768D01*
X014762Y002738D01*
X014701Y002711D01*
X014639Y002688D01*
X014576Y002669D01*
X014511Y002653D01*
X014446Y002641D01*
X014380Y002633D01*
X014314Y002629D01*
X014248Y002629D01*
X014182Y002633D01*
X014116Y002641D01*
X014051Y002653D01*
X013986Y002669D01*
X013923Y002688D01*
X013861Y002711D01*
X013800Y002738D01*
X013741Y002768D01*
X013684Y002802D01*
X013629Y002839D01*
X013577Y002879D01*
X013526Y002922D01*
X013479Y002968D01*
X013434Y003017D01*
X013392Y003069D01*
X013354Y003122D01*
X013318Y003178D01*
X013286Y003236D01*
X013258Y003296D01*
X013233Y003358D01*
X013212Y003420D01*
X013194Y003484D01*
X013181Y003549D01*
X013171Y003615D01*
X013165Y003681D01*
X013163Y003747D01*
X010269Y001747D02*
X010269Y006247D01*
X007269Y006247D01*
X007269Y001747D01*
X010269Y001747D01*
X007651Y003747D02*
X007653Y003813D01*
X007659Y003879D01*
X007669Y003945D01*
X007682Y004010D01*
X007700Y004074D01*
X007721Y004136D01*
X007746Y004198D01*
X007774Y004258D01*
X007806Y004316D01*
X007842Y004372D01*
X007880Y004425D01*
X007922Y004477D01*
X007967Y004526D01*
X008014Y004572D01*
X008065Y004615D01*
X008117Y004655D01*
X008172Y004692D01*
X008229Y004726D01*
X008288Y004756D01*
X008349Y004783D01*
X008411Y004806D01*
X008474Y004825D01*
X008539Y004841D01*
X008604Y004853D01*
X008670Y004861D01*
X008736Y004865D01*
X008802Y004865D01*
X008868Y004861D01*
X008934Y004853D01*
X008999Y004841D01*
X009064Y004825D01*
X009127Y004806D01*
X009189Y004783D01*
X009250Y004756D01*
X009309Y004726D01*
X009366Y004692D01*
X009421Y004655D01*
X009473Y004615D01*
X009524Y004572D01*
X009571Y004526D01*
X009616Y004477D01*
X009658Y004425D01*
X009696Y004372D01*
X009732Y004316D01*
X009764Y004258D01*
X009792Y004198D01*
X009817Y004136D01*
X009838Y004074D01*
X009856Y004010D01*
X009869Y003945D01*
X009879Y003879D01*
X009885Y003813D01*
X009887Y003747D01*
X009885Y003681D01*
X009879Y003615D01*
X009869Y003549D01*
X009856Y003484D01*
X009838Y003420D01*
X009817Y003358D01*
X009792Y003296D01*
X009764Y003236D01*
X009732Y003178D01*
X009696Y003122D01*
X009658Y003069D01*
X009616Y003017D01*
X009571Y002968D01*
X009524Y002922D01*
X009473Y002879D01*
X009421Y002839D01*
X009366Y002802D01*
X009309Y002768D01*
X009250Y002738D01*
X009189Y002711D01*
X009127Y002688D01*
X009064Y002669D01*
X008999Y002653D01*
X008934Y002641D01*
X008868Y002633D01*
X008802Y002629D01*
X008736Y002629D01*
X008670Y002633D01*
X008604Y002641D01*
X008539Y002653D01*
X008474Y002669D01*
X008411Y002688D01*
X008349Y002711D01*
X008288Y002738D01*
X008229Y002768D01*
X008172Y002802D01*
X008117Y002839D01*
X008065Y002879D01*
X008014Y002922D01*
X007967Y002968D01*
X007922Y003017D01*
X007880Y003069D01*
X007842Y003122D01*
X007806Y003178D01*
X007774Y003236D01*
X007746Y003296D01*
X007721Y003358D01*
X007700Y003420D01*
X007682Y003484D01*
X007669Y003549D01*
X007659Y003615D01*
X007653Y003681D01*
X007651Y003747D01*
X035032Y016543D02*
X035032Y019354D01*
X036824Y019354D01*
X036824Y016543D01*
X035032Y016543D01*
X040340Y011141D02*
X040340Y006641D01*
X043340Y006641D01*
X043340Y011141D01*
X040340Y011141D01*
X040722Y009141D02*
X040724Y009207D01*
X040730Y009273D01*
X040740Y009339D01*
X040753Y009404D01*
X040771Y009468D01*
X040792Y009530D01*
X040817Y009592D01*
X040845Y009652D01*
X040877Y009710D01*
X040913Y009766D01*
X040951Y009819D01*
X040993Y009871D01*
X041038Y009920D01*
X041085Y009966D01*
X041136Y010009D01*
X041188Y010049D01*
X041243Y010086D01*
X041300Y010120D01*
X041359Y010150D01*
X041420Y010177D01*
X041482Y010200D01*
X041545Y010219D01*
X041610Y010235D01*
X041675Y010247D01*
X041741Y010255D01*
X041807Y010259D01*
X041873Y010259D01*
X041939Y010255D01*
X042005Y010247D01*
X042070Y010235D01*
X042135Y010219D01*
X042198Y010200D01*
X042260Y010177D01*
X042321Y010150D01*
X042380Y010120D01*
X042437Y010086D01*
X042492Y010049D01*
X042544Y010009D01*
X042595Y009966D01*
X042642Y009920D01*
X042687Y009871D01*
X042729Y009819D01*
X042767Y009766D01*
X042803Y009710D01*
X042835Y009652D01*
X042863Y009592D01*
X042888Y009530D01*
X042909Y009468D01*
X042927Y009404D01*
X042940Y009339D01*
X042950Y009273D01*
X042956Y009207D01*
X042958Y009141D01*
X042956Y009075D01*
X042950Y009009D01*
X042940Y008943D01*
X042927Y008878D01*
X042909Y008814D01*
X042888Y008752D01*
X042863Y008690D01*
X042835Y008630D01*
X042803Y008572D01*
X042767Y008516D01*
X042729Y008463D01*
X042687Y008411D01*
X042642Y008362D01*
X042595Y008316D01*
X042544Y008273D01*
X042492Y008233D01*
X042437Y008196D01*
X042380Y008162D01*
X042321Y008132D01*
X042260Y008105D01*
X042198Y008082D01*
X042135Y008063D01*
X042070Y008047D01*
X042005Y008035D01*
X041939Y008027D01*
X041873Y008023D01*
X041807Y008023D01*
X041741Y008027D01*
X041675Y008035D01*
X041610Y008047D01*
X041545Y008063D01*
X041482Y008082D01*
X041420Y008105D01*
X041359Y008132D01*
X041300Y008162D01*
X041243Y008196D01*
X041188Y008233D01*
X041136Y008273D01*
X041085Y008316D01*
X041038Y008362D01*
X040993Y008411D01*
X040951Y008463D01*
X040913Y008516D01*
X040877Y008572D01*
X040845Y008630D01*
X040817Y008690D01*
X040792Y008752D01*
X040771Y008814D01*
X040753Y008878D01*
X040740Y008943D01*
X040730Y009009D01*
X040724Y009075D01*
X040722Y009141D01*
D12*
X035203Y019157D02*
X035205Y019171D01*
X035211Y019185D01*
X035219Y019197D01*
X035231Y019205D01*
X035245Y019211D01*
X035259Y019213D01*
X035273Y019211D01*
X035287Y019205D01*
X035299Y019197D01*
X035307Y019185D01*
X035313Y019171D01*
X035315Y019157D01*
X035313Y019143D01*
X035307Y019129D01*
X035299Y019117D01*
X035287Y019109D01*
X035273Y019103D01*
X035259Y019101D01*
X035245Y019103D01*
X035231Y019109D01*
X035219Y019117D01*
X035211Y019129D01*
X035205Y019143D01*
X035203Y019157D01*
D13*
X041368Y018491D02*
X041368Y017625D01*
X042312Y017625D01*
X042312Y018491D01*
X041368Y018491D01*
X042706Y014633D02*
X043572Y014633D01*
X043572Y013688D01*
X042706Y013688D01*
X042706Y014633D01*
X037431Y009082D02*
X036486Y009082D01*
X036486Y008215D01*
X037431Y008215D01*
X037431Y009082D01*
X038690Y005656D02*
X038690Y005263D01*
X038690Y005656D02*
X043415Y005656D01*
X043415Y005263D01*
X043415Y004082D02*
X043415Y001326D01*
X038690Y001326D01*
X038690Y004082D01*
X033572Y004082D02*
X033572Y001326D01*
X028848Y001326D01*
X028848Y004082D01*
X028848Y005263D02*
X028848Y005656D01*
X033572Y005656D01*
X033572Y005263D01*
X027557Y015416D02*
X019907Y015416D01*
X019907Y023062D01*
X027557Y023062D01*
X027557Y015416D01*
X016312Y026217D02*
X013952Y026217D01*
X012312Y027037D02*
X011525Y027037D01*
X011919Y027440D01*
X012312Y027037D01*
X010344Y027037D02*
X009557Y027037D01*
X009950Y027440D01*
X010344Y027037D01*
X009621Y024860D02*
X011981Y024860D01*
X011981Y022280D01*
X009621Y022280D01*
X007588Y024424D02*
X007982Y024827D01*
X007194Y024827D01*
X007588Y024424D01*
X005895Y025341D02*
X005620Y025341D01*
X005895Y025341D02*
X005895Y026168D01*
X003769Y025341D02*
X001683Y025341D01*
X001683Y028885D01*
X005895Y028885D01*
X005895Y028058D01*
X013952Y028797D02*
X016312Y028797D01*
X016312Y026217D01*
X021305Y029456D02*
X023005Y029456D01*
X023355Y030252D02*
X023355Y031056D01*
X023005Y031856D02*
X021305Y031856D01*
X020955Y031056D02*
X020955Y030263D01*
X021455Y030656D02*
X021457Y030708D01*
X021463Y030760D01*
X021473Y030812D01*
X021486Y030862D01*
X021503Y030912D01*
X021524Y030960D01*
X021549Y031006D01*
X021577Y031050D01*
X021608Y031092D01*
X021642Y031132D01*
X021679Y031169D01*
X021719Y031203D01*
X021761Y031234D01*
X021805Y031262D01*
X021851Y031287D01*
X021899Y031308D01*
X021949Y031325D01*
X021999Y031338D01*
X022051Y031348D01*
X022103Y031354D01*
X022155Y031356D01*
X022207Y031354D01*
X022259Y031348D01*
X022311Y031338D01*
X022361Y031325D01*
X022411Y031308D01*
X022459Y031287D01*
X022505Y031262D01*
X022549Y031234D01*
X022591Y031203D01*
X022631Y031169D01*
X022668Y031132D01*
X022702Y031092D01*
X022733Y031050D01*
X022761Y031006D01*
X022786Y030960D01*
X022807Y030912D01*
X022824Y030862D01*
X022837Y030812D01*
X022847Y030760D01*
X022853Y030708D01*
X022855Y030656D01*
X022853Y030604D01*
X022847Y030552D01*
X022837Y030500D01*
X022824Y030450D01*
X022807Y030400D01*
X022786Y030352D01*
X022761Y030306D01*
X022733Y030262D01*
X022702Y030220D01*
X022668Y030180D01*
X022631Y030143D01*
X022591Y030109D01*
X022549Y030078D01*
X022505Y030050D01*
X022459Y030025D01*
X022411Y030004D01*
X022361Y029987D01*
X022311Y029974D01*
X022259Y029964D01*
X022207Y029958D01*
X022155Y029956D01*
X022103Y029958D01*
X022051Y029964D01*
X021999Y029974D01*
X021949Y029987D01*
X021899Y030004D01*
X021851Y030025D01*
X021805Y030050D01*
X021761Y030078D01*
X021719Y030109D01*
X021679Y030143D01*
X021642Y030180D01*
X021608Y030220D01*
X021577Y030262D01*
X021549Y030306D01*
X021524Y030352D01*
X021503Y030400D01*
X021486Y030450D01*
X021473Y030500D01*
X021463Y030552D01*
X021457Y030604D01*
X021455Y030656D01*
X024892Y030263D02*
X024892Y031056D01*
X025242Y031856D02*
X026942Y031856D01*
X027292Y031056D02*
X027292Y030252D01*
X025392Y030656D02*
X025394Y030708D01*
X025400Y030760D01*
X025410Y030812D01*
X025423Y030862D01*
X025440Y030912D01*
X025461Y030960D01*
X025486Y031006D01*
X025514Y031050D01*
X025545Y031092D01*
X025579Y031132D01*
X025616Y031169D01*
X025656Y031203D01*
X025698Y031234D01*
X025742Y031262D01*
X025788Y031287D01*
X025836Y031308D01*
X025886Y031325D01*
X025936Y031338D01*
X025988Y031348D01*
X026040Y031354D01*
X026092Y031356D01*
X026144Y031354D01*
X026196Y031348D01*
X026248Y031338D01*
X026298Y031325D01*
X026348Y031308D01*
X026396Y031287D01*
X026442Y031262D01*
X026486Y031234D01*
X026528Y031203D01*
X026568Y031169D01*
X026605Y031132D01*
X026639Y031092D01*
X026670Y031050D01*
X026698Y031006D01*
X026723Y030960D01*
X026744Y030912D01*
X026761Y030862D01*
X026774Y030812D01*
X026784Y030760D01*
X026790Y030708D01*
X026792Y030656D01*
X026790Y030604D01*
X026784Y030552D01*
X026774Y030500D01*
X026761Y030450D01*
X026744Y030400D01*
X026723Y030352D01*
X026698Y030306D01*
X026670Y030262D01*
X026639Y030220D01*
X026605Y030180D01*
X026568Y030143D01*
X026528Y030109D01*
X026486Y030078D01*
X026442Y030050D01*
X026396Y030025D01*
X026348Y030004D01*
X026298Y029987D01*
X026248Y029974D01*
X026196Y029964D01*
X026144Y029958D01*
X026092Y029956D01*
X026040Y029958D01*
X025988Y029964D01*
X025936Y029974D01*
X025886Y029987D01*
X025836Y030004D01*
X025788Y030025D01*
X025742Y030050D01*
X025698Y030078D01*
X025656Y030109D01*
X025616Y030143D01*
X025579Y030180D01*
X025545Y030220D01*
X025514Y030262D01*
X025486Y030306D01*
X025461Y030352D01*
X025440Y030400D01*
X025423Y030450D01*
X025410Y030500D01*
X025400Y030552D01*
X025394Y030604D01*
X025392Y030656D01*
X025242Y029456D02*
X026942Y029456D01*
X005237Y011384D02*
X004432Y011384D01*
X003632Y011034D02*
X003632Y009334D01*
X004432Y008984D02*
X005225Y008984D01*
X006032Y009334D02*
X006032Y011034D01*
X004132Y010184D02*
X004134Y010236D01*
X004140Y010288D01*
X004150Y010340D01*
X004163Y010390D01*
X004180Y010440D01*
X004201Y010488D01*
X004226Y010534D01*
X004254Y010578D01*
X004285Y010620D01*
X004319Y010660D01*
X004356Y010697D01*
X004396Y010731D01*
X004438Y010762D01*
X004482Y010790D01*
X004528Y010815D01*
X004576Y010836D01*
X004626Y010853D01*
X004676Y010866D01*
X004728Y010876D01*
X004780Y010882D01*
X004832Y010884D01*
X004884Y010882D01*
X004936Y010876D01*
X004988Y010866D01*
X005038Y010853D01*
X005088Y010836D01*
X005136Y010815D01*
X005182Y010790D01*
X005226Y010762D01*
X005268Y010731D01*
X005308Y010697D01*
X005345Y010660D01*
X005379Y010620D01*
X005410Y010578D01*
X005438Y010534D01*
X005463Y010488D01*
X005484Y010440D01*
X005501Y010390D01*
X005514Y010340D01*
X005524Y010288D01*
X005530Y010236D01*
X005532Y010184D01*
X005530Y010132D01*
X005524Y010080D01*
X005514Y010028D01*
X005501Y009978D01*
X005484Y009928D01*
X005463Y009880D01*
X005438Y009834D01*
X005410Y009790D01*
X005379Y009748D01*
X005345Y009708D01*
X005308Y009671D01*
X005268Y009637D01*
X005226Y009606D01*
X005182Y009578D01*
X005136Y009553D01*
X005088Y009532D01*
X005038Y009515D01*
X004988Y009502D01*
X004936Y009492D01*
X004884Y009486D01*
X004832Y009484D01*
X004780Y009486D01*
X004728Y009492D01*
X004676Y009502D01*
X004626Y009515D01*
X004576Y009532D01*
X004528Y009553D01*
X004482Y009578D01*
X004438Y009606D01*
X004396Y009637D01*
X004356Y009671D01*
X004319Y009708D01*
X004285Y009748D01*
X004254Y009790D01*
X004226Y009834D01*
X004201Y009880D01*
X004180Y009928D01*
X004163Y009978D01*
X004150Y010028D01*
X004140Y010080D01*
X004134Y010132D01*
X004132Y010184D01*
D14*
X037234Y008885D03*
X042903Y014436D03*
X042116Y018294D03*
D15*
X005954Y016326D03*
X005954Y015853D03*
X005954Y014751D03*
X005954Y014278D03*
D16*
X005954Y014515D03*
X005954Y016089D03*
X009557Y030991D03*
X010738Y030991D03*
X011919Y030991D03*
D17*
X006643Y022743D02*
X000442Y022743D01*
X000442Y018097D01*
X006643Y018097D01*
X006643Y022743D01*
X026781Y022586D02*
X026783Y022620D01*
X026789Y022654D01*
X026799Y022687D01*
X026812Y022718D01*
X026830Y022748D01*
X026850Y022776D01*
X026874Y022801D01*
X026900Y022823D01*
X026928Y022841D01*
X026959Y022857D01*
X026991Y022869D01*
X027025Y022877D01*
X027059Y022881D01*
X027093Y022881D01*
X027127Y022877D01*
X027161Y022869D01*
X027193Y022857D01*
X027223Y022841D01*
X027252Y022823D01*
X027278Y022801D01*
X027302Y022776D01*
X027322Y022748D01*
X027340Y022718D01*
X027353Y022687D01*
X027363Y022654D01*
X027369Y022620D01*
X027371Y022586D01*
X027369Y022552D01*
X027363Y022518D01*
X027353Y022485D01*
X027340Y022454D01*
X027322Y022424D01*
X027302Y022396D01*
X027278Y022371D01*
X027252Y022349D01*
X027224Y022331D01*
X027193Y022315D01*
X027161Y022303D01*
X027127Y022295D01*
X027093Y022291D01*
X027059Y022291D01*
X027025Y022295D01*
X026991Y022303D01*
X026959Y022315D01*
X026928Y022331D01*
X026900Y022349D01*
X026874Y022371D01*
X026850Y022396D01*
X026830Y022424D01*
X026812Y022454D01*
X026799Y022485D01*
X026789Y022518D01*
X026783Y022552D01*
X026781Y022586D01*
D18*
X012706Y019633D03*
D19*
X012312Y019879D02*
X013100Y019879D01*
X013100Y019387D02*
X012312Y019387D01*
D20*
X008338Y023861D02*
X008338Y025641D01*
X009200Y026223D02*
X009200Y028003D01*
X010700Y028003D02*
X010700Y026223D01*
X011169Y026223D02*
X011169Y028003D01*
X012669Y028003D02*
X012669Y026223D01*
X006838Y025641D02*
X006838Y023861D01*
D21*
X009320Y030991D03*
X009793Y030991D03*
X010501Y030991D03*
X010974Y030991D03*
X011683Y030991D03*
X012155Y030991D03*
D22*
X021525Y026641D02*
X021525Y026011D01*
X022785Y026011D02*
X022785Y026641D01*
X028612Y026916D02*
X029242Y026916D01*
X029242Y025656D02*
X028612Y025656D01*
X031840Y025617D02*
X032470Y025617D01*
X032470Y026877D02*
X031840Y026877D01*
X012470Y015066D02*
X012470Y014436D01*
X011210Y014436D02*
X011210Y015066D01*
D23*
X012171Y023570D03*
X016502Y027507D03*
M02*
