G75*
G70*
%OFA0B0*%
%FSLAX24Y24*%
%IPPOS*%
%LPD*%
%AMOC8*
5,1,8,0,0,1.08239X$1,22.5*
%
%ADD10C,0.1580*%
%ADD11R,0.0474X0.0513*%
%ADD12R,0.0631X0.0710*%
%ADD13R,0.0474X0.0237*%
%ADD14R,0.0257X0.0651*%
%ADD15R,0.0513X0.0474*%
%ADD16R,0.0710X0.0631*%
%ADD17C,0.1346*%
%ADD18R,0.0780X0.0780*%
%ADD19C,0.0780*%
%ADD20C,0.1660*%
%ADD21OC8,0.0720*%
%ADD22R,0.0552X0.0552*%
%ADD23OC8,0.0694*%
%ADD24R,0.0828X0.1419*%
%ADD25R,0.0540X0.0710*%
%ADD26R,0.0060X0.0720*%
%ADD27R,0.0474X0.0474*%
%ADD28R,0.0552X0.0474*%
%ADD29R,0.1025X0.1025*%
%ADD30C,0.0820*%
%ADD31R,0.0580X0.0300*%
%ADD32R,0.0300X0.0580*%
%ADD33R,0.0867X0.0356*%
%ADD34R,0.0280X0.0580*%
%ADD35R,0.0580X0.0280*%
%ADD36R,0.0356X0.0867*%
%ADD37R,0.0198X0.0710*%
%ADD38R,0.0710X0.0198*%
%ADD39R,0.0330X0.0580*%
%ADD40R,0.0867X0.2245*%
%ADD41R,0.2245X0.0867*%
%ADD42R,0.2521X0.2206*%
%ADD43R,0.0710X0.0474*%
%ADD44C,0.0552*%
%ADD45C,0.0940*%
%ADD46R,0.0651X0.0257*%
%ADD47R,0.0580X0.0330*%
%ADD48OC8,0.0840*%
D10*
X003651Y002704D03*
X003651Y031444D03*
X044990Y031444D03*
X044990Y002704D03*
D11*
X038828Y007467D03*
X038159Y007467D03*
X035718Y006523D03*
X035049Y006523D03*
X035049Y008452D03*
X035718Y008452D03*
X038159Y009436D03*
X038828Y009436D03*
X036623Y010578D03*
X035954Y010578D03*
X035147Y010676D03*
X035147Y011345D03*
X035954Y011523D03*
X036623Y011523D03*
X037371Y011523D03*
X038041Y011523D03*
X041171Y014613D03*
X041171Y015282D03*
X043257Y015400D03*
X043257Y016070D03*
X040659Y017723D03*
X040659Y018393D03*
X044242Y012999D03*
X044242Y012330D03*
X028454Y012605D03*
X028454Y013274D03*
X015797Y011759D03*
X015127Y011759D03*
X015127Y010578D03*
X015797Y010578D03*
X013434Y007822D03*
X012765Y007822D03*
X007588Y013393D03*
X007588Y014062D03*
X004379Y014515D03*
X003710Y014515D03*
X003710Y016089D03*
X004379Y016089D03*
X011505Y016089D03*
X012175Y016089D03*
X015462Y023235D03*
X015462Y023904D03*
X017490Y023570D03*
X018159Y023570D03*
X021781Y027743D03*
X022450Y027743D03*
X022450Y028609D03*
X021781Y028609D03*
X027509Y027960D03*
X027509Y027290D03*
X030580Y027330D03*
X030580Y027999D03*
X030580Y025164D03*
X030580Y024495D03*
X027509Y024534D03*
X027509Y025204D03*
D12*
X014281Y024160D03*
X014281Y022979D03*
X008375Y014318D03*
X008375Y013137D03*
X045265Y014397D03*
X045265Y015578D03*
D13*
X037078Y016778D03*
X037078Y017038D03*
X037081Y017298D03*
X037078Y017558D03*
X037078Y017818D03*
X037078Y018078D03*
X037078Y018338D03*
X037078Y018598D03*
X037078Y018858D03*
X037078Y019118D03*
X034778Y019118D03*
X034778Y018858D03*
X034778Y018598D03*
X034778Y018338D03*
X034778Y018078D03*
X034778Y017818D03*
X034778Y017558D03*
X034776Y017298D03*
X034778Y017038D03*
X034778Y016778D03*
D14*
X041456Y017192D03*
X041712Y017192D03*
X041968Y017192D03*
X042224Y017192D03*
X042224Y018924D03*
X041968Y018924D03*
X041712Y018924D03*
X041456Y018924D03*
X037342Y009515D03*
X037086Y009515D03*
X036830Y009515D03*
X036574Y009515D03*
X036574Y007782D03*
X036830Y007782D03*
X037086Y007782D03*
X037342Y007782D03*
D15*
X038159Y008452D03*
X038828Y008452D03*
X038041Y010578D03*
X037371Y010578D03*
X040403Y012349D03*
X041072Y012349D03*
X041171Y013156D03*
X041171Y013826D03*
X040226Y013826D03*
X040226Y013156D03*
X040226Y014613D03*
X040226Y015282D03*
X042312Y015400D03*
X042312Y016070D03*
X044242Y016070D03*
X044242Y015400D03*
X043257Y012999D03*
X043257Y012330D03*
X045265Y012330D03*
X045265Y012999D03*
X039675Y017723D03*
X039675Y018393D03*
X036269Y020735D03*
X035600Y020735D03*
X032667Y021188D03*
X032667Y021857D03*
X031722Y021857D03*
X031722Y021188D03*
X030698Y021188D03*
X030698Y021857D03*
X030580Y025912D03*
X030580Y026582D03*
X027509Y026582D03*
X027509Y025912D03*
X023868Y027743D03*
X023198Y027743D03*
X020994Y027743D03*
X020324Y027743D03*
X018159Y024554D03*
X017490Y024554D03*
X018021Y022487D03*
X018021Y021818D03*
X016525Y021818D03*
X016525Y022487D03*
X011860Y017271D03*
X011190Y017271D03*
X010757Y016089D03*
X010088Y016089D03*
X012962Y016089D03*
X013631Y016089D03*
X019852Y013334D03*
X020521Y013334D03*
X029635Y013274D03*
X029635Y012605D03*
X030816Y012605D03*
X030816Y013274D03*
X035049Y007467D03*
X035718Y007467D03*
X040324Y024357D03*
X040994Y024357D03*
X040994Y025932D03*
X040324Y025932D03*
X040324Y028294D03*
X040994Y028294D03*
X036328Y031109D03*
X036328Y031778D03*
X034753Y031778D03*
X034753Y031109D03*
X033179Y031109D03*
X033179Y031778D03*
X015009Y030656D03*
X014340Y030656D03*
X011919Y029810D03*
X011919Y029141D03*
X010738Y029141D03*
X010738Y029810D03*
X009557Y029810D03*
X009557Y029141D03*
D16*
X014084Y029475D03*
X015265Y029475D03*
X015659Y025538D03*
X014478Y025538D03*
X011328Y021601D03*
X010147Y021601D03*
X019596Y012546D03*
X020777Y012546D03*
X035344Y019908D03*
X036525Y019908D03*
X040068Y022782D03*
X041249Y022782D03*
X037942Y006523D03*
X036761Y006523D03*
D17*
X040040Y009441D03*
X043640Y009441D03*
X033404Y009441D03*
X029804Y009441D03*
X027105Y003447D03*
X023505Y003447D03*
X021593Y003447D03*
X017993Y003447D03*
X016081Y003447D03*
X012481Y003447D03*
X010569Y003447D03*
X006969Y003447D03*
X004438Y018058D03*
X004438Y022782D03*
D18*
X009769Y006247D03*
X015281Y006247D03*
X020793Y006247D03*
X026305Y006247D03*
X030604Y006641D03*
X040840Y006641D03*
D19*
X041840Y006641D03*
X042840Y006641D03*
X032604Y006641D03*
X031604Y006641D03*
X025305Y006247D03*
X024305Y006247D03*
X019793Y006247D03*
X018793Y006247D03*
X014281Y006247D03*
X013281Y006247D03*
X008769Y006247D03*
X007769Y006247D03*
D20*
X004714Y025263D03*
X003533Y027113D03*
X005895Y027113D03*
D21*
X028871Y030314D03*
X029871Y030314D03*
X030871Y030314D03*
X030871Y031314D03*
X029871Y031314D03*
X028871Y031314D03*
X026517Y010684D03*
X025517Y010684D03*
X024517Y010684D03*
X023517Y010684D03*
X022517Y010684D03*
X022517Y009684D03*
X023517Y009684D03*
X024517Y009684D03*
X025517Y009684D03*
X026517Y009684D03*
X005332Y006853D03*
X004332Y006853D03*
X004332Y005853D03*
X005332Y005853D03*
X005332Y004853D03*
X004332Y004853D03*
D22*
X005600Y014515D03*
X006427Y014515D03*
X006427Y016089D03*
X005600Y016089D03*
X009557Y030637D03*
X009557Y031463D03*
X010738Y031463D03*
X010738Y030637D03*
X011919Y030637D03*
X011919Y031463D03*
D23*
X006293Y020912D03*
X005505Y020912D03*
X005505Y019928D03*
X006293Y019928D03*
D24*
X008395Y018452D03*
X009931Y018452D03*
D25*
X009069Y016877D03*
X008469Y016877D03*
D26*
X008769Y016877D03*
D27*
X012312Y018058D03*
X013100Y018058D03*
X013100Y018845D03*
X012312Y018845D03*
D28*
X012273Y019633D03*
X013139Y019633D03*
D29*
X007588Y023885D03*
X007588Y025617D03*
X009950Y026247D03*
X011919Y026247D03*
X011919Y027979D03*
X009950Y027979D03*
D30*
X020875Y029766D03*
X023435Y029766D03*
X024812Y029766D03*
X024812Y031546D03*
X023435Y031546D03*
X020875Y031546D03*
X027372Y031546D03*
X027372Y029766D03*
X005722Y011464D03*
X003942Y011464D03*
X003942Y008904D03*
X005722Y008904D03*
D31*
X033851Y026011D03*
X033851Y026326D03*
X033851Y026641D03*
X033851Y026956D03*
X033851Y027271D03*
X033851Y027586D03*
X033851Y027900D03*
X033851Y028215D03*
X037231Y028215D03*
X037231Y027900D03*
X037231Y027586D03*
X037231Y027271D03*
X037231Y026956D03*
X037231Y026641D03*
X037231Y026326D03*
X037231Y026011D03*
D32*
X036643Y025423D03*
X036328Y025423D03*
X036013Y025423D03*
X035698Y025423D03*
X035383Y025423D03*
X035068Y025423D03*
X034753Y025423D03*
X034438Y025423D03*
X034438Y028803D03*
X034753Y028803D03*
X035068Y028803D03*
X035383Y028803D03*
X035698Y028803D03*
X036013Y028803D03*
X036328Y028803D03*
X036643Y028803D03*
D33*
X032155Y026641D03*
X032155Y026247D03*
X032155Y025853D03*
X028927Y025893D03*
X028927Y026286D03*
X028927Y026680D03*
D34*
X011446Y012268D03*
X011131Y012268D03*
X010816Y012268D03*
X010501Y012268D03*
X010186Y012268D03*
X009871Y012268D03*
X009557Y012268D03*
X009242Y012268D03*
X009242Y008888D03*
X009557Y008888D03*
X009871Y008888D03*
X010186Y008888D03*
X010501Y008888D03*
X010816Y008888D03*
X011131Y008888D03*
X011446Y008888D03*
D35*
X012034Y009475D03*
X012034Y009790D03*
X012034Y010105D03*
X012034Y010420D03*
X012034Y010735D03*
X012034Y011050D03*
X012034Y011365D03*
X012034Y011680D03*
X008654Y011680D03*
X008654Y011365D03*
X008654Y011050D03*
X008654Y010735D03*
X008654Y010420D03*
X008654Y010105D03*
X008654Y009790D03*
X008654Y009475D03*
D36*
X011446Y014751D03*
X011840Y014751D03*
X012234Y014751D03*
X021761Y026326D03*
X022155Y026326D03*
X022549Y026326D03*
D37*
X022647Y023412D03*
X022450Y023412D03*
X022253Y023412D03*
X022057Y023412D03*
X021860Y023412D03*
X021663Y023412D03*
X021466Y023412D03*
X021269Y023412D03*
X021072Y023412D03*
X020875Y023412D03*
X020679Y023412D03*
X020482Y023412D03*
X020285Y023412D03*
X022844Y023412D03*
X023041Y023412D03*
X023238Y023412D03*
X023434Y023412D03*
X023631Y023412D03*
X023828Y023412D03*
X024025Y023412D03*
X024222Y023412D03*
X024419Y023412D03*
X024616Y023412D03*
X024812Y023412D03*
X025009Y023412D03*
X025206Y023412D03*
X025403Y023412D03*
X025600Y023412D03*
X025797Y023412D03*
X025994Y023412D03*
X026190Y023412D03*
X026387Y023412D03*
X026584Y023412D03*
X026781Y023412D03*
X026978Y023412D03*
X027175Y023412D03*
X027175Y015066D03*
X026978Y015066D03*
X026781Y015066D03*
X026584Y015066D03*
X026387Y015066D03*
X026190Y015066D03*
X025994Y015066D03*
X025797Y015066D03*
X025600Y015066D03*
X025403Y015066D03*
X025206Y015066D03*
X025009Y015066D03*
X024812Y015066D03*
X024616Y015066D03*
X024419Y015066D03*
X024222Y015066D03*
X024025Y015066D03*
X023828Y015066D03*
X023631Y015066D03*
X023434Y015066D03*
X023238Y015066D03*
X023041Y015066D03*
X022844Y015066D03*
X022647Y015066D03*
X022450Y015066D03*
X022253Y015066D03*
X022057Y015066D03*
X021860Y015066D03*
X021663Y015066D03*
X021466Y015066D03*
X021269Y015066D03*
X021072Y015066D03*
X020875Y015066D03*
X020679Y015066D03*
X020482Y015066D03*
X020285Y015066D03*
D38*
X019557Y015794D03*
X019557Y015991D03*
X019557Y016188D03*
X019557Y016385D03*
X019557Y016582D03*
X019557Y016778D03*
X019557Y016975D03*
X019557Y017172D03*
X019557Y017369D03*
X019557Y017566D03*
X019557Y017763D03*
X019557Y017960D03*
X019557Y018156D03*
X019557Y018353D03*
X019557Y018550D03*
X019557Y018747D03*
X019557Y018944D03*
X019557Y019141D03*
X019557Y019337D03*
X019557Y019534D03*
X019557Y019731D03*
X019557Y019928D03*
X019557Y020125D03*
X019557Y020322D03*
X019557Y020519D03*
X019557Y020715D03*
X019557Y020912D03*
X019557Y021109D03*
X019557Y021306D03*
X019557Y021503D03*
X019557Y021700D03*
X019557Y021897D03*
X019557Y022093D03*
X019557Y022290D03*
X019557Y022487D03*
X019557Y022684D03*
X027903Y022684D03*
X027903Y022487D03*
X027903Y022290D03*
X027903Y022093D03*
X027903Y021897D03*
X027903Y021700D03*
X027903Y021503D03*
X027903Y021306D03*
X027903Y021109D03*
X027903Y020912D03*
X027903Y020715D03*
X027903Y020519D03*
X027903Y020322D03*
X027903Y020125D03*
X027903Y019928D03*
X027903Y019731D03*
X027903Y019534D03*
X027903Y019337D03*
X027903Y019141D03*
X027903Y018944D03*
X027903Y018747D03*
X027903Y018550D03*
X027903Y018353D03*
X027903Y018156D03*
X027903Y017960D03*
X027903Y017763D03*
X027903Y017566D03*
X027903Y017369D03*
X027903Y017172D03*
X027903Y016975D03*
X027903Y016778D03*
X027903Y016582D03*
X027903Y016385D03*
X027903Y016188D03*
X027903Y015991D03*
X027903Y015794D03*
D39*
X035939Y012546D03*
X036289Y012546D03*
X036639Y012546D03*
X037356Y012546D03*
X037706Y012546D03*
X038056Y012546D03*
X018135Y030105D03*
X017785Y030105D03*
X017435Y030105D03*
D40*
X028927Y028117D03*
X032155Y028117D03*
X032155Y024377D03*
X028927Y024377D03*
D41*
X024025Y026326D03*
X020285Y026326D03*
X013710Y014751D03*
X009970Y014751D03*
D42*
X010147Y023570D03*
X014478Y027507D03*
D43*
X017352Y028404D03*
X017352Y026609D03*
X013021Y024467D03*
X013021Y022672D03*
D44*
X031210Y004672D03*
X029242Y002704D03*
X029242Y001719D03*
X033179Y001719D03*
X033179Y002704D03*
X039084Y002704D03*
X039084Y001719D03*
X041053Y004672D03*
X043021Y002704D03*
X043021Y001719D03*
D45*
X041053Y002704D03*
X042037Y004672D03*
X043021Y004672D03*
X040068Y004672D03*
X039084Y004672D03*
X033179Y004672D03*
X032194Y004672D03*
X030226Y004672D03*
X029242Y004672D03*
X031210Y002704D03*
D46*
X042273Y013776D03*
X042273Y014032D03*
X042273Y014288D03*
X042273Y014544D03*
X044005Y014544D03*
X044005Y014288D03*
X044005Y014032D03*
X044005Y013776D03*
D47*
X039202Y013841D03*
X039202Y013491D03*
X039202Y013141D03*
X039202Y014558D03*
X039202Y014908D03*
X039202Y015258D03*
X034360Y005416D03*
X034360Y005066D03*
X034360Y004716D03*
X044202Y004716D03*
X044202Y005066D03*
X044202Y005416D03*
D48*
X023336Y013334D03*
X022155Y013334D03*
X029793Y021444D03*
X029793Y022586D03*
X030895Y022586D03*
X026249Y026050D03*
X026249Y027231D03*
X026249Y028412D03*
X025068Y028412D03*
X040659Y029869D03*
M02*
