%
M48
M72
T01C0.0197
T02C0.0374
T03C0.0400
T04C0.0591
T05C0.0787
T06C0.0866
T07C0.1180
T08C0.1181
T09C0.1260
%
T01
X4118Y8435
X4906Y8828
X5693Y9222
X4512Y10797
X3725Y11191
X4906Y12372
X4118Y13159
X4512Y13553
X5457Y13986
X7583Y12687
X8567Y12687
X9630Y14340
X10418Y14340
X10811Y13553
X11599Y13946
X13567Y14340
X15142Y15521
X15536Y15128
X18111Y13159
X19473Y14340
X21441Y17883
X21048Y18277
X22032Y18789
X22426Y18356
X23803Y19852
X23410Y20246
X23016Y20639
X21953Y20639
X23410Y21820
X23567Y23513
X22229Y23592
X20614Y24183
X19866Y21820
X20654Y21427
X19473Y21033
X18685Y20246
X17898Y19852
X19866Y19065
X20654Y19458
X14748Y20246
X14355Y20639
X13174Y20246
X11205Y20246
X10418Y21033
X10024Y22608
X10024Y23789
X10024Y24970
X11363Y24773
X11992Y23789
X11992Y22608
X13567Y22608
X13961Y23789
X14748Y23671
X14355Y24970
X14670Y27135
X13174Y28120
X11599Y30088
X10063Y28671
X8055Y28317
X7268Y27135
X7662Y26151
X11599Y26151
X14748Y22017
X17111Y26545
X18685Y26545
X19473Y28907
X17740Y30482
X17111Y30482
X16953Y33238
X13961Y31939
X11599Y32765
X9906Y31584
X8449Y31663
X8449Y32450
X22780Y26348
X25457Y28080
X25457Y30009
X25418Y31348
X27898Y30246
X27977Y31033
X29709Y32844
X30890Y31663
X31481Y31663
X31284Y30876
X33016Y29655
X33646Y29694
X33646Y29183
X33174Y28395
X33646Y28002
X35418Y26427
X34827Y25757
X35300Y24734
X34315Y24143
X33410Y23789
X33055Y23395
X33252Y25324
X30496Y24183
X30693Y23553
X29906Y22214
X28134Y21820
X27347Y21033
X26953Y21427
X27544Y20443
X27937Y20049
X28331Y19655
X28725Y19261
X29118Y18868
X29512Y18474
X29906Y18080
X30496Y17883
X30890Y17096
X31677Y18277
X33528Y18277
X35457Y18868
X35339Y19694
X36992Y21033
X36677Y22017
X36796Y22608
X37189Y23002
X38370Y22608
X38370Y21427
X36008Y21427
X38370Y18986
X39158Y23946
X36244Y26033
X36796Y27332
X37189Y28120
X37977Y28513
X36441Y29773
X36008Y30088
X34827Y31269
X34827Y32450
X34433Y33238
X36008Y33238
X31284Y32844
X28567Y28041
X26953Y17490
X28528Y16702
X29709Y15915
X28134Y15561
X26914Y13710
X31284Y13946
X32071Y15521
X33252Y11978
X33016Y10521
X38489Y12175
X19473Y8041
X14748Y8041
X14355Y8828
X12599Y10978
X11992Y10403
X11540Y9675
X9630Y10403
X8449Y9222
X6874Y11584
X11205Y11584
X13961Y12372
X9158Y17332
X7662Y19458
X6087Y18671
X5851Y17135
X4512Y18277
X2937Y17096
X2937Y15521
X10418Y6860
T02
X6366Y21722
X5579Y21722
X5579Y22706
X6366Y22706
T03
X3040Y13258
X1260Y13258
X1260Y10698
X3040Y10698
X2650Y8647
X2650Y7647
X1650Y7647
X1650Y8647
X1650Y6647
X2650Y6647
X5087Y8041
X6087Y8041
X7087Y8041
X10599Y8041
X11599Y8041
X12599Y8041
X16111Y8041
X17111Y8041
X18111Y8041
X21622Y8041
X22622Y8041
X23622Y8041
X23835Y11478
X22835Y11478
X22835Y12478
X23835Y12478
X21835Y12478
X20835Y12478
X20835Y11478
X21835Y11478
X19835Y11478
X19835Y12478
X19866Y15128
X19827Y26427
X20753Y31560
X22130Y31560
X22130Y33340
X20753Y33340
X18193Y33340
X18193Y31560
X24690Y31560
X26189Y32108
X26189Y33108
X27189Y33108
X28189Y33108
X28189Y32108
X27189Y32108
X24690Y33340
X36087Y31151
X36008Y8041
X35008Y8041
X37008Y8041
T04
X31768Y7820
X31768Y5320
X27268Y5320
X27268Y7820
X27268Y10320
X31768Y10320
X5181Y32450
X3331Y32450
X1481Y32450
T05
X27268Y6580
X31768Y6580
T06
X34208Y5241
X37808Y5241
X24422Y5241
X20822Y5241
X18911Y5241
X15311Y5241
X13399Y5241
X9799Y5241
X7887Y5241
X4287Y5241
X4512Y19852
X4512Y24576
T07
X4788Y26663
X5969Y28513
X3607Y28513
T08
X30929Y9080
T09
X1363Y4104
X16323Y11584
X25378Y13946
X39158Y4104
X39158Y33238
X1363Y25757
M30
