G75*
G70*
%OFA0B0*%
%FSLAX24Y24*%
%IPPOS*%
%LPD*%
%AMOC8*
5,1,8,0,0,1.08239X$1,22.5*
%
%ADD10C,0.1580*%
%ADD11C,0.1346*%
%ADD12R,0.0780X0.0780*%
%ADD13C,0.0780*%
%ADD14C,0.1660*%
%ADD15OC8,0.0720*%
%ADD16OC8,0.0694*%
%ADD17C,0.0820*%
%ADD18C,0.0552*%
%ADD19C,0.0940*%
%ADD20OC8,0.0840*%
D10*
X003651Y002704D03*
X003651Y031444D03*
X044990Y031444D03*
X044990Y002704D03*
D11*
X043640Y009441D03*
X040040Y009441D03*
X033404Y009441D03*
X029804Y009441D03*
X027105Y003447D03*
X023505Y003447D03*
X021593Y003447D03*
X017993Y003447D03*
X016081Y003447D03*
X012481Y003447D03*
X010569Y003447D03*
X006969Y003447D03*
X004438Y018058D03*
X004438Y022782D03*
D12*
X009769Y006247D03*
X015281Y006247D03*
X020793Y006247D03*
X026305Y006247D03*
X030604Y006641D03*
X040840Y006641D03*
D13*
X041840Y006641D03*
X042840Y006641D03*
X032604Y006641D03*
X031604Y006641D03*
X025305Y006247D03*
X024305Y006247D03*
X019793Y006247D03*
X018793Y006247D03*
X014281Y006247D03*
X013281Y006247D03*
X008769Y006247D03*
X007769Y006247D03*
D14*
X004714Y025263D03*
X003533Y027113D03*
X005895Y027113D03*
D15*
X028871Y030314D03*
X029871Y030314D03*
X030871Y030314D03*
X030871Y031314D03*
X029871Y031314D03*
X028871Y031314D03*
X026517Y010684D03*
X025517Y010684D03*
X024517Y010684D03*
X023517Y010684D03*
X022517Y010684D03*
X022517Y009684D03*
X023517Y009684D03*
X024517Y009684D03*
X025517Y009684D03*
X026517Y009684D03*
X005332Y006853D03*
X004332Y006853D03*
X004332Y005853D03*
X005332Y005853D03*
X005332Y004853D03*
X004332Y004853D03*
D16*
X005505Y019928D03*
X006293Y019928D03*
X006293Y020912D03*
X005505Y020912D03*
D17*
X005722Y011464D03*
X003942Y011464D03*
X003942Y008904D03*
X005722Y008904D03*
X020875Y029766D03*
X023435Y029766D03*
X024812Y029766D03*
X024812Y031546D03*
X023435Y031546D03*
X020875Y031546D03*
X027372Y031546D03*
X027372Y029766D03*
D18*
X031210Y004672D03*
X029242Y002704D03*
X029242Y001719D03*
X033179Y001719D03*
X033179Y002704D03*
X039084Y002704D03*
X039084Y001719D03*
X041053Y004672D03*
X043021Y002704D03*
X043021Y001719D03*
D19*
X041053Y002704D03*
X042037Y004672D03*
X043021Y004672D03*
X040068Y004672D03*
X039084Y004672D03*
X033179Y004672D03*
X032194Y004672D03*
X030226Y004672D03*
X029242Y004672D03*
X031210Y002704D03*
D20*
X023336Y013334D03*
X022155Y013334D03*
X029793Y021444D03*
X029793Y022586D03*
X030895Y022586D03*
X026249Y026050D03*
X026249Y027231D03*
X026249Y028412D03*
X025068Y028412D03*
X040659Y029869D03*
M02*
