G75*
G70*
%OFA0B0*%
%FSLAX24Y24*%
%IPPOS*%
%LPD*%
%AMOC8*
5,1,8,0,0,1.08239X$1,22.5*
%
%ADD10C,0.0060*%
%ADD11C,0.0050*%
%ADD12C,0.0020*%
%ADD13C,0.0080*%
%ADD14C,0.0157*%
%ADD15C,0.0000*%
%ADD16R,0.0118X0.0059*%
%ADD17R,0.0118X0.0118*%
%ADD18C,0.0100*%
%ADD19R,0.0276X0.0118*%
%ADD20C,0.0028*%
%ADD21C,0.0040*%
%ADD22C,0.0087*%
D10*
X000530Y006177D02*
X000530Y006291D01*
X000530Y006234D02*
X000870Y006234D01*
X000870Y006177D02*
X000870Y006291D01*
X000813Y006423D02*
X000870Y006479D01*
X000870Y006593D01*
X000813Y006650D01*
X000813Y006791D02*
X000870Y006848D01*
X000870Y006961D01*
X000813Y007018D01*
X000756Y007018D01*
X000700Y006961D01*
X000700Y006848D01*
X000643Y006791D01*
X000586Y006791D01*
X000530Y006848D01*
X000530Y006961D01*
X000586Y007018D01*
X000530Y007159D02*
X000530Y007329D01*
X000586Y007386D01*
X000700Y007386D01*
X000756Y007329D01*
X000756Y007159D01*
X000870Y007159D02*
X000530Y007159D01*
X000643Y007528D02*
X000530Y007641D01*
X000870Y007641D01*
X000870Y007528D02*
X000870Y007755D01*
X001150Y007897D02*
X001400Y008147D01*
X001150Y008397D01*
X001150Y008897D01*
X001400Y009147D01*
X002900Y009147D01*
X003150Y008897D01*
X003150Y008397D01*
X002900Y008147D01*
X001400Y008147D01*
X001150Y007897D02*
X001150Y007397D01*
X001400Y007147D01*
X002900Y007147D01*
X003150Y007397D01*
X003150Y007897D01*
X002900Y008147D01*
X002900Y007147D02*
X003150Y006897D01*
X003150Y006397D01*
X002900Y006147D01*
X001400Y006147D01*
X001150Y006397D01*
X001150Y006897D01*
X001400Y007147D01*
X000813Y006423D02*
X000586Y006423D01*
X000530Y006479D01*
X000530Y006593D01*
X000586Y006650D01*
X006282Y010992D02*
X006282Y013752D01*
X008902Y013752D01*
X009042Y013612D01*
X009042Y010992D01*
X006282Y010992D01*
X004020Y012328D02*
X003963Y012271D01*
X004020Y012328D02*
X004020Y012441D01*
X003963Y012498D01*
X003906Y012498D01*
X003850Y012441D01*
X003850Y012328D01*
X003793Y012271D01*
X003736Y012271D01*
X003680Y012328D01*
X003680Y012441D01*
X003736Y012498D01*
X003793Y012640D02*
X003680Y012753D01*
X004020Y012753D01*
X004020Y012640D02*
X004020Y012866D01*
X004303Y014868D02*
X004530Y014868D01*
X004586Y014925D01*
X004586Y015038D01*
X004530Y015095D01*
X004530Y015236D02*
X004586Y015236D01*
X004530Y015236D02*
X004303Y015463D01*
X004246Y015463D01*
X004246Y015236D01*
X004303Y015095D02*
X004246Y015038D01*
X004246Y014925D01*
X004303Y014868D01*
X003720Y015439D02*
X003493Y015779D01*
X003351Y015779D02*
X003124Y015779D01*
X003238Y015779D02*
X003238Y015439D01*
X003493Y015439D02*
X003720Y015779D01*
X003720Y017013D02*
X003493Y017354D01*
X003351Y017297D02*
X003295Y017354D01*
X003124Y017354D01*
X003124Y017013D01*
X003124Y017127D02*
X003295Y017127D01*
X003351Y017184D01*
X003351Y017297D01*
X003238Y017127D02*
X003351Y017013D01*
X003493Y017013D02*
X003720Y017354D01*
X002106Y016929D02*
X001993Y016872D01*
X001879Y016759D01*
X002049Y016759D01*
X002106Y016702D01*
X002106Y016645D01*
X002049Y016589D01*
X001936Y016589D01*
X001879Y016645D01*
X001879Y016759D01*
X001738Y016589D02*
X001511Y016589D01*
X001624Y016589D02*
X001624Y016929D01*
X001511Y016816D01*
X001369Y016872D02*
X001369Y016759D01*
X001313Y016702D01*
X001143Y016702D01*
X001256Y016702D02*
X001369Y016589D01*
X001143Y016589D02*
X001143Y016929D01*
X001313Y016929D01*
X001369Y016872D01*
X001369Y018163D02*
X001256Y018277D01*
X001313Y018277D02*
X001143Y018277D01*
X001143Y018163D02*
X001143Y018504D01*
X001313Y018504D01*
X001369Y018447D01*
X001369Y018334D01*
X001313Y018277D01*
X001511Y018390D02*
X001624Y018504D01*
X001624Y018163D01*
X001511Y018163D02*
X001738Y018163D01*
X001879Y018220D02*
X001936Y018163D01*
X002049Y018163D01*
X002106Y018220D01*
X002106Y018334D01*
X002049Y018390D01*
X001993Y018390D01*
X001879Y018334D01*
X001879Y018504D01*
X002106Y018504D01*
X003184Y021882D02*
X003524Y022108D01*
X003524Y022250D02*
X003524Y022477D01*
X003524Y022363D02*
X003184Y022363D01*
X003297Y022250D01*
X003184Y022108D02*
X003524Y021882D01*
X007363Y018447D02*
X007363Y018220D01*
X007420Y018163D01*
X007533Y018163D01*
X007590Y018220D01*
X007731Y018220D02*
X007788Y018163D01*
X007901Y018163D01*
X007958Y018220D01*
X007958Y018277D01*
X007901Y018334D01*
X007731Y018334D01*
X007731Y018220D01*
X007731Y018334D02*
X007845Y018447D01*
X007958Y018504D01*
X007590Y018447D02*
X007533Y018504D01*
X007420Y018504D01*
X007363Y018447D01*
X008898Y018504D02*
X008898Y018163D01*
X008898Y018277D02*
X009069Y018277D01*
X009125Y018334D01*
X009125Y018447D01*
X009069Y018504D01*
X008898Y018504D01*
X009012Y018277D02*
X009125Y018163D01*
X009267Y018334D02*
X009494Y018334D01*
X009437Y018504D02*
X009437Y018163D01*
X009267Y018334D02*
X009437Y018504D01*
X010237Y018447D02*
X010237Y018220D01*
X010294Y018163D01*
X010407Y018163D01*
X010464Y018220D01*
X010605Y018220D02*
X010662Y018163D01*
X010775Y018163D01*
X010832Y018220D01*
X010832Y018334D01*
X010775Y018390D01*
X010719Y018390D01*
X010605Y018334D01*
X010605Y018504D01*
X010832Y018504D01*
X010809Y018638D02*
X010922Y018638D01*
X010979Y018695D01*
X010979Y018979D01*
X011049Y019058D02*
X012149Y019058D01*
X012166Y019060D01*
X012183Y019064D01*
X012199Y019071D01*
X012213Y019081D01*
X012226Y019094D01*
X012236Y019108D01*
X012243Y019124D01*
X012247Y019141D01*
X012249Y019158D01*
X012249Y019758D01*
X012247Y019775D01*
X012243Y019792D01*
X012236Y019808D01*
X012226Y019822D01*
X012213Y019835D01*
X012199Y019845D01*
X012183Y019852D01*
X012166Y019856D01*
X012149Y019858D01*
X011049Y019858D01*
X011032Y019856D01*
X011015Y019852D01*
X010999Y019845D01*
X010985Y019835D01*
X010972Y019822D01*
X010962Y019808D01*
X010955Y019792D01*
X010951Y019775D01*
X010949Y019758D01*
X010949Y019158D01*
X010951Y019141D01*
X010955Y019124D01*
X010962Y019108D01*
X010972Y019094D01*
X010985Y019081D01*
X010999Y019071D01*
X011015Y019064D01*
X011032Y019060D01*
X011049Y019058D01*
X011120Y018979D02*
X011291Y018979D01*
X011347Y018922D01*
X011347Y018865D01*
X011291Y018808D01*
X011120Y018808D01*
X011120Y018638D02*
X011120Y018979D01*
X011291Y018808D02*
X011347Y018752D01*
X011347Y018695D01*
X011291Y018638D01*
X011120Y018638D01*
X010809Y018638D02*
X010752Y018695D01*
X010752Y018979D01*
X010407Y018504D02*
X010294Y018504D01*
X010237Y018447D01*
X010407Y018504D02*
X010464Y018447D01*
X011489Y018695D02*
X011545Y018638D01*
X011659Y018638D01*
X011716Y018695D01*
X011716Y018922D01*
X011659Y018979D01*
X011545Y018979D01*
X011489Y018922D01*
X011489Y018695D01*
X011857Y018695D02*
X011857Y018922D01*
X011914Y018979D01*
X012027Y018979D01*
X012084Y018922D01*
X012084Y018695D01*
X012027Y018638D01*
X011914Y018638D01*
X011857Y018695D01*
X012225Y018979D02*
X012452Y018979D01*
X012339Y018979D02*
X012339Y018638D01*
X009139Y019738D02*
X008912Y019738D01*
X009139Y019965D01*
X009139Y020022D01*
X009083Y020079D01*
X008969Y020079D01*
X008912Y020022D01*
X008771Y020022D02*
X008714Y020079D01*
X008601Y020079D01*
X008544Y020022D01*
X008544Y019795D01*
X008601Y019738D01*
X008714Y019738D01*
X008771Y019795D01*
X008600Y021813D02*
X008373Y021813D01*
X008486Y021813D02*
X008486Y022153D01*
X008373Y022040D01*
X008232Y022153D02*
X008005Y022153D01*
X008005Y021813D01*
X008005Y021983D02*
X008118Y021983D01*
X008282Y023032D02*
X008509Y023032D01*
X008651Y023032D02*
X008877Y023258D01*
X008877Y023315D01*
X008821Y023372D01*
X008707Y023372D01*
X008651Y023315D01*
X008509Y023315D02*
X008282Y023088D01*
X008282Y023032D01*
X008282Y023372D02*
X008509Y023372D01*
X008509Y023315D01*
X008651Y023032D02*
X008877Y023032D01*
X008877Y024213D02*
X008651Y024213D01*
X008764Y024213D02*
X008764Y024553D01*
X008651Y024440D01*
X008509Y024496D02*
X008282Y024269D01*
X008282Y024213D01*
X008509Y024213D01*
X008509Y024496D02*
X008509Y024553D01*
X008282Y024553D01*
X008320Y025320D02*
X008547Y025320D01*
X008688Y025320D02*
X008915Y025320D01*
X008801Y025320D02*
X008801Y025660D01*
X008688Y025547D01*
X008320Y025660D02*
X008320Y025320D01*
X009665Y025681D02*
X009665Y025851D01*
X009722Y025908D01*
X009836Y025908D01*
X009892Y025851D01*
X009892Y025681D01*
X009892Y025795D02*
X010006Y025908D01*
X010006Y026049D02*
X009665Y026276D01*
X009779Y026418D02*
X009665Y026531D01*
X010006Y026531D01*
X010006Y026418D02*
X010006Y026645D01*
X010006Y026276D02*
X009665Y026049D01*
X009665Y025681D02*
X010006Y025681D01*
X009895Y025512D02*
X009725Y025512D01*
X009725Y025171D01*
X009725Y025285D02*
X009895Y025285D01*
X009952Y025341D01*
X009952Y025455D01*
X009895Y025512D01*
X010094Y025398D02*
X010207Y025512D01*
X010207Y025171D01*
X010094Y025171D02*
X010320Y025171D01*
X010462Y025171D02*
X010689Y025171D01*
X010575Y025171D02*
X010575Y025512D01*
X010462Y025398D01*
X009952Y025171D02*
X009839Y025285D01*
X010602Y024296D02*
X010659Y024296D01*
X010716Y024239D01*
X010716Y024126D01*
X010659Y024069D01*
X010602Y024069D01*
X010545Y024126D01*
X010545Y024239D01*
X010602Y024296D01*
X010716Y024239D02*
X010772Y024296D01*
X010829Y024296D01*
X010886Y024239D01*
X010886Y024126D01*
X010829Y024069D01*
X010772Y024069D01*
X010716Y024126D01*
X010659Y023928D02*
X010602Y023928D01*
X010545Y023871D01*
X010545Y023758D01*
X010602Y023701D01*
X010602Y023560D02*
X010716Y023560D01*
X010772Y023503D01*
X010772Y023333D01*
X010772Y023446D02*
X010886Y023560D01*
X010886Y023701D02*
X010659Y023928D01*
X010886Y023928D02*
X010886Y023701D01*
X010602Y023560D02*
X010545Y023503D01*
X010545Y023333D01*
X010886Y023333D01*
X012514Y023530D02*
X012514Y023700D01*
X012571Y023756D01*
X012684Y023756D01*
X012741Y023700D01*
X012741Y023530D01*
X012741Y023643D02*
X012854Y023756D01*
X012854Y023898D02*
X012627Y024125D01*
X012571Y024125D01*
X012514Y024068D01*
X012514Y023955D01*
X012571Y023898D01*
X012854Y023898D02*
X012854Y024125D01*
X012854Y024266D02*
X012797Y024266D01*
X012571Y024493D01*
X012514Y024493D01*
X012514Y024266D01*
X012514Y023530D02*
X012854Y023530D01*
X012442Y027904D02*
X012215Y027904D01*
X012329Y027904D02*
X012329Y028244D01*
X012215Y028131D01*
X012074Y028187D02*
X012017Y028244D01*
X011904Y028244D01*
X011847Y028187D01*
X011847Y027961D01*
X011904Y027904D01*
X012017Y027904D01*
X012074Y027961D01*
X012074Y028074D01*
X011960Y028074D01*
X011706Y028244D02*
X011479Y028244D01*
X011479Y027904D01*
X011706Y027904D01*
X011592Y028074D02*
X011479Y028074D01*
X011337Y028074D02*
X011281Y028017D01*
X011110Y028017D01*
X011110Y027904D02*
X011110Y028244D01*
X011281Y028244D01*
X011337Y028187D01*
X011337Y028074D01*
X011224Y028017D02*
X011337Y027904D01*
X010969Y028017D02*
X010969Y028244D01*
X010969Y028017D02*
X010856Y027904D01*
X010742Y028017D01*
X010742Y028244D01*
X009990Y028218D02*
X009934Y028161D01*
X009990Y028218D02*
X009990Y028331D01*
X009934Y028388D01*
X009877Y028388D01*
X009820Y028331D01*
X009820Y028275D01*
X009820Y028331D02*
X009764Y028388D01*
X009707Y028388D01*
X009650Y028331D01*
X009650Y028218D01*
X009707Y028161D01*
X009707Y028020D02*
X009650Y027963D01*
X009650Y027849D01*
X009707Y027793D01*
X009934Y027793D01*
X009990Y027849D01*
X009990Y027963D01*
X009934Y028020D01*
X009990Y028529D02*
X009990Y028756D01*
X009990Y028643D02*
X009650Y028643D01*
X009764Y028529D01*
X009776Y029452D02*
X008776Y029452D01*
X008759Y029454D01*
X008742Y029458D01*
X008726Y029465D01*
X008712Y029475D01*
X008699Y029488D01*
X008689Y029502D01*
X008682Y029518D01*
X008678Y029535D01*
X008676Y029552D01*
X008676Y030152D01*
X008678Y030169D01*
X008682Y030186D01*
X008689Y030202D01*
X008699Y030216D01*
X008712Y030229D01*
X008726Y030239D01*
X008742Y030246D01*
X008759Y030250D01*
X008776Y030252D01*
X009776Y030252D01*
X009793Y030250D01*
X009810Y030246D01*
X009826Y030239D01*
X009840Y030229D01*
X009853Y030216D01*
X009863Y030202D01*
X009870Y030186D01*
X009874Y030169D01*
X009876Y030152D01*
X009876Y029552D01*
X009874Y029535D01*
X009870Y029518D01*
X009863Y029502D01*
X009853Y029488D01*
X009840Y029475D01*
X009826Y029465D01*
X009810Y029458D01*
X009793Y029454D01*
X009776Y029452D01*
X010059Y030183D02*
X010116Y030183D01*
X010173Y030239D01*
X010173Y030353D01*
X010229Y030409D01*
X010286Y030409D01*
X010343Y030353D01*
X010343Y030239D01*
X010286Y030183D01*
X010059Y030183D02*
X010002Y030239D01*
X010002Y030353D01*
X010059Y030409D01*
X009876Y030536D02*
X009876Y031136D01*
X009874Y031153D01*
X009870Y031170D01*
X009863Y031186D01*
X009853Y031200D01*
X009840Y031213D01*
X009826Y031223D01*
X009810Y031230D01*
X009793Y031234D01*
X009776Y031236D01*
X008776Y031236D01*
X008759Y031234D01*
X008742Y031230D01*
X008726Y031223D01*
X008712Y031213D01*
X008699Y031200D01*
X008689Y031186D01*
X008682Y031170D01*
X008678Y031153D01*
X008676Y031136D01*
X008676Y030536D01*
X008678Y030519D01*
X008682Y030502D01*
X008689Y030486D01*
X008699Y030472D01*
X008712Y030459D01*
X008726Y030449D01*
X008742Y030442D01*
X008759Y030438D01*
X008776Y030436D01*
X009776Y030436D01*
X009793Y030438D01*
X009810Y030442D01*
X009826Y030449D01*
X009840Y030459D01*
X009853Y030472D01*
X009863Y030486D01*
X009870Y030502D01*
X009874Y030519D01*
X009876Y030536D01*
X010002Y030664D02*
X010002Y030778D01*
X010002Y030721D02*
X010286Y030721D01*
X010343Y030664D01*
X010343Y030608D01*
X010286Y030551D01*
X010286Y030919D02*
X010343Y030976D01*
X010343Y031089D01*
X010286Y031146D01*
X010229Y031146D01*
X010173Y031089D01*
X010173Y031033D01*
X010173Y031089D02*
X010116Y031146D01*
X010059Y031146D01*
X010002Y031089D01*
X010002Y030976D01*
X010059Y030919D01*
X009973Y031690D02*
X010030Y031747D01*
X010030Y031861D01*
X009973Y031917D01*
X010030Y032059D02*
X009803Y032286D01*
X009746Y032286D01*
X009689Y032229D01*
X009689Y032115D01*
X009746Y032059D01*
X009746Y031917D02*
X009689Y031861D01*
X009689Y031747D01*
X009746Y031690D01*
X009973Y031690D01*
X010030Y032059D02*
X010030Y032286D01*
X009973Y032427D02*
X009916Y032427D01*
X009860Y032484D01*
X009860Y032597D01*
X009916Y032654D01*
X009973Y032654D01*
X010030Y032597D01*
X010030Y032484D01*
X009973Y032427D01*
X009860Y032484D02*
X009803Y032427D01*
X009746Y032427D01*
X009689Y032484D01*
X009689Y032597D01*
X009746Y032654D01*
X009803Y032654D01*
X009860Y032597D01*
X010953Y032378D02*
X010953Y032151D01*
X011066Y032038D01*
X011180Y032151D01*
X011180Y032378D01*
X011321Y032378D02*
X011491Y032378D01*
X011548Y032321D01*
X011548Y032208D01*
X011491Y032151D01*
X011321Y032151D01*
X011321Y032038D02*
X011321Y032378D01*
X011435Y032151D02*
X011548Y032038D01*
X011690Y032038D02*
X011916Y032038D01*
X012058Y032094D02*
X012115Y032038D01*
X012228Y032038D01*
X012285Y032094D01*
X012285Y032208D01*
X012171Y032208D01*
X012058Y032321D02*
X012058Y032094D01*
X012058Y032321D02*
X012115Y032378D01*
X012228Y032378D01*
X012285Y032321D01*
X011916Y032378D02*
X011690Y032378D01*
X011690Y032038D01*
X011690Y032208D02*
X011803Y032208D01*
X013262Y032523D02*
X013319Y032467D01*
X013546Y032467D01*
X013602Y032523D01*
X013602Y032637D01*
X013546Y032693D01*
X013602Y032835D02*
X013375Y033062D01*
X013319Y033062D01*
X013262Y033005D01*
X013262Y032892D01*
X013319Y032835D01*
X013319Y032693D02*
X013262Y032637D01*
X013262Y032523D01*
X013602Y032835D02*
X013602Y033062D01*
X013546Y033203D02*
X013602Y033260D01*
X013602Y033373D01*
X013546Y033430D01*
X013319Y033430D01*
X013262Y033373D01*
X013262Y033260D01*
X013319Y033203D01*
X013375Y033203D01*
X013432Y033260D01*
X013432Y033430D01*
X014782Y033348D02*
X014782Y033234D01*
X014838Y033178D01*
X015065Y033178D01*
X014838Y033404D01*
X015065Y033404D01*
X015122Y033348D01*
X015122Y033234D01*
X015065Y033178D01*
X015065Y033036D02*
X015122Y032979D01*
X015122Y032866D01*
X015065Y032809D01*
X015065Y032668D02*
X015122Y032611D01*
X015122Y032498D01*
X015065Y032441D01*
X014838Y032441D01*
X014782Y032498D01*
X014782Y032611D01*
X014838Y032668D01*
X014838Y032809D02*
X014782Y032866D01*
X014782Y032979D01*
X014838Y033036D01*
X014895Y033036D01*
X014952Y032979D01*
X015008Y033036D01*
X015065Y033036D01*
X014952Y032979D02*
X014952Y032923D01*
X014782Y033348D02*
X014838Y033404D01*
X017721Y032727D02*
X017721Y032614D01*
X017777Y032557D01*
X017777Y032416D02*
X017721Y032359D01*
X017721Y032246D01*
X017777Y032189D01*
X017834Y032189D01*
X017891Y032246D01*
X017891Y032359D01*
X017947Y032416D01*
X018004Y032416D01*
X018061Y032359D01*
X018061Y032246D01*
X018004Y032189D01*
X018061Y032557D02*
X017834Y032784D01*
X017777Y032784D01*
X017721Y032727D01*
X018061Y032784D02*
X018061Y032557D01*
X019017Y031142D02*
X019187Y031142D01*
X019243Y031085D01*
X019243Y030971D01*
X019187Y030915D01*
X019017Y030915D01*
X019130Y030915D02*
X019243Y030801D01*
X019385Y030858D02*
X019442Y030801D01*
X019555Y030801D01*
X019612Y030858D01*
X019612Y030915D01*
X019555Y030971D01*
X019385Y030971D01*
X019385Y030858D01*
X019385Y030971D02*
X019498Y031085D01*
X019612Y031142D01*
X019017Y031142D02*
X019017Y030801D01*
X018897Y030163D02*
X018953Y030106D01*
X018953Y029993D01*
X018897Y029936D01*
X018727Y029936D01*
X018840Y029936D02*
X018953Y029823D01*
X019095Y029823D02*
X019322Y030049D01*
X019322Y030106D01*
X019265Y030163D01*
X019152Y030163D01*
X019095Y030106D01*
X018897Y030163D02*
X018727Y030163D01*
X018727Y029823D01*
X019095Y029823D02*
X019322Y029823D01*
X019463Y029993D02*
X019633Y030163D01*
X019633Y029823D01*
X019690Y029993D02*
X019463Y029993D01*
X020631Y030101D02*
X020631Y029874D01*
X020687Y029817D01*
X020801Y029817D01*
X020858Y029874D01*
X020999Y029817D02*
X021226Y030044D01*
X021226Y030101D01*
X021169Y030157D01*
X021056Y030157D01*
X020999Y030101D01*
X020858Y030101D02*
X020801Y030157D01*
X020687Y030157D01*
X020631Y030101D01*
X020999Y029817D02*
X021226Y029817D01*
X021367Y029874D02*
X021424Y029817D01*
X021537Y029817D01*
X021594Y029874D01*
X021594Y029930D01*
X021537Y029987D01*
X021481Y029987D01*
X021537Y029987D02*
X021594Y030044D01*
X021594Y030101D01*
X021537Y030157D01*
X021424Y030157D01*
X021367Y030101D01*
X021754Y032189D02*
X021810Y032189D01*
X021867Y032246D01*
X021867Y032359D01*
X021924Y032416D01*
X021981Y032416D01*
X022037Y032359D01*
X022037Y032246D01*
X021981Y032189D01*
X021754Y032189D02*
X021697Y032246D01*
X021697Y032359D01*
X021754Y032416D01*
X021754Y032557D02*
X021697Y032614D01*
X021697Y032727D01*
X021754Y032784D01*
X021810Y032784D01*
X021867Y032727D01*
X021924Y032784D01*
X021981Y032784D01*
X022037Y032727D01*
X022037Y032614D01*
X021981Y032557D01*
X021867Y032671D02*
X021867Y032727D01*
X024207Y030162D02*
X024207Y029936D01*
X024377Y029936D01*
X024320Y030049D01*
X024320Y030106D01*
X024377Y030162D01*
X024490Y030162D01*
X024547Y030106D01*
X024547Y029992D01*
X024490Y029936D01*
X024547Y029794D02*
X024547Y029567D01*
X024320Y029794D01*
X024264Y029794D01*
X024207Y029737D01*
X024207Y029624D01*
X024264Y029567D01*
X024264Y029426D02*
X024207Y029369D01*
X024207Y029256D01*
X024264Y029199D01*
X024490Y029199D01*
X024547Y029256D01*
X024547Y029369D01*
X024490Y029426D01*
X024451Y028548D02*
X024508Y028491D01*
X024508Y028378D01*
X024451Y028321D01*
X024338Y028321D02*
X024281Y028435D01*
X024281Y028491D01*
X024338Y028548D01*
X024451Y028548D01*
X024338Y028321D02*
X024167Y028321D01*
X024167Y028548D01*
X024224Y028180D02*
X024167Y028123D01*
X024167Y028010D01*
X024224Y027953D01*
X024224Y027812D02*
X024338Y027812D01*
X024394Y027755D01*
X024394Y027585D01*
X024394Y027698D02*
X024508Y027812D01*
X024508Y027953D02*
X024281Y028180D01*
X024224Y028180D01*
X024508Y028180D02*
X024508Y027953D01*
X024224Y027812D02*
X024167Y027755D01*
X024167Y027585D01*
X024508Y027585D01*
X024338Y027170D02*
X024338Y026943D01*
X024167Y027114D01*
X024508Y027114D01*
X024508Y026802D02*
X024508Y026575D01*
X024281Y026802D01*
X024224Y026802D01*
X024167Y026745D01*
X024167Y026632D01*
X024224Y026575D01*
X024224Y026434D02*
X024167Y026377D01*
X024167Y026263D01*
X024224Y026207D01*
X024451Y026207D01*
X024508Y026263D01*
X024508Y026377D01*
X024451Y026434D01*
X026721Y027658D02*
X026777Y027658D01*
X026891Y027771D01*
X027061Y027771D01*
X026891Y027771D02*
X026777Y027884D01*
X026721Y027884D01*
X026891Y028026D02*
X026721Y028196D01*
X027061Y028196D01*
X026891Y028253D02*
X026891Y028026D01*
X027278Y027988D02*
X027618Y027988D01*
X027618Y028101D02*
X027618Y027874D01*
X027618Y027733D02*
X027505Y027619D01*
X027505Y027676D02*
X027505Y027506D01*
X027618Y027506D02*
X027278Y027506D01*
X027278Y027676D01*
X027334Y027733D01*
X027448Y027733D01*
X027505Y027676D01*
X027391Y027874D02*
X027278Y027988D01*
X027278Y028243D02*
X027278Y028469D01*
X027334Y028469D01*
X027561Y028243D01*
X027618Y028243D01*
X027561Y029041D02*
X027334Y029041D01*
X027278Y029098D01*
X027278Y029212D01*
X027334Y029268D01*
X027391Y029410D02*
X027278Y029523D01*
X027618Y029523D01*
X027618Y029410D02*
X027618Y029637D01*
X027561Y029778D02*
X027618Y029835D01*
X027618Y029948D01*
X027561Y030005D01*
X027448Y030005D01*
X027391Y029948D01*
X027391Y029891D01*
X027448Y029778D01*
X027278Y029778D01*
X027278Y030005D01*
X027561Y029268D02*
X027618Y029212D01*
X027618Y029098D01*
X027561Y029041D01*
X027544Y027131D02*
X027487Y027074D01*
X027487Y026904D01*
X027601Y026904D01*
X027657Y026961D01*
X027657Y027074D01*
X027601Y027131D01*
X027544Y027131D01*
X027374Y027017D02*
X027317Y027131D01*
X027374Y027017D02*
X027487Y026904D01*
X027657Y026763D02*
X027657Y026536D01*
X027657Y026649D02*
X027317Y026649D01*
X027430Y026536D01*
X027374Y026394D02*
X027317Y026338D01*
X027317Y026224D01*
X027374Y026167D01*
X027601Y026167D01*
X027657Y026224D01*
X027657Y026338D01*
X027601Y026394D01*
X030034Y027905D02*
X030091Y027905D01*
X030204Y028019D01*
X030374Y028019D01*
X030204Y028019D02*
X030091Y028132D01*
X030034Y028132D01*
X030091Y028274D02*
X030034Y028330D01*
X030034Y028444D01*
X030091Y028500D01*
X030147Y028500D01*
X030374Y028274D01*
X030374Y028500D01*
X031479Y027527D02*
X031479Y030147D01*
X031618Y030287D01*
X034239Y030287D01*
X034239Y027527D01*
X031479Y027527D01*
X030919Y026484D02*
X030919Y026257D01*
X030692Y026484D01*
X030635Y026484D01*
X030579Y026427D01*
X030579Y026314D01*
X030635Y026257D01*
X030635Y026116D02*
X030862Y026116D01*
X030919Y026059D01*
X030919Y025946D01*
X030862Y025889D01*
X030635Y025889D01*
X030579Y025946D01*
X030579Y026059D01*
X030635Y026116D01*
X030805Y026002D02*
X030919Y026116D01*
X030321Y023455D02*
X030548Y023228D01*
X030605Y023228D01*
X030605Y023087D02*
X030491Y022973D01*
X030491Y023030D02*
X030491Y022860D01*
X030605Y022860D02*
X030264Y022860D01*
X030264Y023030D01*
X030321Y023087D01*
X030434Y023087D01*
X030491Y023030D01*
X030264Y023228D02*
X030264Y023455D01*
X030321Y023455D01*
X029660Y023398D02*
X029660Y023285D01*
X029603Y023228D01*
X029546Y023228D01*
X029490Y023285D01*
X029490Y023398D01*
X029546Y023455D01*
X029603Y023455D01*
X029660Y023398D01*
X029490Y023398D02*
X029433Y023455D01*
X029376Y023455D01*
X029319Y023398D01*
X029319Y023285D01*
X029376Y023228D01*
X029433Y023228D01*
X029490Y023285D01*
X029490Y023087D02*
X029546Y023030D01*
X029546Y022860D01*
X029546Y022973D02*
X029660Y023087D01*
X029490Y023087D02*
X029376Y023087D01*
X029319Y023030D01*
X029319Y022860D01*
X029660Y022860D01*
X028636Y022860D02*
X028296Y022860D01*
X028296Y023030D01*
X028353Y023087D01*
X028466Y023087D01*
X028523Y023030D01*
X028523Y022860D01*
X028523Y022973D02*
X028636Y023087D01*
X028579Y023228D02*
X028636Y023285D01*
X028636Y023398D01*
X028579Y023455D01*
X028353Y023455D01*
X028296Y023398D01*
X028296Y023285D01*
X028353Y023228D01*
X028409Y023228D01*
X028466Y023285D01*
X028466Y023455D01*
X032160Y022651D02*
X032216Y022707D01*
X032273Y022707D01*
X032330Y022651D01*
X032386Y022707D01*
X032443Y022707D01*
X032500Y022651D01*
X032500Y022537D01*
X032443Y022481D01*
X032443Y022339D02*
X032500Y022282D01*
X032500Y022169D01*
X032443Y022112D01*
X032216Y022112D01*
X032160Y022169D01*
X032160Y022282D01*
X032216Y022339D01*
X032216Y022481D02*
X032160Y022537D01*
X032160Y022651D01*
X032330Y022651D02*
X032330Y022594D01*
X034296Y021928D02*
X034466Y021758D01*
X034466Y021985D01*
X034636Y021928D02*
X034296Y021928D01*
X034353Y021616D02*
X034296Y021560D01*
X034296Y021446D01*
X034353Y021389D01*
X034579Y021389D01*
X034636Y021446D01*
X034636Y021560D01*
X034579Y021616D01*
X033627Y020415D02*
X033513Y020415D01*
X033457Y020359D01*
X033315Y020359D02*
X033259Y020415D01*
X033145Y020415D01*
X033088Y020359D01*
X033088Y020132D01*
X033145Y020075D01*
X033259Y020075D01*
X033315Y020132D01*
X033457Y020075D02*
X033684Y020302D01*
X033684Y020359D01*
X033627Y020415D01*
X033684Y020075D02*
X033457Y020075D01*
X032956Y020075D02*
X032843Y020075D01*
X032900Y020075D02*
X032900Y020415D01*
X032956Y020415D02*
X032843Y020415D01*
X034414Y017573D02*
X034357Y017516D01*
X034357Y017459D01*
X034414Y017402D01*
X034527Y017402D01*
X034584Y017346D01*
X034584Y017289D01*
X034527Y017232D01*
X034414Y017232D01*
X034357Y017289D01*
X034327Y017102D02*
X035327Y017102D01*
X035344Y017100D01*
X035361Y017096D01*
X035377Y017089D01*
X035391Y017079D01*
X035404Y017066D01*
X035414Y017052D01*
X035421Y017036D01*
X035425Y017019D01*
X035427Y017002D01*
X035427Y016402D01*
X035425Y016385D01*
X035421Y016368D01*
X035414Y016352D01*
X035404Y016338D01*
X035391Y016325D01*
X035377Y016315D01*
X035361Y016308D01*
X035344Y016304D01*
X035327Y016302D01*
X034327Y016302D01*
X034310Y016304D01*
X034293Y016308D01*
X034277Y016315D01*
X034263Y016325D01*
X034250Y016338D01*
X034240Y016352D01*
X034233Y016368D01*
X034229Y016385D01*
X034227Y016402D01*
X034227Y017002D01*
X034229Y017019D01*
X034233Y017036D01*
X034240Y017052D01*
X034250Y017066D01*
X034263Y017079D01*
X034277Y017089D01*
X034293Y017096D01*
X034310Y017100D01*
X034327Y017102D01*
X034725Y017289D02*
X034782Y017232D01*
X034839Y017232D01*
X034896Y017289D01*
X034896Y017573D01*
X034952Y017573D02*
X034839Y017573D01*
X035094Y017516D02*
X035150Y017573D01*
X035264Y017573D01*
X035321Y017516D01*
X035321Y017459D01*
X035094Y017232D01*
X035321Y017232D01*
X034584Y017516D02*
X034527Y017573D01*
X034414Y017573D01*
X034568Y016142D02*
X034738Y016142D01*
X034795Y016085D01*
X034795Y015971D01*
X034738Y015915D01*
X034568Y015915D01*
X034681Y015915D02*
X034795Y015801D01*
X034936Y015801D02*
X035163Y015801D01*
X035049Y015801D02*
X035049Y016142D01*
X034936Y016028D01*
X035304Y016085D02*
X035361Y016142D01*
X035474Y016142D01*
X035531Y016085D01*
X035531Y016028D01*
X035474Y015971D01*
X035531Y015915D01*
X035531Y015858D01*
X035474Y015801D01*
X035361Y015801D01*
X035304Y015858D01*
X035418Y015971D02*
X035474Y015971D01*
X036196Y016402D02*
X036196Y017002D01*
X036198Y017019D01*
X036202Y017036D01*
X036209Y017052D01*
X036219Y017066D01*
X036232Y017079D01*
X036246Y017089D01*
X036262Y017096D01*
X036279Y017100D01*
X036296Y017102D01*
X037296Y017102D01*
X037313Y017100D01*
X037330Y017096D01*
X037346Y017089D01*
X037360Y017079D01*
X037373Y017066D01*
X037383Y017052D01*
X037390Y017036D01*
X037394Y017019D01*
X037396Y017002D01*
X037396Y016402D01*
X037394Y016385D01*
X037390Y016368D01*
X037383Y016352D01*
X037373Y016338D01*
X037360Y016325D01*
X037346Y016315D01*
X037330Y016308D01*
X037313Y016304D01*
X037296Y016302D01*
X036296Y016302D01*
X036279Y016304D01*
X036262Y016308D01*
X036246Y016315D01*
X036232Y016325D01*
X036219Y016338D01*
X036209Y016352D01*
X036202Y016368D01*
X036198Y016385D01*
X036196Y016402D01*
X036576Y016142D02*
X036746Y016142D01*
X036802Y016085D01*
X036802Y015971D01*
X036746Y015915D01*
X036576Y015915D01*
X036689Y015915D02*
X036802Y015801D01*
X036944Y015801D02*
X037171Y015801D01*
X037057Y015801D02*
X037057Y016142D01*
X036944Y016028D01*
X037312Y016085D02*
X037312Y015858D01*
X037539Y016085D01*
X037539Y015858D01*
X037482Y015801D01*
X037369Y015801D01*
X037312Y015858D01*
X037312Y016085D02*
X037369Y016142D01*
X037482Y016142D01*
X037539Y016085D01*
X036576Y016142D02*
X036576Y015801D01*
X036554Y015000D02*
X036497Y014943D01*
X036497Y014716D01*
X036554Y014660D01*
X036667Y014660D01*
X036724Y014716D01*
X036865Y014660D02*
X037092Y014660D01*
X036979Y014660D02*
X036979Y015000D01*
X036865Y014886D01*
X036724Y014943D02*
X036667Y015000D01*
X036554Y015000D01*
X037233Y014886D02*
X037347Y015000D01*
X037347Y014660D01*
X037460Y014660D02*
X037233Y014660D01*
X035492Y014869D02*
X035265Y014869D01*
X035435Y015039D01*
X035435Y014699D01*
X035124Y014699D02*
X034897Y014699D01*
X035010Y014699D02*
X035010Y015039D01*
X034897Y014926D01*
X034755Y014982D02*
X034755Y014869D01*
X034698Y014812D01*
X034528Y014812D01*
X034528Y014699D02*
X034528Y015039D01*
X034698Y015039D01*
X034755Y014982D01*
X034642Y014812D02*
X034755Y014699D01*
X034568Y015801D02*
X034568Y016142D01*
X033506Y014960D02*
X033393Y014960D01*
X033336Y014904D01*
X033506Y014960D02*
X033563Y014904D01*
X033563Y014847D01*
X033336Y014620D01*
X033563Y014620D01*
X033194Y014620D02*
X032968Y014620D01*
X033081Y014620D02*
X033081Y014960D01*
X032968Y014847D01*
X032826Y014904D02*
X032769Y014960D01*
X032656Y014960D01*
X032599Y014904D01*
X032599Y014677D01*
X032656Y014620D01*
X032769Y014620D01*
X032826Y014677D01*
X036432Y012636D02*
X036488Y012693D01*
X036545Y012693D01*
X036602Y012636D01*
X036658Y012693D01*
X036715Y012693D01*
X036772Y012636D01*
X036772Y012523D01*
X036715Y012466D01*
X036715Y012325D02*
X036772Y012268D01*
X036772Y012155D01*
X036715Y012098D01*
X036488Y012098D01*
X036432Y012155D01*
X036432Y012268D01*
X036488Y012325D01*
X036488Y012466D02*
X036432Y012523D01*
X036432Y012636D01*
X036602Y012636D02*
X036602Y012580D01*
X036876Y012613D02*
X037046Y012613D01*
X037103Y012670D01*
X037103Y012783D01*
X037046Y012840D01*
X036876Y012840D01*
X036876Y012500D01*
X036990Y012613D02*
X037103Y012500D01*
X037244Y012500D02*
X037471Y012727D01*
X037471Y012783D01*
X037415Y012840D01*
X037301Y012840D01*
X037244Y012783D01*
X037244Y012500D02*
X037471Y012500D01*
X037613Y012556D02*
X037840Y012783D01*
X037840Y012556D01*
X037783Y012500D01*
X037669Y012500D01*
X037613Y012556D01*
X037613Y012783D01*
X037669Y012840D01*
X037783Y012840D01*
X037840Y012783D01*
X037788Y011895D02*
X037901Y011895D01*
X037958Y011838D01*
X037958Y011782D01*
X037901Y011725D01*
X037958Y011668D01*
X037958Y011611D01*
X037901Y011555D01*
X037788Y011555D01*
X037731Y011611D01*
X037589Y011555D02*
X037363Y011555D01*
X037476Y011555D02*
X037476Y011895D01*
X037363Y011782D01*
X037221Y011838D02*
X037164Y011895D01*
X037051Y011895D01*
X036994Y011838D01*
X036994Y011611D01*
X037051Y011555D01*
X037164Y011555D01*
X037221Y011611D01*
X036772Y011853D02*
X036772Y011966D01*
X036772Y011909D02*
X036432Y011909D01*
X036432Y011853D02*
X036432Y011966D01*
X036916Y010871D02*
X037086Y010871D01*
X037142Y010815D01*
X037142Y010701D01*
X037086Y010645D01*
X036916Y010645D01*
X037029Y010645D02*
X037142Y010531D01*
X037284Y010531D02*
X037511Y010758D01*
X037511Y010815D01*
X037454Y010871D01*
X037341Y010871D01*
X037284Y010815D01*
X037284Y010531D02*
X037511Y010531D01*
X037652Y010531D02*
X037879Y010758D01*
X037879Y010815D01*
X037822Y010871D01*
X037709Y010871D01*
X037652Y010815D01*
X037652Y010531D02*
X037879Y010531D01*
X036916Y010531D02*
X036916Y010871D01*
X037844Y011725D02*
X037901Y011725D01*
X037731Y011838D02*
X037788Y011895D01*
X037708Y009596D02*
X037481Y009596D01*
X037708Y009596D02*
X037708Y009539D01*
X037481Y009312D01*
X037481Y009256D01*
X037339Y009256D02*
X037113Y009256D01*
X037226Y009256D02*
X037226Y009596D01*
X037113Y009482D01*
X036971Y009539D02*
X036914Y009596D01*
X036801Y009596D01*
X036744Y009539D01*
X036744Y009312D01*
X036801Y009256D01*
X036914Y009256D01*
X036971Y009312D01*
X037731Y008485D02*
X037731Y008258D01*
X038071Y008258D01*
X038071Y008485D01*
X037901Y008371D02*
X037901Y008258D01*
X037731Y008116D02*
X038071Y008116D01*
X038071Y007889D02*
X037731Y007889D01*
X037844Y008003D01*
X037731Y008116D01*
X037731Y007748D02*
X038014Y007748D01*
X038071Y007691D01*
X038071Y007578D01*
X038014Y007521D01*
X037731Y007521D01*
X037731Y007153D02*
X038071Y007153D01*
X038071Y007380D01*
X038014Y007011D02*
X037788Y007011D01*
X037731Y006955D01*
X037731Y006841D01*
X037788Y006784D01*
X038014Y006784D01*
X038071Y006841D01*
X038071Y006955D01*
X038014Y007011D01*
X037958Y006643D02*
X037731Y006643D01*
X037958Y006643D02*
X038071Y006530D01*
X037958Y006416D01*
X037731Y006416D01*
X034296Y009407D02*
X034240Y009350D01*
X034126Y009350D01*
X034069Y009407D01*
X033928Y009350D02*
X033701Y009350D01*
X033928Y009577D01*
X033928Y009634D01*
X033871Y009690D01*
X033758Y009690D01*
X033701Y009634D01*
X033560Y009634D02*
X033560Y009520D01*
X033503Y009464D01*
X033333Y009464D01*
X033446Y009464D02*
X033560Y009350D01*
X033333Y009350D02*
X033333Y009690D01*
X033503Y009690D01*
X033560Y009634D01*
X034069Y009634D02*
X034126Y009690D01*
X034240Y009690D01*
X034296Y009634D01*
X034296Y009577D01*
X034240Y009520D01*
X034296Y009464D01*
X034296Y009407D01*
X034240Y009520D02*
X034183Y009520D01*
X034046Y010374D02*
X033819Y010374D01*
X033933Y010374D02*
X033933Y010714D01*
X033819Y010601D01*
X033678Y010657D02*
X033621Y010714D01*
X033508Y010714D01*
X033451Y010657D01*
X033451Y010430D01*
X033508Y010374D01*
X033621Y010374D01*
X033678Y010430D01*
X034188Y010544D02*
X034414Y010544D01*
X034358Y010714D02*
X034188Y010544D01*
X034358Y010374D02*
X034358Y010714D01*
X034375Y011319D02*
X034148Y011319D01*
X034262Y011319D02*
X034262Y011659D01*
X034148Y011545D01*
X034007Y011545D02*
X033780Y011319D01*
X034007Y011319D01*
X034007Y011545D02*
X034007Y011602D01*
X033950Y011659D01*
X033837Y011659D01*
X033780Y011602D01*
X033638Y011602D02*
X033638Y011489D01*
X033582Y011432D01*
X033412Y011432D01*
X033525Y011432D02*
X033638Y011319D01*
X033412Y011319D02*
X033412Y011659D01*
X033582Y011659D01*
X033638Y011602D01*
X028917Y014238D02*
X028917Y014465D01*
X028917Y014352D02*
X028577Y014352D01*
X028690Y014238D01*
X028747Y014607D02*
X028690Y014720D01*
X028690Y014777D01*
X028747Y014833D01*
X028860Y014833D01*
X028917Y014777D01*
X028917Y014663D01*
X028860Y014607D01*
X028747Y014607D02*
X028577Y014607D01*
X028577Y014833D01*
X028577Y014975D02*
X028917Y014975D01*
X028804Y014975D02*
X028577Y015202D01*
X028747Y015032D02*
X028917Y015202D01*
X027775Y015241D02*
X027605Y015071D01*
X027662Y015014D02*
X027435Y015241D01*
X027435Y015014D02*
X027775Y015014D01*
X027775Y014873D02*
X027775Y014646D01*
X027549Y014873D01*
X027492Y014873D01*
X027435Y014816D01*
X027435Y014703D01*
X027492Y014646D01*
X027492Y014504D02*
X027435Y014448D01*
X027435Y014334D01*
X027492Y014278D01*
X027492Y014504D02*
X027549Y014504D01*
X027775Y014278D01*
X027775Y014504D01*
X026555Y014448D02*
X026498Y014504D01*
X026555Y014448D02*
X026555Y014334D01*
X026498Y014278D01*
X026271Y014278D01*
X026215Y014334D01*
X026215Y014448D01*
X026271Y014504D01*
X026271Y014646D02*
X026215Y014703D01*
X026215Y014816D01*
X026271Y014873D01*
X026328Y014873D01*
X026555Y014646D01*
X026555Y014873D01*
X026555Y015014D02*
X026498Y015014D01*
X026271Y015241D01*
X026215Y015241D01*
X026215Y015014D01*
X024085Y012978D02*
X023585Y012978D01*
X023335Y012728D01*
X023335Y011228D01*
X023585Y010978D01*
X024085Y010978D01*
X024335Y011228D01*
X024335Y012728D01*
X024085Y012978D01*
X023335Y012728D02*
X023085Y012978D01*
X022585Y012978D01*
X022335Y012728D01*
X022335Y011228D01*
X022585Y010978D01*
X023085Y010978D01*
X023335Y011228D01*
X022335Y011228D02*
X022085Y010978D01*
X021585Y010978D01*
X021335Y011228D01*
X021335Y012728D01*
X021585Y012978D01*
X022085Y012978D01*
X022335Y012728D01*
X021335Y012728D02*
X021085Y012978D01*
X020585Y012978D01*
X020335Y012728D01*
X020335Y011228D01*
X020585Y010978D01*
X021085Y010978D01*
X021335Y011228D01*
X020335Y011228D02*
X020085Y010978D01*
X019585Y010978D01*
X019335Y011228D01*
X019335Y012728D01*
X019585Y012978D01*
X020085Y012978D01*
X020335Y012728D01*
X020116Y014628D02*
X019616Y014628D01*
X019366Y014878D01*
X019366Y015378D01*
X019616Y015628D01*
X020116Y015628D01*
X020366Y015378D01*
X020366Y014878D01*
X020116Y014628D01*
X020587Y014780D02*
X020587Y014894D01*
X020587Y014837D02*
X020871Y014837D01*
X020927Y014780D01*
X020927Y014724D01*
X020871Y014667D01*
X020927Y015035D02*
X020587Y015035D01*
X020587Y015205D01*
X020644Y015262D01*
X020757Y015262D01*
X020814Y015205D01*
X020814Y015035D01*
X020757Y015404D02*
X020587Y015574D01*
X020927Y015574D01*
X020757Y015630D02*
X020757Y015404D01*
X018065Y013817D02*
X017838Y013590D01*
X017894Y013534D01*
X018008Y013534D01*
X018065Y013590D01*
X018065Y013817D01*
X018008Y013874D01*
X017894Y013874D01*
X017838Y013817D01*
X017838Y013590D01*
X017696Y013534D02*
X017469Y013534D01*
X017583Y013534D02*
X017583Y013874D01*
X017469Y013760D01*
X017328Y013817D02*
X017271Y013874D01*
X017158Y013874D01*
X017101Y013817D01*
X017101Y013590D01*
X017158Y013534D01*
X017271Y013534D01*
X017328Y013590D01*
X017258Y015486D02*
X017314Y015543D01*
X017258Y015486D02*
X017144Y015486D01*
X017087Y015543D01*
X017087Y015770D01*
X017144Y015827D01*
X017258Y015827D01*
X017314Y015770D01*
X017456Y015770D02*
X017456Y015713D01*
X017512Y015656D01*
X017683Y015656D01*
X017683Y015543D02*
X017683Y015770D01*
X017626Y015827D01*
X017512Y015827D01*
X017456Y015770D01*
X017456Y015543D02*
X017512Y015486D01*
X017626Y015486D01*
X017683Y015543D01*
X012918Y013216D02*
X012918Y013160D01*
X012692Y012933D01*
X012918Y012933D01*
X012918Y013216D02*
X012862Y013273D01*
X012748Y013273D01*
X012692Y013216D01*
X012550Y013216D02*
X012550Y013103D01*
X012493Y013046D01*
X012323Y013046D01*
X012323Y012933D02*
X012323Y013273D01*
X012493Y013273D01*
X012550Y013216D01*
X012437Y013046D02*
X012550Y012933D01*
X012493Y012092D02*
X012550Y012035D01*
X012550Y011922D01*
X012493Y011865D01*
X012323Y011865D01*
X012323Y011752D02*
X012323Y012092D01*
X012493Y012092D01*
X012692Y012035D02*
X012748Y012092D01*
X012862Y012092D01*
X012918Y012035D01*
X012918Y011979D01*
X012862Y011922D01*
X012918Y011865D01*
X012918Y011808D01*
X012862Y011752D01*
X012748Y011752D01*
X012692Y011808D01*
X012550Y011752D02*
X012437Y011865D01*
X012805Y011922D02*
X012862Y011922D01*
X010793Y010236D02*
X010566Y010236D01*
X010566Y010066D01*
X010679Y010123D01*
X010736Y010123D01*
X010793Y010066D01*
X010793Y009952D01*
X010736Y009896D01*
X010623Y009896D01*
X010566Y009952D01*
X010424Y009896D02*
X010311Y010009D01*
X010368Y010009D02*
X010198Y010009D01*
X010198Y009896D02*
X010198Y010236D01*
X010368Y010236D01*
X010424Y010179D01*
X010424Y010066D01*
X010368Y010009D01*
X008150Y008524D02*
X008150Y008297D01*
X008150Y008411D02*
X007810Y008411D01*
X007923Y008297D01*
X007810Y008156D02*
X007810Y007929D01*
X008150Y007929D01*
X008150Y008156D01*
X007980Y008042D02*
X007980Y007929D01*
X007810Y007787D02*
X008150Y007787D01*
X008150Y007560D02*
X007810Y007560D01*
X007923Y007674D01*
X007810Y007787D01*
X007810Y007419D02*
X008093Y007419D01*
X008150Y007362D01*
X008150Y007249D01*
X008093Y007192D01*
X007810Y007192D01*
X008150Y007051D02*
X008150Y006824D01*
X007810Y006824D01*
X007866Y006682D02*
X007810Y006626D01*
X007810Y006512D01*
X007866Y006456D01*
X008093Y006456D01*
X008150Y006512D01*
X008150Y006626D01*
X008093Y006682D01*
X007866Y006682D01*
X007810Y006314D02*
X008036Y006314D01*
X008150Y006201D01*
X008036Y006087D01*
X007810Y006087D01*
X013361Y006166D02*
X013588Y006166D01*
X013701Y006279D01*
X013588Y006393D01*
X013361Y006393D01*
X013417Y006534D02*
X013361Y006591D01*
X013361Y006704D01*
X013417Y006761D01*
X013644Y006761D01*
X013701Y006704D01*
X013701Y006591D01*
X013644Y006534D01*
X013417Y006534D01*
X013361Y006903D02*
X013701Y006903D01*
X013701Y007129D01*
X013644Y007271D02*
X013701Y007328D01*
X013701Y007441D01*
X013644Y007498D01*
X013361Y007498D01*
X013361Y007639D02*
X013474Y007753D01*
X013361Y007866D01*
X013701Y007866D01*
X013701Y008008D02*
X013361Y008008D01*
X013361Y008234D01*
X013417Y008376D02*
X013361Y008433D01*
X013361Y008546D01*
X013417Y008603D01*
X013474Y008603D01*
X013531Y008546D01*
X013588Y008603D01*
X013644Y008603D01*
X013701Y008546D01*
X013701Y008433D01*
X013644Y008376D01*
X013701Y008234D02*
X013701Y008008D01*
X013531Y008008D02*
X013531Y008121D01*
X013531Y008489D02*
X013531Y008546D01*
X013701Y007639D02*
X013361Y007639D01*
X013361Y007271D02*
X013644Y007271D01*
X018873Y007310D02*
X019156Y007310D01*
X019213Y007367D01*
X019213Y007480D01*
X019156Y007537D01*
X018873Y007537D01*
X018873Y007679D02*
X018986Y007792D01*
X018873Y007905D01*
X019213Y007905D01*
X019213Y008047D02*
X018873Y008047D01*
X018873Y008274D01*
X018929Y008415D02*
X018873Y008472D01*
X018873Y008585D01*
X018929Y008642D01*
X018986Y008642D01*
X019213Y008415D01*
X019213Y008642D01*
X019213Y008274D02*
X019213Y008047D01*
X019043Y008047D02*
X019043Y008160D01*
X019213Y007679D02*
X018873Y007679D01*
X019213Y007169D02*
X019213Y006942D01*
X018873Y006942D01*
X018929Y006801D02*
X018873Y006744D01*
X018873Y006630D01*
X018929Y006574D01*
X019156Y006574D01*
X019213Y006630D01*
X019213Y006744D01*
X019156Y006801D01*
X018929Y006801D01*
X018873Y006432D02*
X019099Y006432D01*
X019213Y006319D01*
X019099Y006205D01*
X018873Y006205D01*
X024384Y006205D02*
X024611Y006205D01*
X024725Y006319D01*
X024611Y006432D01*
X024384Y006432D01*
X024441Y006574D02*
X024668Y006574D01*
X024725Y006630D01*
X024725Y006744D01*
X024668Y006801D01*
X024441Y006801D01*
X024384Y006744D01*
X024384Y006630D01*
X024441Y006574D01*
X024384Y006942D02*
X024725Y006942D01*
X024725Y007169D01*
X024668Y007310D02*
X024725Y007367D01*
X024725Y007480D01*
X024668Y007537D01*
X024384Y007537D01*
X024384Y007679D02*
X024498Y007792D01*
X024384Y007905D01*
X024725Y007905D01*
X024725Y008047D02*
X024384Y008047D01*
X024384Y008274D01*
X024555Y008160D02*
X024555Y008047D01*
X024725Y008047D02*
X024725Y008274D01*
X024555Y008415D02*
X024555Y008642D01*
X024725Y008585D02*
X024384Y008585D01*
X024555Y008415D01*
X024725Y007679D02*
X024384Y007679D01*
X024384Y007310D02*
X024668Y007310D01*
X028452Y006734D02*
X028508Y006677D01*
X028565Y006677D01*
X028622Y006734D01*
X028622Y007018D01*
X028678Y007018D02*
X028565Y007018D01*
X028820Y006847D02*
X029047Y006847D01*
X029188Y006847D02*
X029415Y006847D01*
X029556Y006847D02*
X029783Y006847D01*
X029783Y006904D02*
X029783Y006677D01*
X029925Y006734D02*
X029981Y006677D01*
X030095Y006677D01*
X030152Y006734D01*
X030152Y007018D01*
X030293Y007018D02*
X030463Y007018D01*
X030520Y006961D01*
X030520Y006734D01*
X030463Y006677D01*
X030293Y006677D01*
X030293Y007018D01*
X029925Y007018D02*
X029925Y006734D01*
X029783Y006904D02*
X029670Y007018D01*
X029556Y006904D01*
X029556Y006677D01*
X028990Y006677D02*
X028990Y007018D01*
X028820Y006847D01*
X030661Y006677D02*
X030775Y006677D01*
X030718Y006677D02*
X030718Y007018D01*
X030661Y007018D02*
X030775Y007018D01*
X030907Y006961D02*
X030907Y006734D01*
X030964Y006677D01*
X031077Y006677D01*
X031134Y006734D01*
X031134Y006961D01*
X031077Y007018D01*
X030964Y007018D01*
X030907Y006961D01*
X024846Y011218D02*
X024846Y011275D01*
X024790Y011332D01*
X024506Y011332D01*
X024506Y011388D02*
X024506Y011275D01*
X024506Y011530D02*
X024506Y011700D01*
X024563Y011757D01*
X024676Y011757D01*
X024733Y011700D01*
X024733Y011530D01*
X024846Y011530D02*
X024506Y011530D01*
X024619Y011898D02*
X024506Y012012D01*
X024846Y012012D01*
X024846Y012125D02*
X024846Y011898D01*
X024846Y011218D02*
X024790Y011161D01*
X036181Y017306D02*
X036238Y017250D01*
X036351Y017250D01*
X036408Y017306D01*
X036408Y017363D01*
X036351Y017420D01*
X036238Y017420D01*
X036181Y017477D01*
X036181Y017533D01*
X036238Y017590D01*
X036351Y017590D01*
X036408Y017533D01*
X036663Y017590D02*
X036776Y017590D01*
X036720Y017590D02*
X036720Y017306D01*
X036663Y017250D01*
X036606Y017250D01*
X036550Y017306D01*
X036918Y017250D02*
X037145Y017250D01*
X037031Y017250D02*
X037031Y017590D01*
X036918Y017477D01*
X036673Y019396D02*
X036333Y019396D01*
X036333Y019566D01*
X036390Y019623D01*
X036503Y019623D01*
X036560Y019566D01*
X036560Y019396D01*
X036560Y019509D02*
X036673Y019623D01*
X036673Y019764D02*
X036673Y019991D01*
X036673Y019877D02*
X036333Y019877D01*
X036446Y019764D01*
X037351Y019728D02*
X037408Y019671D01*
X037634Y019671D01*
X037691Y019728D01*
X037691Y019841D01*
X037634Y019898D01*
X037691Y020039D02*
X037691Y020266D01*
X037691Y020153D02*
X037351Y020153D01*
X037464Y020039D01*
X037408Y019898D02*
X037351Y019841D01*
X037351Y019728D01*
X039721Y019731D02*
X040175Y019731D01*
X040118Y019674D02*
X040118Y019788D01*
X040062Y019845D01*
X040005Y019845D01*
X039948Y019788D01*
X039948Y019674D01*
X039891Y019618D01*
X039835Y019618D01*
X039778Y019674D01*
X039778Y019788D01*
X039835Y019845D01*
X039891Y019986D02*
X039778Y020100D01*
X040118Y020100D01*
X040118Y020213D02*
X040118Y019986D01*
X040118Y019674D02*
X040062Y019618D01*
X040062Y019476D02*
X039778Y019476D01*
X039778Y019249D02*
X040062Y019249D01*
X040118Y019306D01*
X040118Y019420D01*
X040062Y019476D01*
X038180Y023823D02*
X037953Y023823D01*
X038067Y023823D02*
X038067Y024163D01*
X037953Y024049D01*
X037812Y024049D02*
X037812Y024106D01*
X037755Y024163D01*
X037642Y024163D01*
X037585Y024106D01*
X037444Y024106D02*
X037387Y024163D01*
X037273Y024163D01*
X037217Y024106D01*
X037217Y023879D01*
X037273Y023823D01*
X037387Y023823D01*
X037444Y023879D01*
X037585Y023823D02*
X037812Y024049D01*
X037812Y023823D02*
X037585Y023823D01*
X037558Y025452D02*
X037615Y025509D01*
X037558Y025452D02*
X037445Y025452D01*
X037388Y025509D01*
X037388Y025736D01*
X037445Y025793D01*
X037558Y025793D01*
X037615Y025736D01*
X037756Y025679D02*
X037870Y025793D01*
X037870Y025452D01*
X037983Y025452D02*
X037756Y025452D01*
X038125Y025509D02*
X038181Y025452D01*
X038295Y025452D01*
X038351Y025509D01*
X038351Y025736D01*
X038295Y025793D01*
X038181Y025793D01*
X038125Y025736D01*
X038125Y025679D01*
X038181Y025623D01*
X038351Y025623D01*
X038255Y027027D02*
X038142Y027027D01*
X038085Y027084D01*
X038312Y027311D01*
X038312Y027084D01*
X038255Y027027D01*
X038085Y027084D02*
X038085Y027311D01*
X038142Y027368D01*
X038255Y027368D01*
X038312Y027311D01*
X037944Y027311D02*
X037887Y027368D01*
X037774Y027368D01*
X037717Y027311D01*
X037575Y027311D02*
X037519Y027368D01*
X037405Y027368D01*
X037349Y027311D01*
X037349Y027084D01*
X037405Y027027D01*
X037519Y027027D01*
X037575Y027084D01*
X037717Y027027D02*
X037944Y027254D01*
X037944Y027311D01*
X037944Y027027D02*
X037717Y027027D01*
X037813Y030368D02*
X037927Y030368D01*
X037984Y030425D01*
X038125Y030368D02*
X038352Y030368D01*
X038238Y030368D02*
X038238Y030708D01*
X038125Y030595D01*
X037984Y030652D02*
X037927Y030708D01*
X037813Y030708D01*
X037757Y030652D01*
X037757Y030425D01*
X037813Y030368D01*
X038493Y030425D02*
X038493Y030482D01*
X038550Y030538D01*
X038663Y030538D01*
X038720Y030482D01*
X038720Y030425D01*
X038663Y030368D01*
X038550Y030368D01*
X038493Y030425D01*
X038550Y030538D02*
X038493Y030595D01*
X038493Y030652D01*
X038550Y030708D01*
X038663Y030708D01*
X038720Y030652D01*
X038720Y030595D01*
X038663Y030538D01*
X036587Y030901D02*
X036337Y030651D01*
X035837Y030651D01*
X035587Y030901D01*
X035587Y031401D01*
X035837Y031651D01*
X036337Y031651D01*
X036587Y031401D01*
X036587Y030901D01*
X036550Y031901D02*
X036324Y031901D01*
X036550Y032128D01*
X036550Y032185D01*
X036494Y032241D01*
X036380Y032241D01*
X036324Y032185D01*
X036182Y032185D02*
X036182Y032071D01*
X036125Y032015D01*
X035955Y032015D01*
X035955Y031901D02*
X035955Y032241D01*
X036125Y032241D01*
X036182Y032185D01*
X035814Y032241D02*
X035700Y032241D01*
X035757Y032241D02*
X035757Y031958D01*
X035700Y031901D01*
X035644Y031901D01*
X035587Y031958D01*
X033366Y032782D02*
X033026Y032782D01*
X033026Y032952D01*
X033082Y033008D01*
X033196Y033008D01*
X033253Y032952D01*
X033253Y032782D01*
X033253Y032895D02*
X033366Y033008D01*
X033366Y033150D02*
X033366Y033377D01*
X033366Y033263D02*
X033026Y033263D01*
X033139Y033150D01*
X033082Y033518D02*
X033026Y033575D01*
X033026Y033688D01*
X033082Y033745D01*
X033139Y033745D01*
X033366Y033518D01*
X033366Y033745D01*
X032691Y033556D02*
X032691Y033442D01*
X032634Y033386D01*
X032578Y033386D01*
X032521Y033442D01*
X032521Y033556D01*
X032578Y033613D01*
X032634Y033613D01*
X032691Y033556D01*
X032521Y033556D02*
X032464Y033613D01*
X032408Y033613D01*
X032351Y033556D01*
X032351Y033442D01*
X032408Y033386D01*
X032464Y033386D01*
X032521Y033442D01*
X032691Y033244D02*
X032691Y033017D01*
X032691Y033131D02*
X032351Y033131D01*
X032464Y033017D01*
X032408Y032876D02*
X032521Y032876D01*
X032578Y032819D01*
X032578Y032649D01*
X032691Y032649D02*
X032351Y032649D01*
X032351Y032819D01*
X032408Y032876D01*
X032578Y032763D02*
X032691Y032876D01*
X031116Y032939D02*
X031116Y033166D01*
X031116Y033052D02*
X030776Y033052D01*
X030890Y032939D01*
X030946Y032797D02*
X031003Y032740D01*
X031003Y032570D01*
X031116Y032570D02*
X030776Y032570D01*
X030776Y032740D01*
X030833Y032797D01*
X030946Y032797D01*
X031003Y032684D02*
X031116Y032797D01*
X031060Y033307D02*
X031116Y033364D01*
X031116Y033477D01*
X031060Y033534D01*
X030833Y033534D01*
X030776Y033477D01*
X030776Y033364D01*
X030833Y033307D01*
X030890Y033307D01*
X030946Y033364D01*
X030946Y033534D01*
X029203Y032864D02*
X028863Y032864D01*
X028863Y033034D01*
X028919Y033091D01*
X029033Y033091D01*
X029090Y033034D01*
X029090Y032864D01*
X029090Y032723D02*
X029146Y032723D01*
X029203Y032666D01*
X029203Y032552D01*
X029146Y032496D01*
X029033Y032552D02*
X029033Y032666D01*
X029090Y032723D01*
X028919Y032723D02*
X028863Y032666D01*
X028863Y032552D01*
X028919Y032496D01*
X028976Y032496D01*
X029033Y032552D01*
X029146Y032354D02*
X029203Y032298D01*
X029203Y032184D01*
X029146Y032127D01*
X028919Y032127D01*
X028863Y032184D01*
X028863Y032298D01*
X028919Y032354D01*
X028863Y031995D02*
X028863Y031882D01*
X028863Y031939D02*
X029203Y031939D01*
X029203Y031995D02*
X029203Y031882D01*
X028689Y031858D02*
X028439Y031608D01*
X027939Y031608D01*
X027689Y031858D01*
X027689Y033358D01*
X027439Y033608D01*
X026939Y033608D01*
X026689Y033358D01*
X026439Y033608D01*
X025939Y033608D01*
X025689Y033358D01*
X025689Y031858D01*
X025939Y031608D01*
X026439Y031608D01*
X026689Y031858D01*
X026689Y033358D01*
X027689Y033358D02*
X027939Y033608D01*
X028439Y033608D01*
X028689Y033358D01*
X028689Y031858D01*
X027689Y031858D02*
X027439Y031608D01*
X026939Y031608D01*
X026689Y031858D01*
X025581Y030747D02*
X025411Y030577D01*
X025638Y030577D01*
X025581Y030407D02*
X025581Y030747D01*
X025269Y030690D02*
X025269Y030464D01*
X025213Y030407D01*
X025099Y030407D01*
X025043Y030464D01*
X025043Y030690D01*
X025099Y030747D01*
X025213Y030747D01*
X025269Y030690D01*
X025156Y030520D02*
X025269Y030407D01*
X021543Y027029D02*
X021487Y027086D01*
X021373Y027086D01*
X021316Y027029D01*
X021175Y027029D02*
X021175Y026802D01*
X021118Y026746D01*
X021005Y026746D01*
X020948Y026802D01*
X020948Y027029D01*
X021005Y027086D01*
X021118Y027086D01*
X021175Y027029D01*
X021062Y026859D02*
X021175Y026746D01*
X021316Y026802D02*
X021373Y026746D01*
X021487Y026746D01*
X021543Y026802D01*
X021543Y026859D01*
X021487Y026916D01*
X021430Y026916D01*
X021487Y026916D02*
X021543Y026972D01*
X021543Y027029D01*
X020809Y026873D02*
X020809Y026759D01*
X020753Y026703D01*
X020639Y026816D02*
X020639Y026873D01*
X020696Y026930D01*
X020753Y026930D01*
X020809Y026873D01*
X020639Y026873D02*
X020583Y026930D01*
X020526Y026930D01*
X020469Y026873D01*
X020469Y026759D01*
X020526Y026703D01*
X020526Y026561D02*
X020639Y026561D01*
X020696Y026505D01*
X020696Y026334D01*
X020809Y026334D02*
X020469Y026334D01*
X020469Y026505D01*
X020526Y026561D01*
X020327Y026677D02*
X020327Y026177D01*
X020077Y025927D01*
X019577Y025927D01*
X019327Y026177D01*
X019327Y026677D01*
X019577Y026927D01*
X020077Y026927D01*
X020327Y026677D01*
X020469Y026193D02*
X020469Y026080D01*
X020469Y026136D02*
X020753Y026136D01*
X020809Y026080D01*
X020809Y026023D01*
X020753Y025966D01*
X019746Y027264D02*
X019632Y027264D01*
X019576Y027321D01*
X019689Y027434D02*
X019746Y027434D01*
X019803Y027377D01*
X019803Y027321D01*
X019746Y027264D01*
X019746Y027434D02*
X019803Y027491D01*
X019803Y027547D01*
X019746Y027604D01*
X019632Y027604D01*
X019576Y027547D01*
X019434Y027547D02*
X019434Y027604D01*
X019434Y027547D02*
X019321Y027434D01*
X019321Y027264D01*
X019321Y027434D02*
X019207Y027547D01*
X019207Y027604D01*
X018351Y029823D02*
X018125Y029823D01*
X018351Y030049D01*
X018351Y030106D01*
X018295Y030163D01*
X018181Y030163D01*
X018125Y030106D01*
X017983Y030106D02*
X017926Y030163D01*
X017813Y030163D01*
X017756Y030106D01*
X017615Y030106D02*
X017558Y030163D01*
X017445Y030163D01*
X017388Y030106D01*
X017388Y029879D01*
X017445Y029823D01*
X017558Y029823D01*
X017615Y029879D01*
X017756Y029823D02*
X017983Y030049D01*
X017983Y030106D01*
X017983Y029823D02*
X017756Y029823D01*
X015109Y029735D02*
X015052Y029791D01*
X015109Y029735D02*
X015109Y029621D01*
X015052Y029564D01*
X014825Y029564D01*
X014768Y029621D01*
X014768Y029735D01*
X014825Y029791D01*
X014825Y029933D02*
X014768Y029989D01*
X014768Y030103D01*
X014825Y030160D01*
X014882Y030160D01*
X014938Y030103D01*
X014995Y030160D01*
X015052Y030160D01*
X015109Y030103D01*
X015109Y029989D01*
X015052Y029933D01*
X014938Y030046D02*
X014938Y030103D01*
X014825Y030301D02*
X014768Y030358D01*
X014768Y030471D01*
X014825Y030528D01*
X014882Y030528D01*
X014938Y030471D01*
X014995Y030528D01*
X015052Y030528D01*
X015109Y030471D01*
X015109Y030358D01*
X015052Y030301D01*
X014938Y030414D02*
X014938Y030471D01*
X014901Y029409D02*
X014788Y029353D01*
X014674Y029239D01*
X014845Y029239D01*
X014901Y029182D01*
X014901Y029126D01*
X014845Y029069D01*
X014731Y029069D01*
X014674Y029126D01*
X014674Y029239D01*
X014533Y029296D02*
X014306Y029069D01*
X014533Y029069D01*
X014533Y029296D02*
X014533Y029353D01*
X014476Y029409D01*
X014363Y029409D01*
X014306Y029353D01*
X014165Y029353D02*
X014108Y029409D01*
X013994Y029409D01*
X013938Y029353D01*
X013938Y029126D01*
X013994Y029069D01*
X014108Y029069D01*
X014165Y029126D01*
X013636Y029596D02*
X013636Y029709D01*
X013579Y029766D01*
X013579Y029907D02*
X013636Y029964D01*
X013636Y030077D01*
X013579Y030134D01*
X013523Y030134D01*
X013466Y030077D01*
X013466Y030021D01*
X013466Y030077D02*
X013409Y030134D01*
X013353Y030134D01*
X013296Y030077D01*
X013296Y029964D01*
X013353Y029907D01*
X013353Y029766D02*
X013296Y029709D01*
X013296Y029596D01*
X013353Y029539D01*
X013579Y029539D01*
X013636Y029596D01*
X013636Y030275D02*
X013409Y030502D01*
X013353Y030502D01*
X013296Y030446D01*
X013296Y030332D01*
X013353Y030275D01*
X013636Y030275D02*
X013636Y030502D01*
X013938Y028425D02*
X014108Y028425D01*
X014165Y028368D01*
X014165Y028255D01*
X014108Y028198D01*
X013938Y028198D01*
X014051Y028198D02*
X014165Y028085D01*
X014306Y028085D02*
X014533Y028312D01*
X014533Y028368D01*
X014476Y028425D01*
X014363Y028425D01*
X014306Y028368D01*
X014306Y028085D02*
X014533Y028085D01*
X014674Y028141D02*
X014731Y028085D01*
X014845Y028085D01*
X014901Y028141D01*
X014901Y028198D01*
X014845Y028255D01*
X014674Y028255D01*
X014674Y028141D01*
X014674Y028255D02*
X014788Y028368D01*
X014901Y028425D01*
X013938Y028425D02*
X013938Y028085D01*
X008571Y029334D02*
X008514Y029277D01*
X008571Y029334D02*
X008571Y029447D01*
X008514Y029504D01*
X008458Y029504D01*
X008401Y029447D01*
X008401Y029334D01*
X008344Y029277D01*
X008288Y029277D01*
X008231Y029334D01*
X008231Y029447D01*
X008288Y029504D01*
X008231Y029759D02*
X008231Y029872D01*
X008231Y029815D02*
X008514Y029815D01*
X008571Y029759D01*
X008571Y029702D01*
X008514Y029645D01*
X008401Y030014D02*
X008401Y030241D01*
X008571Y030184D02*
X008231Y030184D01*
X008401Y030014D01*
X007594Y032779D02*
X007368Y032779D01*
X007481Y032779D02*
X007481Y033119D01*
X007368Y033006D01*
X007226Y033063D02*
X007226Y032836D01*
X007169Y032779D01*
X006999Y032779D01*
X006999Y033119D01*
X007169Y033119D01*
X007226Y033063D01*
X004034Y030843D02*
X004034Y030729D01*
X003977Y030673D01*
X003807Y030673D01*
X003920Y030673D02*
X004034Y030559D01*
X003807Y030559D02*
X003807Y030899D01*
X003977Y030899D01*
X004034Y030843D01*
X003665Y030899D02*
X003438Y030899D01*
X003438Y030559D01*
X003665Y030559D01*
X003552Y030729D02*
X003438Y030729D01*
X003297Y030559D02*
X003297Y030899D01*
X003070Y030899D02*
X003070Y030559D01*
X003184Y030673D01*
X003297Y030559D01*
X002929Y030616D02*
X002929Y030843D01*
X002872Y030899D01*
X002758Y030899D01*
X002702Y030843D01*
X002702Y030616D01*
X002758Y030559D01*
X002872Y030559D01*
X002929Y030616D01*
X002560Y030729D02*
X002504Y030673D01*
X002333Y030673D01*
X002333Y030559D02*
X002333Y030899D01*
X002504Y030899D01*
X002560Y030843D01*
X002560Y030729D01*
X002325Y030113D02*
X002211Y029999D01*
X002211Y030056D02*
X002211Y029886D01*
X002325Y029886D02*
X001984Y029886D01*
X001984Y030056D01*
X002041Y030113D01*
X002155Y030113D01*
X002211Y030056D01*
X002325Y029744D02*
X002325Y029517D01*
X001984Y029517D01*
X001984Y029744D01*
X002155Y029631D02*
X002155Y029517D01*
X002325Y029376D02*
X001984Y029376D01*
X001984Y029149D02*
X002325Y029149D01*
X002211Y029263D01*
X002325Y029376D01*
X002268Y029008D02*
X002041Y029008D01*
X001984Y028951D01*
X001984Y028837D01*
X002041Y028781D01*
X002268Y028781D01*
X002325Y028837D01*
X002325Y028951D01*
X002268Y029008D01*
X002155Y028639D02*
X002211Y028583D01*
X002211Y028412D01*
X002325Y028412D02*
X001984Y028412D01*
X001984Y028583D01*
X002041Y028639D01*
X002155Y028639D01*
X002381Y028271D02*
X002381Y028044D01*
X002268Y027903D02*
X002325Y027846D01*
X002325Y027733D01*
X002268Y027676D01*
X002041Y027676D01*
X001984Y027733D01*
X001984Y027846D01*
X002041Y027903D01*
X002041Y027534D02*
X001984Y027478D01*
X001984Y027308D01*
X002325Y027308D01*
X002325Y027478D01*
X002268Y027534D01*
X002041Y027534D01*
X001984Y027166D02*
X002211Y027166D01*
X002325Y027053D01*
X002211Y026939D01*
X001984Y026939D01*
X002041Y026798D02*
X001984Y026741D01*
X001984Y026628D01*
X002041Y026571D01*
X002098Y026571D01*
X002155Y026628D01*
X002155Y026798D01*
X002268Y026798D02*
X002041Y026798D01*
X002268Y026798D02*
X002325Y026741D01*
X002325Y026628D01*
X002268Y026571D01*
X008786Y016023D02*
X008786Y015966D01*
X008899Y015853D01*
X008899Y015683D01*
X008899Y015853D02*
X009013Y015966D01*
X009013Y016023D01*
X009154Y015910D02*
X009268Y016023D01*
X009268Y015683D01*
X009381Y015683D02*
X009154Y015683D01*
X010510Y015343D02*
X010510Y015116D01*
X010566Y015059D01*
X010680Y015059D01*
X010737Y015116D01*
X010737Y015343D01*
X010680Y015400D01*
X010566Y015400D01*
X010510Y015343D01*
X010623Y015173D02*
X010737Y015059D01*
X010878Y015059D02*
X011105Y015059D01*
X010991Y015059D02*
X010991Y015400D01*
X010878Y015286D01*
X010032Y013350D02*
X010032Y013123D01*
X010032Y013237D02*
X009691Y013237D01*
X009805Y013123D01*
X009748Y012982D02*
X009691Y012925D01*
X009691Y012812D01*
X009748Y012755D01*
X009975Y012755D01*
X010032Y012812D01*
X010032Y012925D01*
X009975Y012982D01*
X010032Y012623D02*
X010032Y012509D01*
X010032Y012566D02*
X009691Y012566D01*
X009691Y012509D02*
X009691Y012623D01*
X008601Y013452D02*
X008603Y013475D01*
X008609Y013498D01*
X008618Y013519D01*
X008631Y013539D01*
X008647Y013556D01*
X008665Y013570D01*
X008685Y013581D01*
X008707Y013589D01*
X008730Y013593D01*
X008754Y013593D01*
X008777Y013589D01*
X008799Y013581D01*
X008819Y013570D01*
X008837Y013556D01*
X008853Y013539D01*
X008866Y013519D01*
X008875Y013498D01*
X008881Y013475D01*
X008883Y013452D01*
X008881Y013429D01*
X008875Y013406D01*
X008866Y013385D01*
X008853Y013365D01*
X008837Y013348D01*
X008819Y013334D01*
X008799Y013323D01*
X008777Y013315D01*
X008754Y013311D01*
X008730Y013311D01*
X008707Y013315D01*
X008685Y013323D01*
X008665Y013334D01*
X008647Y013348D01*
X008631Y013365D01*
X008618Y013385D01*
X008609Y013406D01*
X008603Y013429D01*
X008601Y013452D01*
X006447Y015147D02*
X006447Y015260D01*
X006390Y015317D01*
X006390Y015459D02*
X006334Y015459D01*
X006277Y015515D01*
X006277Y015629D01*
X006334Y015685D01*
X006390Y015685D01*
X006447Y015629D01*
X006447Y015515D01*
X006390Y015459D01*
X006277Y015515D02*
X006220Y015459D01*
X006164Y015459D01*
X006107Y015515D01*
X006107Y015629D01*
X006164Y015685D01*
X006220Y015685D01*
X006277Y015629D01*
X006164Y015317D02*
X006107Y015260D01*
X006107Y015147D01*
X006164Y015090D01*
X006390Y015090D01*
X006447Y015147D01*
X021595Y021913D02*
X021709Y021913D01*
X021652Y021913D02*
X021652Y022253D01*
X021595Y022253D02*
X021709Y022253D01*
X021841Y022197D02*
X021841Y021970D01*
X021898Y021913D01*
X022011Y021913D01*
X022068Y021970D01*
X022209Y021970D02*
X022266Y021913D01*
X022379Y021913D01*
X022436Y021970D01*
X022436Y022083D01*
X022379Y022140D01*
X022323Y022140D01*
X022209Y022083D01*
X022209Y022253D01*
X022436Y022253D01*
X022068Y022197D02*
X022011Y022253D01*
X021898Y022253D01*
X021841Y022197D01*
X031638Y029987D02*
X031640Y030010D01*
X031646Y030033D01*
X031655Y030054D01*
X031668Y030074D01*
X031684Y030091D01*
X031702Y030105D01*
X031722Y030116D01*
X031744Y030124D01*
X031767Y030128D01*
X031791Y030128D01*
X031814Y030124D01*
X031836Y030116D01*
X031856Y030105D01*
X031874Y030091D01*
X031890Y030074D01*
X031903Y030054D01*
X031912Y030033D01*
X031918Y030010D01*
X031920Y029987D01*
X031918Y029964D01*
X031912Y029941D01*
X031903Y029920D01*
X031890Y029900D01*
X031874Y029883D01*
X031856Y029869D01*
X031836Y029858D01*
X031814Y029850D01*
X031791Y029846D01*
X031767Y029846D01*
X031744Y029850D01*
X031722Y029858D01*
X031702Y029869D01*
X031684Y029883D01*
X031668Y029900D01*
X031655Y029920D01*
X031646Y029941D01*
X031640Y029964D01*
X031638Y029987D01*
X031799Y030937D02*
X031912Y030937D01*
X031855Y030937D02*
X031855Y031277D01*
X031799Y031277D02*
X031912Y031277D01*
X032044Y031221D02*
X032044Y030994D01*
X032101Y030937D01*
X032214Y030937D01*
X032271Y030994D01*
X032412Y031107D02*
X032639Y031107D01*
X032583Y030937D02*
X032583Y031277D01*
X032412Y031107D01*
X032271Y031221D02*
X032214Y031277D01*
X032101Y031277D01*
X032044Y031221D01*
D11*
X007587Y003541D02*
X004587Y003541D01*
X004587Y008041D01*
X007587Y008041D01*
X007587Y003541D01*
X004969Y005541D02*
X004971Y005607D01*
X004977Y005673D01*
X004987Y005739D01*
X005000Y005804D01*
X005018Y005868D01*
X005039Y005930D01*
X005064Y005992D01*
X005092Y006052D01*
X005124Y006110D01*
X005160Y006166D01*
X005198Y006219D01*
X005240Y006271D01*
X005285Y006320D01*
X005332Y006366D01*
X005383Y006409D01*
X005435Y006449D01*
X005490Y006486D01*
X005547Y006520D01*
X005606Y006550D01*
X005667Y006577D01*
X005729Y006600D01*
X005792Y006619D01*
X005857Y006635D01*
X005922Y006647D01*
X005988Y006655D01*
X006054Y006659D01*
X006120Y006659D01*
X006186Y006655D01*
X006252Y006647D01*
X006317Y006635D01*
X006382Y006619D01*
X006445Y006600D01*
X006507Y006577D01*
X006568Y006550D01*
X006627Y006520D01*
X006684Y006486D01*
X006739Y006449D01*
X006791Y006409D01*
X006842Y006366D01*
X006889Y006320D01*
X006934Y006271D01*
X006976Y006219D01*
X007014Y006166D01*
X007050Y006110D01*
X007082Y006052D01*
X007110Y005992D01*
X007135Y005930D01*
X007156Y005868D01*
X007174Y005804D01*
X007187Y005739D01*
X007197Y005673D01*
X007203Y005607D01*
X007205Y005541D01*
X007203Y005475D01*
X007197Y005409D01*
X007187Y005343D01*
X007174Y005278D01*
X007156Y005214D01*
X007135Y005152D01*
X007110Y005090D01*
X007082Y005030D01*
X007050Y004972D01*
X007014Y004916D01*
X006976Y004863D01*
X006934Y004811D01*
X006889Y004762D01*
X006842Y004716D01*
X006791Y004673D01*
X006739Y004633D01*
X006684Y004596D01*
X006627Y004562D01*
X006568Y004532D01*
X006507Y004505D01*
X006445Y004482D01*
X006382Y004463D01*
X006317Y004447D01*
X006252Y004435D01*
X006186Y004427D01*
X006120Y004423D01*
X006054Y004423D01*
X005988Y004427D01*
X005922Y004435D01*
X005857Y004447D01*
X005792Y004463D01*
X005729Y004482D01*
X005667Y004505D01*
X005606Y004532D01*
X005547Y004562D01*
X005490Y004596D01*
X005435Y004633D01*
X005383Y004673D01*
X005332Y004716D01*
X005285Y004762D01*
X005240Y004811D01*
X005198Y004863D01*
X005160Y004916D01*
X005124Y004972D01*
X005092Y005030D01*
X005064Y005090D01*
X005039Y005152D01*
X005018Y005214D01*
X005000Y005278D01*
X004987Y005343D01*
X004977Y005409D01*
X004971Y005475D01*
X004969Y005541D01*
X010099Y003541D02*
X013099Y003541D01*
X013099Y008041D01*
X010099Y008041D01*
X010099Y003541D01*
X010481Y005541D02*
X010483Y005607D01*
X010489Y005673D01*
X010499Y005739D01*
X010512Y005804D01*
X010530Y005868D01*
X010551Y005930D01*
X010576Y005992D01*
X010604Y006052D01*
X010636Y006110D01*
X010672Y006166D01*
X010710Y006219D01*
X010752Y006271D01*
X010797Y006320D01*
X010844Y006366D01*
X010895Y006409D01*
X010947Y006449D01*
X011002Y006486D01*
X011059Y006520D01*
X011118Y006550D01*
X011179Y006577D01*
X011241Y006600D01*
X011304Y006619D01*
X011369Y006635D01*
X011434Y006647D01*
X011500Y006655D01*
X011566Y006659D01*
X011632Y006659D01*
X011698Y006655D01*
X011764Y006647D01*
X011829Y006635D01*
X011894Y006619D01*
X011957Y006600D01*
X012019Y006577D01*
X012080Y006550D01*
X012139Y006520D01*
X012196Y006486D01*
X012251Y006449D01*
X012303Y006409D01*
X012354Y006366D01*
X012401Y006320D01*
X012446Y006271D01*
X012488Y006219D01*
X012526Y006166D01*
X012562Y006110D01*
X012594Y006052D01*
X012622Y005992D01*
X012647Y005930D01*
X012668Y005868D01*
X012686Y005804D01*
X012699Y005739D01*
X012709Y005673D01*
X012715Y005607D01*
X012717Y005541D01*
X012715Y005475D01*
X012709Y005409D01*
X012699Y005343D01*
X012686Y005278D01*
X012668Y005214D01*
X012647Y005152D01*
X012622Y005090D01*
X012594Y005030D01*
X012562Y004972D01*
X012526Y004916D01*
X012488Y004863D01*
X012446Y004811D01*
X012401Y004762D01*
X012354Y004716D01*
X012303Y004673D01*
X012251Y004633D01*
X012196Y004596D01*
X012139Y004562D01*
X012080Y004532D01*
X012019Y004505D01*
X011957Y004482D01*
X011894Y004463D01*
X011829Y004447D01*
X011764Y004435D01*
X011698Y004427D01*
X011632Y004423D01*
X011566Y004423D01*
X011500Y004427D01*
X011434Y004435D01*
X011369Y004447D01*
X011304Y004463D01*
X011241Y004482D01*
X011179Y004505D01*
X011118Y004532D01*
X011059Y004562D01*
X011002Y004596D01*
X010947Y004633D01*
X010895Y004673D01*
X010844Y004716D01*
X010797Y004762D01*
X010752Y004811D01*
X010710Y004863D01*
X010672Y004916D01*
X010636Y004972D01*
X010604Y005030D01*
X010576Y005090D01*
X010551Y005152D01*
X010530Y005214D01*
X010512Y005278D01*
X010499Y005343D01*
X010489Y005409D01*
X010483Y005475D01*
X010481Y005541D01*
X015611Y003541D02*
X018611Y003541D01*
X018611Y008041D01*
X015611Y008041D01*
X015611Y003541D01*
X015993Y005541D02*
X015995Y005607D01*
X016001Y005673D01*
X016011Y005739D01*
X016024Y005804D01*
X016042Y005868D01*
X016063Y005930D01*
X016088Y005992D01*
X016116Y006052D01*
X016148Y006110D01*
X016184Y006166D01*
X016222Y006219D01*
X016264Y006271D01*
X016309Y006320D01*
X016356Y006366D01*
X016407Y006409D01*
X016459Y006449D01*
X016514Y006486D01*
X016571Y006520D01*
X016630Y006550D01*
X016691Y006577D01*
X016753Y006600D01*
X016816Y006619D01*
X016881Y006635D01*
X016946Y006647D01*
X017012Y006655D01*
X017078Y006659D01*
X017144Y006659D01*
X017210Y006655D01*
X017276Y006647D01*
X017341Y006635D01*
X017406Y006619D01*
X017469Y006600D01*
X017531Y006577D01*
X017592Y006550D01*
X017651Y006520D01*
X017708Y006486D01*
X017763Y006449D01*
X017815Y006409D01*
X017866Y006366D01*
X017913Y006320D01*
X017958Y006271D01*
X018000Y006219D01*
X018038Y006166D01*
X018074Y006110D01*
X018106Y006052D01*
X018134Y005992D01*
X018159Y005930D01*
X018180Y005868D01*
X018198Y005804D01*
X018211Y005739D01*
X018221Y005673D01*
X018227Y005607D01*
X018229Y005541D01*
X018227Y005475D01*
X018221Y005409D01*
X018211Y005343D01*
X018198Y005278D01*
X018180Y005214D01*
X018159Y005152D01*
X018134Y005090D01*
X018106Y005030D01*
X018074Y004972D01*
X018038Y004916D01*
X018000Y004863D01*
X017958Y004811D01*
X017913Y004762D01*
X017866Y004716D01*
X017815Y004673D01*
X017763Y004633D01*
X017708Y004596D01*
X017651Y004562D01*
X017592Y004532D01*
X017531Y004505D01*
X017469Y004482D01*
X017406Y004463D01*
X017341Y004447D01*
X017276Y004435D01*
X017210Y004427D01*
X017144Y004423D01*
X017078Y004423D01*
X017012Y004427D01*
X016946Y004435D01*
X016881Y004447D01*
X016816Y004463D01*
X016753Y004482D01*
X016691Y004505D01*
X016630Y004532D01*
X016571Y004562D01*
X016514Y004596D01*
X016459Y004633D01*
X016407Y004673D01*
X016356Y004716D01*
X016309Y004762D01*
X016264Y004811D01*
X016222Y004863D01*
X016184Y004916D01*
X016148Y004972D01*
X016116Y005030D01*
X016088Y005090D01*
X016063Y005152D01*
X016042Y005214D01*
X016024Y005278D01*
X016011Y005343D01*
X016001Y005409D01*
X015995Y005475D01*
X015993Y005541D01*
X021122Y003541D02*
X024122Y003541D01*
X024122Y008041D01*
X021122Y008041D01*
X021122Y003541D01*
X021504Y005541D02*
X021506Y005607D01*
X021512Y005673D01*
X021522Y005739D01*
X021535Y005804D01*
X021553Y005868D01*
X021574Y005930D01*
X021599Y005992D01*
X021627Y006052D01*
X021659Y006110D01*
X021695Y006166D01*
X021733Y006219D01*
X021775Y006271D01*
X021820Y006320D01*
X021867Y006366D01*
X021918Y006409D01*
X021970Y006449D01*
X022025Y006486D01*
X022082Y006520D01*
X022141Y006550D01*
X022202Y006577D01*
X022264Y006600D01*
X022327Y006619D01*
X022392Y006635D01*
X022457Y006647D01*
X022523Y006655D01*
X022589Y006659D01*
X022655Y006659D01*
X022721Y006655D01*
X022787Y006647D01*
X022852Y006635D01*
X022917Y006619D01*
X022980Y006600D01*
X023042Y006577D01*
X023103Y006550D01*
X023162Y006520D01*
X023219Y006486D01*
X023274Y006449D01*
X023326Y006409D01*
X023377Y006366D01*
X023424Y006320D01*
X023469Y006271D01*
X023511Y006219D01*
X023549Y006166D01*
X023585Y006110D01*
X023617Y006052D01*
X023645Y005992D01*
X023670Y005930D01*
X023691Y005868D01*
X023709Y005804D01*
X023722Y005739D01*
X023732Y005673D01*
X023738Y005607D01*
X023740Y005541D01*
X023738Y005475D01*
X023732Y005409D01*
X023722Y005343D01*
X023709Y005278D01*
X023691Y005214D01*
X023670Y005152D01*
X023645Y005090D01*
X023617Y005030D01*
X023585Y004972D01*
X023549Y004916D01*
X023511Y004863D01*
X023469Y004811D01*
X023424Y004762D01*
X023377Y004716D01*
X023326Y004673D01*
X023274Y004633D01*
X023219Y004596D01*
X023162Y004562D01*
X023103Y004532D01*
X023042Y004505D01*
X022980Y004482D01*
X022917Y004463D01*
X022852Y004447D01*
X022787Y004435D01*
X022721Y004427D01*
X022655Y004423D01*
X022589Y004423D01*
X022523Y004427D01*
X022457Y004435D01*
X022392Y004447D01*
X022327Y004463D01*
X022264Y004482D01*
X022202Y004505D01*
X022141Y004532D01*
X022082Y004562D01*
X022025Y004596D01*
X021970Y004633D01*
X021918Y004673D01*
X021867Y004716D01*
X021820Y004762D01*
X021775Y004811D01*
X021733Y004863D01*
X021695Y004916D01*
X021659Y004972D01*
X021627Y005030D01*
X021599Y005090D01*
X021574Y005152D01*
X021553Y005214D01*
X021535Y005278D01*
X021522Y005343D01*
X021512Y005409D01*
X021506Y005475D01*
X021504Y005541D01*
X026390Y003647D02*
X026390Y012057D01*
X026953Y012057D01*
X027347Y013214D01*
X030496Y013214D01*
X030890Y012057D01*
X026953Y012057D01*
X030890Y012057D02*
X032591Y012057D01*
X032591Y003647D01*
X031126Y003647D01*
X031126Y003553D01*
X031126Y003513D01*
X030890Y003356D01*
X030890Y003317D01*
X031126Y003159D01*
X031126Y003120D01*
X030890Y002962D01*
X030890Y002923D01*
X031126Y002765D01*
X031126Y002726D01*
X030890Y002569D01*
X030890Y002529D01*
X031126Y002372D01*
X031126Y002332D01*
X030890Y002175D01*
X030890Y002135D01*
X031126Y001978D01*
X031126Y001939D01*
X030890Y001781D01*
X030890Y001742D01*
X031126Y001584D01*
X031126Y001545D01*
X030890Y001387D01*
X030890Y001348D01*
X031126Y001191D01*
X031126Y001151D01*
X030890Y000994D01*
X030890Y000954D01*
X031126Y000797D01*
X031126Y000757D01*
X030890Y000600D01*
X030890Y000301D01*
X030888Y000279D01*
X030884Y000257D01*
X030876Y000236D01*
X030865Y000216D01*
X030852Y000198D01*
X030836Y000182D01*
X030818Y000169D01*
X030798Y000158D01*
X030777Y000150D01*
X030755Y000146D01*
X030733Y000144D01*
X030733Y000143D02*
X027111Y000143D01*
X027111Y000144D02*
X027089Y000146D01*
X027067Y000150D01*
X027046Y000158D01*
X027026Y000169D01*
X027008Y000182D01*
X026992Y000198D01*
X026979Y000216D01*
X026968Y000236D01*
X026960Y000257D01*
X026956Y000279D01*
X026954Y000301D01*
X026953Y000301D02*
X026953Y000600D01*
X026717Y000757D01*
X026717Y000797D01*
X026953Y000954D01*
X026953Y000994D01*
X026717Y001151D01*
X026717Y001191D01*
X026953Y001348D01*
X026953Y001387D01*
X026717Y001545D01*
X026717Y001584D01*
X026953Y001742D01*
X026953Y001781D01*
X026717Y001939D01*
X026717Y001978D01*
X026953Y002135D01*
X026953Y002175D01*
X026717Y002332D01*
X026717Y002372D01*
X026953Y002529D01*
X026953Y002569D01*
X026717Y002726D01*
X026717Y002765D01*
X026953Y002923D01*
X026953Y002962D01*
X026717Y003120D01*
X026717Y003159D01*
X026953Y003317D01*
X026953Y003356D01*
X026717Y003553D01*
X026717Y003647D01*
X031126Y003647D01*
X034508Y003541D02*
X037508Y003541D01*
X037508Y008041D01*
X034508Y008041D01*
X034508Y003541D01*
X034890Y005541D02*
X034892Y005607D01*
X034898Y005673D01*
X034908Y005739D01*
X034921Y005804D01*
X034939Y005868D01*
X034960Y005930D01*
X034985Y005992D01*
X035013Y006052D01*
X035045Y006110D01*
X035081Y006166D01*
X035119Y006219D01*
X035161Y006271D01*
X035206Y006320D01*
X035253Y006366D01*
X035304Y006409D01*
X035356Y006449D01*
X035411Y006486D01*
X035468Y006520D01*
X035527Y006550D01*
X035588Y006577D01*
X035650Y006600D01*
X035713Y006619D01*
X035778Y006635D01*
X035843Y006647D01*
X035909Y006655D01*
X035975Y006659D01*
X036041Y006659D01*
X036107Y006655D01*
X036173Y006647D01*
X036238Y006635D01*
X036303Y006619D01*
X036366Y006600D01*
X036428Y006577D01*
X036489Y006550D01*
X036548Y006520D01*
X036605Y006486D01*
X036660Y006449D01*
X036712Y006409D01*
X036763Y006366D01*
X036810Y006320D01*
X036855Y006271D01*
X036897Y006219D01*
X036935Y006166D01*
X036971Y006110D01*
X037003Y006052D01*
X037031Y005992D01*
X037056Y005930D01*
X037077Y005868D01*
X037095Y005804D01*
X037108Y005739D01*
X037118Y005673D01*
X037124Y005607D01*
X037126Y005541D01*
X037124Y005475D01*
X037118Y005409D01*
X037108Y005343D01*
X037095Y005278D01*
X037077Y005214D01*
X037056Y005152D01*
X037031Y005090D01*
X037003Y005030D01*
X036971Y004972D01*
X036935Y004916D01*
X036897Y004863D01*
X036855Y004811D01*
X036810Y004762D01*
X036763Y004716D01*
X036712Y004673D01*
X036660Y004633D01*
X036605Y004596D01*
X036548Y004562D01*
X036489Y004532D01*
X036428Y004505D01*
X036366Y004482D01*
X036303Y004463D01*
X036238Y004447D01*
X036173Y004435D01*
X036107Y004427D01*
X036041Y004423D01*
X035975Y004423D01*
X035909Y004427D01*
X035843Y004435D01*
X035778Y004447D01*
X035713Y004463D01*
X035650Y004482D01*
X035588Y004505D01*
X035527Y004532D01*
X035468Y004562D01*
X035411Y004596D01*
X035356Y004633D01*
X035304Y004673D01*
X035253Y004716D01*
X035206Y004762D01*
X035161Y004811D01*
X035119Y004863D01*
X035081Y004916D01*
X035045Y004972D01*
X035013Y005030D01*
X034985Y005090D01*
X034960Y005152D01*
X034939Y005214D01*
X034921Y005278D01*
X034908Y005343D01*
X034898Y005409D01*
X034892Y005475D01*
X034890Y005541D01*
X026717Y003647D02*
X026390Y003647D01*
X032350Y018337D02*
X032350Y021148D01*
X034142Y021148D01*
X034142Y018337D01*
X032350Y018337D01*
X009315Y024970D02*
X008331Y024970D01*
D12*
X032521Y020951D02*
X032523Y020965D01*
X032529Y020979D01*
X032537Y020991D01*
X032549Y020999D01*
X032563Y021005D01*
X032577Y021007D01*
X032591Y021005D01*
X032605Y020999D01*
X032617Y020991D01*
X032625Y020979D01*
X032631Y020965D01*
X032633Y020951D01*
X032631Y020937D01*
X032625Y020923D01*
X032617Y020911D01*
X032605Y020903D01*
X032591Y020897D01*
X032577Y020895D01*
X032563Y020897D01*
X032549Y020903D01*
X032537Y020911D01*
X032529Y020923D01*
X032523Y020937D01*
X032521Y020951D01*
D13*
X038685Y020285D02*
X038685Y019419D01*
X039630Y019419D01*
X039630Y020285D01*
X038685Y020285D01*
X036244Y012844D02*
X035300Y012844D01*
X035300Y011978D01*
X036244Y011978D01*
X036244Y012844D01*
X024874Y017210D02*
X024874Y024856D01*
X017225Y024856D01*
X017225Y017210D01*
X024874Y017210D01*
X012889Y027470D02*
X010309Y027470D01*
X010309Y028770D01*
X012889Y028770D01*
X012889Y027470D01*
X012889Y031800D02*
X010309Y031800D01*
X010309Y033100D01*
X012889Y033100D01*
X012889Y031800D01*
X007662Y031193D02*
X006874Y031193D01*
X007268Y031596D01*
X007662Y031193D01*
X005870Y031094D02*
X005870Y033807D01*
X000792Y033807D01*
X000792Y031094D01*
X005870Y031094D01*
X005969Y030285D02*
X005969Y029458D01*
X005969Y030285D02*
X001756Y030285D01*
X001756Y026742D01*
X003843Y026742D01*
X005693Y026742D02*
X005969Y026742D01*
X005969Y027569D01*
X018273Y032057D02*
X018273Y032850D01*
X018623Y033650D02*
X020323Y033650D01*
X020673Y032850D02*
X020673Y032046D01*
X020323Y031250D02*
X018623Y031250D01*
X018773Y032450D02*
X018775Y032502D01*
X018781Y032554D01*
X018791Y032606D01*
X018804Y032656D01*
X018821Y032706D01*
X018842Y032754D01*
X018867Y032800D01*
X018895Y032844D01*
X018926Y032886D01*
X018960Y032926D01*
X018997Y032963D01*
X019037Y032997D01*
X019079Y033028D01*
X019123Y033056D01*
X019169Y033081D01*
X019217Y033102D01*
X019267Y033119D01*
X019317Y033132D01*
X019369Y033142D01*
X019421Y033148D01*
X019473Y033150D01*
X019525Y033148D01*
X019577Y033142D01*
X019629Y033132D01*
X019679Y033119D01*
X019729Y033102D01*
X019777Y033081D01*
X019823Y033056D01*
X019867Y033028D01*
X019909Y032997D01*
X019949Y032963D01*
X019986Y032926D01*
X020020Y032886D01*
X020051Y032844D01*
X020079Y032800D01*
X020104Y032754D01*
X020125Y032706D01*
X020142Y032656D01*
X020155Y032606D01*
X020165Y032554D01*
X020171Y032502D01*
X020173Y032450D01*
X020171Y032398D01*
X020165Y032346D01*
X020155Y032294D01*
X020142Y032244D01*
X020125Y032194D01*
X020104Y032146D01*
X020079Y032100D01*
X020051Y032056D01*
X020020Y032014D01*
X019986Y031974D01*
X019949Y031937D01*
X019909Y031903D01*
X019867Y031872D01*
X019823Y031844D01*
X019777Y031819D01*
X019729Y031798D01*
X019679Y031781D01*
X019629Y031768D01*
X019577Y031758D01*
X019525Y031752D01*
X019473Y031750D01*
X019421Y031752D01*
X019369Y031758D01*
X019317Y031768D01*
X019267Y031781D01*
X019217Y031798D01*
X019169Y031819D01*
X019123Y031844D01*
X019079Y031872D01*
X019037Y031903D01*
X018997Y031937D01*
X018960Y031974D01*
X018926Y032014D01*
X018895Y032056D01*
X018867Y032100D01*
X018842Y032146D01*
X018821Y032194D01*
X018804Y032244D01*
X018791Y032294D01*
X018781Y032346D01*
X018775Y032398D01*
X018773Y032450D01*
X022210Y032057D02*
X022210Y032850D01*
X022560Y033650D02*
X024260Y033650D01*
X024610Y032850D02*
X024610Y032046D01*
X024260Y031250D02*
X022560Y031250D01*
X022710Y032450D02*
X022712Y032502D01*
X022718Y032554D01*
X022728Y032606D01*
X022741Y032656D01*
X022758Y032706D01*
X022779Y032754D01*
X022804Y032800D01*
X022832Y032844D01*
X022863Y032886D01*
X022897Y032926D01*
X022934Y032963D01*
X022974Y032997D01*
X023016Y033028D01*
X023060Y033056D01*
X023106Y033081D01*
X023154Y033102D01*
X023204Y033119D01*
X023254Y033132D01*
X023306Y033142D01*
X023358Y033148D01*
X023410Y033150D01*
X023462Y033148D01*
X023514Y033142D01*
X023566Y033132D01*
X023616Y033119D01*
X023666Y033102D01*
X023714Y033081D01*
X023760Y033056D01*
X023804Y033028D01*
X023846Y032997D01*
X023886Y032963D01*
X023923Y032926D01*
X023957Y032886D01*
X023988Y032844D01*
X024016Y032800D01*
X024041Y032754D01*
X024062Y032706D01*
X024079Y032656D01*
X024092Y032606D01*
X024102Y032554D01*
X024108Y032502D01*
X024110Y032450D01*
X024108Y032398D01*
X024102Y032346D01*
X024092Y032294D01*
X024079Y032244D01*
X024062Y032194D01*
X024041Y032146D01*
X024016Y032100D01*
X023988Y032056D01*
X023957Y032014D01*
X023923Y031974D01*
X023886Y031937D01*
X023846Y031903D01*
X023804Y031872D01*
X023760Y031844D01*
X023714Y031819D01*
X023666Y031798D01*
X023616Y031781D01*
X023566Y031768D01*
X023514Y031758D01*
X023462Y031752D01*
X023410Y031750D01*
X023358Y031752D01*
X023306Y031758D01*
X023254Y031768D01*
X023204Y031781D01*
X023154Y031798D01*
X023106Y031819D01*
X023060Y031844D01*
X023016Y031872D01*
X022974Y031903D01*
X022934Y031937D01*
X022897Y031974D01*
X022863Y032014D01*
X022832Y032056D01*
X022804Y032100D01*
X022779Y032146D01*
X022758Y032194D01*
X022741Y032244D01*
X022728Y032294D01*
X022718Y032346D01*
X022712Y032398D01*
X022710Y032450D01*
X002555Y013178D02*
X001750Y013178D01*
X000950Y012828D02*
X000950Y011128D01*
X001750Y010778D02*
X002543Y010778D01*
X003350Y011128D02*
X003350Y012828D01*
X001450Y011978D02*
X001452Y012030D01*
X001458Y012082D01*
X001468Y012134D01*
X001481Y012184D01*
X001498Y012234D01*
X001519Y012282D01*
X001544Y012328D01*
X001572Y012372D01*
X001603Y012414D01*
X001637Y012454D01*
X001674Y012491D01*
X001714Y012525D01*
X001756Y012556D01*
X001800Y012584D01*
X001846Y012609D01*
X001894Y012630D01*
X001944Y012647D01*
X001994Y012660D01*
X002046Y012670D01*
X002098Y012676D01*
X002150Y012678D01*
X002202Y012676D01*
X002254Y012670D01*
X002306Y012660D01*
X002356Y012647D01*
X002406Y012630D01*
X002454Y012609D01*
X002500Y012584D01*
X002544Y012556D01*
X002586Y012525D01*
X002626Y012491D01*
X002663Y012454D01*
X002697Y012414D01*
X002728Y012372D01*
X002756Y012328D01*
X002781Y012282D01*
X002802Y012234D01*
X002819Y012184D01*
X002832Y012134D01*
X002842Y012082D01*
X002848Y012030D01*
X002850Y011978D01*
X002848Y011926D01*
X002842Y011874D01*
X002832Y011822D01*
X002819Y011772D01*
X002802Y011722D01*
X002781Y011674D01*
X002756Y011628D01*
X002728Y011584D01*
X002697Y011542D01*
X002663Y011502D01*
X002626Y011465D01*
X002586Y011431D01*
X002544Y011400D01*
X002500Y011372D01*
X002454Y011347D01*
X002406Y011326D01*
X002356Y011309D01*
X002306Y011296D01*
X002254Y011286D01*
X002202Y011280D01*
X002150Y011278D01*
X002098Y011280D01*
X002046Y011286D01*
X001994Y011296D01*
X001944Y011309D01*
X001894Y011326D01*
X001846Y011347D01*
X001800Y011372D01*
X001756Y011400D01*
X001714Y011431D01*
X001674Y011465D01*
X001637Y011502D01*
X001603Y011542D01*
X001572Y011584D01*
X001544Y011628D01*
X001519Y011674D01*
X001498Y011722D01*
X001481Y011772D01*
X001468Y011822D01*
X001458Y011874D01*
X001452Y011926D01*
X001450Y011978D01*
D14*
X036048Y012647D03*
X039433Y020088D03*
D15*
X031126Y003553D02*
X026717Y003159D01*
X026717Y003120D02*
X031126Y003513D01*
X030890Y003317D02*
X026953Y002923D01*
X026717Y002765D02*
X031126Y003159D01*
X031126Y003120D02*
X026717Y002726D01*
X026914Y002529D02*
X030890Y002923D01*
X031126Y002765D02*
X026717Y002372D01*
X026717Y002332D02*
X031126Y002726D01*
X030890Y002529D02*
X026953Y002135D01*
X026756Y001978D02*
X031126Y002372D01*
X031126Y002332D02*
X026717Y001939D01*
X026953Y001742D02*
X030890Y002135D01*
X031126Y001978D02*
X026717Y001584D01*
X026717Y001545D02*
X031126Y001939D01*
X030890Y001742D02*
X026953Y001348D01*
X026717Y001191D02*
X031126Y001584D01*
X031126Y001545D02*
X026717Y001151D01*
X026914Y000954D02*
X030890Y001348D01*
X031126Y001191D02*
X026717Y000797D01*
X026717Y000757D02*
X031126Y001151D01*
X030890Y000954D02*
X028922Y000757D01*
X030772Y000718D02*
X031126Y000757D01*
X029315Y003513D02*
X026992Y003317D01*
D16*
X003272Y016072D03*
X003272Y016545D03*
X003272Y017647D03*
X003272Y018120D03*
X008902Y025876D03*
X008902Y026348D03*
D17*
X008902Y026112D03*
X003272Y017883D03*
X003272Y016309D03*
D18*
X000516Y019891D02*
X006717Y019891D01*
X006717Y024537D01*
X000516Y024537D01*
X000516Y019891D01*
X024099Y024380D02*
X024101Y024414D01*
X024107Y024448D01*
X024117Y024481D01*
X024130Y024512D01*
X024148Y024542D01*
X024168Y024570D01*
X024192Y024595D01*
X024218Y024617D01*
X024246Y024635D01*
X024277Y024651D01*
X024309Y024663D01*
X024343Y024671D01*
X024377Y024675D01*
X024411Y024675D01*
X024445Y024671D01*
X024479Y024663D01*
X024511Y024651D01*
X024541Y024635D01*
X024570Y024617D01*
X024596Y024595D01*
X024620Y024570D01*
X024640Y024542D01*
X024658Y024512D01*
X024671Y024481D01*
X024681Y024448D01*
X024687Y024414D01*
X024689Y024380D01*
X024687Y024346D01*
X024681Y024312D01*
X024671Y024279D01*
X024658Y024248D01*
X024640Y024218D01*
X024620Y024190D01*
X024596Y024165D01*
X024570Y024143D01*
X024542Y024125D01*
X024511Y024109D01*
X024479Y024097D01*
X024445Y024089D01*
X024411Y024085D01*
X024377Y024085D01*
X024343Y024089D01*
X024309Y024097D01*
X024277Y024109D01*
X024246Y024125D01*
X024218Y024143D01*
X024192Y024165D01*
X024168Y024190D01*
X024148Y024218D01*
X024130Y024248D01*
X024117Y024279D01*
X024107Y024312D01*
X024101Y024346D01*
X024099Y024380D01*
D19*
X008843Y024970D03*
D20*
X009237Y024724D02*
X008449Y024724D01*
X008449Y025216D02*
X009237Y025216D01*
D21*
X008018Y030379D02*
X008018Y032159D01*
X006518Y032159D02*
X006518Y030379D01*
D22*
X018843Y028435D02*
X018843Y027805D01*
X020103Y027805D02*
X020103Y028435D01*
X025929Y028710D02*
X026559Y028710D01*
X026559Y027450D02*
X025929Y027450D01*
X029158Y027411D02*
X029788Y027411D01*
X029788Y028671D02*
X029158Y028671D01*
X009788Y016860D02*
X009788Y016230D01*
X008528Y016230D02*
X008528Y016860D01*
M02*
