%
M48
M72
T01C0.0197
T02C0.0374
T03C0.0400
T04C0.0472
T05C0.0512
T06C0.0866
T07C0.1180
T08C0.1500
%
T01
X6801Y6641
X7588Y7034
X8375Y7428
X7194Y9003
X6407Y9397
X7588Y10578
X6801Y11365
X7194Y11759
X8139Y12192
X10265Y10893
X11249Y10893
X9557Y9790
X12312Y8609
X11131Y7428
X13100Y5066
X14222Y7881
X14675Y8609
X15281Y9184
X13887Y9790
X13494Y11759
X14281Y12152
X13100Y12546
X12312Y12546
X16249Y12546
X17824Y13727
X18218Y13334
X20793Y11759
X22155Y11759
X26486Y8609
X26879Y8215
X29635Y8215
X32391Y7428
X34596Y8452
X39281Y8452
X43257Y11877
X41879Y12940
X43139Y14200
X45265Y13727
X43257Y16523
X41053Y17192
X42627Y18845
X41053Y19633
X41053Y20814
X39871Y21208
X39478Y20814
X39360Y20223
X38690Y19633
X39675Y19239
X38021Y17900
X38139Y17074
X36210Y16483
X34360Y16483
X33179Y16089
X32588Y16286
X32194Y16680
X31801Y17074
X31407Y17467
X31013Y17861
X30620Y18255
X30226Y18649
X29871Y19003
X29871Y19475
X31131Y19830
X32352Y20184
X33375Y21759
X33179Y22389
X31801Y22428
X28927Y22467
X28927Y21719
X26722Y21877
X26446Y21404
X25856Y21404
X24911Y21208
X24399Y22467
X25934Y22467
X25895Y24475
X25226Y24554
X24675Y24357
X21368Y24751
X19793Y24751
X19005Y24357
X18612Y25538
X17824Y25538
X16659Y25916
X17431Y27507
X19005Y28294
X20423Y28688
X22155Y27113
X28139Y26286
X28139Y28215
X28060Y28806
X28060Y29593
X30580Y28452
X30659Y29239
X32391Y31050
X33966Y31050
X34163Y29869
X33572Y29869
X33966Y29082
X35698Y27861
X36328Y27900
X36328Y27389
X35856Y26601
X36328Y26208
X38100Y24633
X37509Y23963
X37982Y22940
X36997Y22349
X36092Y21995
X35738Y21601
X35934Y23530
X38927Y24239
X39478Y25538
X39871Y26326
X40659Y26719
X39123Y27979
X38690Y28294
X37509Y29475
X37509Y30656
X37116Y31444
X38690Y31444
X31249Y26247
X22155Y21916
X21761Y21601
X22549Y20026
X23336Y19633
X25029Y18845
X26092Y18452
X26486Y18058
X26446Y19830
X25856Y19830
X23336Y17664
X23730Y16483
X24320Y16483
X24871Y16483
X25423Y16483
X22549Y16483
X20580Y18058
X21368Y18452
X20974Y19554
X17431Y18452
X17037Y18845
X15856Y18452
X15462Y17271
X11840Y15538
X10344Y17271
X10738Y18452
X11525Y19239
X10344Y19633
X11131Y20420
X15462Y20420
X16643Y20420
X17312Y22113
X13494Y25932
X10738Y25145
X8769Y26326
X13100Y29160
X16249Y30656
X8375Y31050
X7194Y16483
X7588Y15302
X8533Y15341
X5620Y15302
X5620Y13727
X16643Y10578
X17037Y7034
X17431Y6247
X22155Y6247
X28848Y11759
X27667Y12940
X30147Y13924
X31210Y14908
X32391Y14121
X32785Y13727
X33572Y12940
X35541Y12940
X36639Y13727
X37356Y14515
X38297Y14515
X38297Y13727
X33572Y15302
X29635Y15696
X31210Y11759
X35147Y4672
X41840Y22152
T02
X6293Y20912
X5505Y20912
X5505Y19928
X6293Y19928
T03
X5722Y11464
X3942Y11464
X3942Y8904
X5722Y8904
X5332Y6853
X4332Y6853
X4332Y5853
X5332Y5853
X5332Y4853
X4332Y4853
X7769Y6247
X8769Y6247
X9769Y6247
X13281Y6247
X14281Y6247
X15281Y6247
X18793Y6247
X19793Y6247
X20793Y6247
X24305Y6247
X25305Y6247
X26305Y6247
X30604Y6641
X31604Y6641
X32604Y6641
X26517Y9684
X25517Y9684
X24517Y9684
X23517Y9684
X22517Y9684
X22517Y10684
X23517Y10684
X24517Y10684
X25517Y10684
X26517Y10684
X23336Y13334
X22155Y13334
X29793Y21444
X29793Y22586
X30895Y22586
X26249Y26050
X26249Y27231
X26249Y28412
X25068Y28412
X24812Y29766
X23435Y29766
X20875Y29766
X20875Y31546
X23435Y31546
X24812Y31546
X27372Y31546
X28871Y31314
X29871Y31314
X30871Y31314
X30871Y30314
X29871Y30314
X28871Y30314
X27372Y29766
X40659Y29869
X40840Y6641
X41840Y6641
X42840Y6641
T04
X41053Y4672
X43021Y2704
X43021Y1719
X39084Y1719
X39084Y2704
X33179Y2704
X33179Y1719
X29242Y1719
X29242Y2704
X31210Y4672
T05
X30226Y4672
X29242Y4672
X31210Y2704
X32194Y4672
X33179Y4672
X39084Y4672
X40068Y4672
X42037Y4672
X43021Y4672
X41053Y2704
T06
X40040Y9441
X43640Y9441
X33404Y9441
X29804Y9441
X27105Y3447
X23505Y3447
X21593Y3447
X17993Y3447
X16081Y3447
X12481Y3447
X10569Y3447
X6969Y3447
X4438Y18058
X4438Y22782
T07
X4714Y25263
X3533Y27113
X5895Y27113
T08
X3651Y2704
X3651Y31444
X44990Y31444
X44990Y2704
M30
