G75*
G70*
%OFA0B0*%
%FSLAX24Y24*%
%IPPOS*%
%LPD*%
%AMOC8*
5,1,8,0,0,1.08239X$1,22.5*
%
%ADD10C,0.1340*%
%ADD11R,0.0474X0.0513*%
%ADD12R,0.0631X0.0710*%
%ADD13R,0.0474X0.0237*%
%ADD14R,0.0257X0.0651*%
%ADD15R,0.0513X0.0474*%
%ADD16R,0.0710X0.0631*%
%ADD17C,0.1346*%
%ADD18R,0.0780X0.0780*%
%ADD19C,0.0780*%
%ADD20R,0.0560X0.0960*%
%ADD21R,0.1497X0.0946*%
%ADD22C,0.1660*%
%ADD23C,0.0966*%
%ADD24C,0.0867*%
%ADD25C,0.1261*%
%ADD26C,0.1080*%
%ADD27OC8,0.0720*%
%ADD28R,0.0552X0.0552*%
%ADD29OC8,0.0694*%
%ADD30R,0.0828X0.1419*%
%ADD31R,0.0540X0.0710*%
%ADD32R,0.0060X0.0720*%
%ADD33R,0.0474X0.0474*%
%ADD34R,0.0552X0.0474*%
%ADD35R,0.1025X0.1025*%
%ADD36C,0.0820*%
%ADD37R,0.0580X0.0300*%
%ADD38R,0.0300X0.0580*%
%ADD39R,0.0867X0.0356*%
%ADD40R,0.0280X0.0580*%
%ADD41R,0.0580X0.0280*%
%ADD42R,0.0356X0.0867*%
%ADD43R,0.0198X0.0710*%
%ADD44R,0.0710X0.0198*%
%ADD45R,0.0330X0.0580*%
%ADD46R,0.0867X0.2245*%
%ADD47R,0.2245X0.0867*%
%ADD48OC8,0.0840*%
D10*
X001363Y004104D03*
X016323Y011584D03*
X025378Y013946D03*
X039158Y004104D03*
X039158Y033238D03*
X001363Y025757D03*
D11*
X001697Y017883D03*
X001028Y017883D03*
X001028Y016309D03*
X001697Y016309D03*
X004906Y015856D03*
X004906Y015187D03*
X008823Y017883D03*
X009492Y017883D03*
X012445Y013553D03*
X013114Y013553D03*
X013114Y012372D03*
X012445Y012372D03*
X010752Y009616D03*
X010083Y009616D03*
X026953Y014399D03*
X026953Y015069D03*
X033705Y011978D03*
X034374Y011978D03*
X034374Y010009D03*
X033705Y010009D03*
X037248Y011191D03*
X037918Y011191D03*
X037918Y013159D03*
X037248Y013159D03*
X035162Y014340D03*
X034492Y014340D03*
X034492Y015521D03*
X035162Y015521D03*
X036461Y015521D03*
X037130Y015521D03*
X037977Y019517D03*
X037977Y020187D03*
X027898Y026289D03*
X027898Y026958D03*
X027898Y029124D03*
X027898Y029793D03*
X024827Y029754D03*
X024827Y029084D03*
X024827Y026998D03*
X024827Y026328D03*
X019768Y029537D03*
X019099Y029537D03*
X019099Y030403D03*
X019768Y030403D03*
X014689Y027726D03*
X014020Y027726D03*
X013961Y029754D03*
X013961Y030423D03*
X013961Y032509D03*
X013961Y033179D03*
D12*
X015536Y033435D03*
X015536Y032254D03*
X015536Y030679D03*
X015536Y029498D03*
X009237Y028828D03*
X009237Y027647D03*
X009237Y031860D03*
X009237Y033041D03*
X005693Y016112D03*
X005693Y014931D03*
D13*
X032096Y018572D03*
X032096Y018832D03*
X032094Y019092D03*
X032096Y019352D03*
X032096Y019612D03*
X032096Y019872D03*
X032096Y020132D03*
X032096Y020392D03*
X032096Y020652D03*
X032096Y020912D03*
X034396Y020912D03*
X034396Y020652D03*
X034396Y020392D03*
X034396Y020132D03*
X034396Y019872D03*
X034396Y019612D03*
X034396Y019352D03*
X034398Y019092D03*
X034396Y018832D03*
X034396Y018572D03*
D14*
X038774Y018986D03*
X039030Y018986D03*
X039286Y018986D03*
X039542Y018986D03*
X039542Y020718D03*
X039286Y020718D03*
X039030Y020718D03*
X038774Y020718D03*
X036156Y013277D03*
X035900Y013277D03*
X035644Y013277D03*
X035388Y013277D03*
X035388Y011545D03*
X035644Y011545D03*
X035900Y011545D03*
X036156Y011545D03*
D15*
X037248Y012175D03*
X037918Y012175D03*
X037130Y014340D03*
X036461Y014340D03*
X033193Y014340D03*
X032524Y014340D03*
X029315Y014399D03*
X029315Y015069D03*
X028134Y015069D03*
X028134Y014399D03*
X033705Y010994D03*
X034374Y010994D03*
X036992Y019517D03*
X036992Y020187D03*
X033587Y022529D03*
X032918Y022529D03*
X029985Y022982D03*
X029985Y023651D03*
X029040Y023651D03*
X029040Y022982D03*
X028016Y022982D03*
X028016Y023651D03*
X027898Y027706D03*
X027898Y028376D03*
X024827Y028376D03*
X024827Y027706D03*
X021185Y029537D03*
X020516Y029537D03*
X018311Y029537D03*
X017642Y029537D03*
X014689Y028710D03*
X014020Y028710D03*
X010103Y026722D03*
X010103Y026053D03*
X011205Y024124D03*
X011205Y023454D03*
X013174Y023454D03*
X013174Y024124D03*
X009177Y019458D03*
X008508Y019458D03*
X008075Y017883D03*
X007406Y017883D03*
X010280Y017883D03*
X010949Y017883D03*
X017170Y015128D03*
X017839Y015128D03*
X037642Y026151D03*
X038311Y026151D03*
X038311Y027726D03*
X037642Y027726D03*
X037642Y030088D03*
X038311Y030088D03*
X033646Y032903D03*
X033646Y033572D03*
X032071Y033572D03*
X032071Y032903D03*
X030496Y032903D03*
X030496Y033572D03*
D16*
X037386Y024576D03*
X038567Y024576D03*
X033843Y021702D03*
X032662Y021702D03*
X036599Y010009D03*
X037780Y010009D03*
X018095Y014340D03*
X016914Y014340D03*
D17*
X015311Y005241D03*
X013399Y005241D03*
X009799Y005241D03*
X007887Y005241D03*
X004287Y005241D03*
X018911Y005241D03*
X020822Y005241D03*
X024422Y005241D03*
X034208Y005241D03*
X037808Y005241D03*
X004512Y019852D03*
X004512Y024576D03*
D18*
X007087Y008041D03*
X012599Y008041D03*
X018111Y008041D03*
X023622Y008041D03*
X037008Y008041D03*
D19*
X036008Y008041D03*
X035008Y008041D03*
X022622Y008041D03*
X021622Y008041D03*
X017111Y008041D03*
X016111Y008041D03*
X011599Y008041D03*
X010599Y008041D03*
X006087Y008041D03*
X005087Y008041D03*
D20*
X010689Y029340D03*
X011599Y029340D03*
X012509Y029340D03*
X012509Y033670D03*
X011599Y033670D03*
X010689Y033670D03*
D21*
X011599Y031230D03*
X011599Y026900D03*
D22*
X005969Y028513D03*
X004788Y026663D03*
X003607Y028513D03*
D23*
X027268Y010320D03*
X027268Y007820D03*
X027268Y005320D03*
X031768Y005320D03*
X031768Y007820D03*
X031768Y010320D03*
D24*
X031768Y006580D03*
X027268Y006580D03*
D25*
X030929Y009080D03*
D26*
X005181Y032450D03*
X003331Y032450D03*
X001481Y032450D03*
D27*
X019835Y012478D03*
X020835Y012478D03*
X021835Y012478D03*
X022835Y012478D03*
X023835Y012478D03*
X023835Y011478D03*
X022835Y011478D03*
X021835Y011478D03*
X020835Y011478D03*
X019835Y011478D03*
X002650Y008647D03*
X002650Y007647D03*
X001650Y007647D03*
X001650Y008647D03*
X001650Y006647D03*
X002650Y006647D03*
X026189Y032108D03*
X026189Y033108D03*
X027189Y033108D03*
X028189Y033108D03*
X028189Y032108D03*
X027189Y032108D03*
D28*
X009256Y026112D03*
X008429Y026112D03*
X003744Y017883D03*
X002918Y017883D03*
X002918Y016309D03*
X003744Y016309D03*
D29*
X005579Y021722D03*
X006366Y021722D03*
X006366Y022706D03*
X005579Y022706D03*
D30*
X008075Y021033D03*
X009611Y021033D03*
D31*
X011299Y019458D03*
X011899Y019458D03*
D32*
X011599Y019458D03*
D33*
X009237Y022608D03*
X008449Y022608D03*
X008449Y023789D03*
X009237Y023789D03*
D34*
X009276Y024970D03*
X008410Y024970D03*
D35*
X007268Y030403D03*
X007268Y032135D03*
D36*
X018193Y031560D03*
X018193Y033340D03*
X020753Y033340D03*
X022130Y033340D03*
X022130Y031560D03*
X020753Y031560D03*
X024690Y031560D03*
X024690Y033340D03*
X003040Y013258D03*
X001260Y013258D03*
X001260Y010698D03*
X003040Y010698D03*
D37*
X031169Y027805D03*
X031169Y028120D03*
X031169Y028435D03*
X031169Y028750D03*
X031169Y029065D03*
X031169Y029380D03*
X031169Y029694D03*
X031169Y030009D03*
X034549Y030009D03*
X034549Y029694D03*
X034549Y029380D03*
X034549Y029065D03*
X034549Y028750D03*
X034549Y028435D03*
X034549Y028120D03*
X034549Y027805D03*
D38*
X033961Y027217D03*
X033646Y027217D03*
X033331Y027217D03*
X033016Y027217D03*
X032701Y027217D03*
X032386Y027217D03*
X032071Y027217D03*
X031756Y027217D03*
X031756Y030597D03*
X032071Y030597D03*
X032386Y030597D03*
X032701Y030597D03*
X033016Y030597D03*
X033331Y030597D03*
X033646Y030597D03*
X033961Y030597D03*
D39*
X029473Y028435D03*
X029473Y028041D03*
X029473Y027647D03*
X026244Y027687D03*
X026244Y028080D03*
X026244Y028474D03*
D40*
X008764Y014062D03*
X008449Y014062D03*
X008134Y014062D03*
X007819Y014062D03*
X007504Y014062D03*
X007189Y014062D03*
X006874Y014062D03*
X006559Y014062D03*
X006559Y010682D03*
X006874Y010682D03*
X007189Y010682D03*
X007504Y010682D03*
X007819Y010682D03*
X008134Y010682D03*
X008449Y010682D03*
X008764Y010682D03*
D41*
X009352Y011269D03*
X009352Y011584D03*
X009352Y011899D03*
X009352Y012214D03*
X009352Y012529D03*
X009352Y012844D03*
X009352Y013159D03*
X009352Y013474D03*
X005972Y013474D03*
X005972Y013159D03*
X005972Y012844D03*
X005972Y012529D03*
X005972Y012214D03*
X005972Y011899D03*
X005972Y011584D03*
X005972Y011269D03*
D42*
X008764Y016545D03*
X009158Y016545D03*
X009551Y016545D03*
X019079Y028120D03*
X019473Y028120D03*
X019866Y028120D03*
D43*
X019768Y025206D03*
X019571Y025206D03*
X019374Y025206D03*
X019177Y025206D03*
X018981Y025206D03*
X018784Y025206D03*
X018587Y025206D03*
X018390Y025206D03*
X018193Y025206D03*
X017996Y025206D03*
X017800Y025206D03*
X017603Y025206D03*
X019965Y025206D03*
X020162Y025206D03*
X020359Y025206D03*
X020555Y025206D03*
X020752Y025206D03*
X020949Y025206D03*
X021146Y025206D03*
X021343Y025206D03*
X021540Y025206D03*
X021737Y025206D03*
X021933Y025206D03*
X022130Y025206D03*
X022327Y025206D03*
X022524Y025206D03*
X022721Y025206D03*
X022918Y025206D03*
X023114Y025206D03*
X023311Y025206D03*
X023508Y025206D03*
X023705Y025206D03*
X023902Y025206D03*
X024099Y025206D03*
X024296Y025206D03*
X024492Y025206D03*
X024492Y016860D03*
X024296Y016860D03*
X024099Y016860D03*
X023902Y016860D03*
X023705Y016860D03*
X023508Y016860D03*
X023311Y016860D03*
X023114Y016860D03*
X022918Y016860D03*
X022721Y016860D03*
X022524Y016860D03*
X022327Y016860D03*
X022130Y016860D03*
X021933Y016860D03*
X021737Y016860D03*
X021540Y016860D03*
X021343Y016860D03*
X021146Y016860D03*
X020949Y016860D03*
X020752Y016860D03*
X020555Y016860D03*
X020359Y016860D03*
X020162Y016860D03*
X019965Y016860D03*
X019768Y016860D03*
X019571Y016860D03*
X019374Y016860D03*
X019177Y016860D03*
X018981Y016860D03*
X018784Y016860D03*
X018587Y016860D03*
X018390Y016860D03*
X018193Y016860D03*
X017996Y016860D03*
X017800Y016860D03*
X017603Y016860D03*
D44*
X016874Y017588D03*
X016874Y017785D03*
X016874Y017982D03*
X016874Y018179D03*
X016874Y018376D03*
X016874Y018572D03*
X016874Y018769D03*
X016874Y018966D03*
X016874Y019163D03*
X016874Y019360D03*
X016874Y019557D03*
X016874Y019754D03*
X016874Y019950D03*
X016874Y020147D03*
X016874Y020344D03*
X016874Y020541D03*
X016874Y020738D03*
X016874Y020935D03*
X016874Y021131D03*
X016874Y021328D03*
X016874Y021525D03*
X016874Y021722D03*
X016874Y021919D03*
X016874Y022116D03*
X016874Y022313D03*
X016874Y022509D03*
X016874Y022706D03*
X016874Y022903D03*
X016874Y023100D03*
X016874Y023297D03*
X016874Y023494D03*
X016874Y023691D03*
X016874Y023887D03*
X016874Y024084D03*
X016874Y024281D03*
X016874Y024478D03*
X025221Y024478D03*
X025221Y024281D03*
X025221Y024084D03*
X025221Y023887D03*
X025221Y023691D03*
X025221Y023494D03*
X025221Y023297D03*
X025221Y023100D03*
X025221Y022903D03*
X025221Y022706D03*
X025221Y022509D03*
X025221Y022313D03*
X025221Y022116D03*
X025221Y021919D03*
X025221Y021722D03*
X025221Y021525D03*
X025221Y021328D03*
X025221Y021131D03*
X025221Y020935D03*
X025221Y020738D03*
X025221Y020541D03*
X025221Y020344D03*
X025221Y020147D03*
X025221Y019950D03*
X025221Y019754D03*
X025221Y019557D03*
X025221Y019360D03*
X025221Y019163D03*
X025221Y018966D03*
X025221Y018769D03*
X025221Y018572D03*
X025221Y018376D03*
X025221Y018179D03*
X025221Y017982D03*
X025221Y017785D03*
X025221Y017588D03*
D45*
X034477Y016702D03*
X034827Y016702D03*
X035177Y016702D03*
X036446Y016702D03*
X036796Y016702D03*
X037146Y016702D03*
X009626Y029852D03*
X009276Y029852D03*
X008926Y029852D03*
X008926Y030836D03*
X009276Y030836D03*
X009626Y030836D03*
D46*
X026244Y029911D03*
X029473Y029911D03*
X029473Y026171D03*
X026244Y026171D03*
D47*
X021343Y028120D03*
X017603Y028120D03*
X011028Y016545D03*
X007288Y016545D03*
D48*
X019827Y026427D03*
X019866Y015128D03*
X036087Y031151D03*
M02*
